<svg width="18" height="11" viewBox="0 0 18 11" fill="none" xmlns="http://www.w3.org/2000/svg">
<path fill-rule="evenodd" clip-rule="evenodd" d="M0.186588 4.96527C1.26802 3.58326 4.48702 0 8.79186 0C13.0967 0 16.3157 3.58326 17.3971 4.96527C17.6459 5.28321 17.6459 5.71679 17.3971 6.03473C16.3157 7.41674 13.0967 11 8.79186 11C4.48702 11 1.26802 7.41674 0.186588 6.03473C-0.0621956 5.71679 -0.0621963 5.28321 0.186588 4.96527ZM8.79186 7.5C9.89643 7.5 10.7919 6.60457 10.7919 5.5C10.7919 4.39543 9.89643 3.5 8.79186 3.5C7.68729 3.5 6.79186 4.39543 6.79186 5.5C6.79186 6.60457 7.68729 7.5 8.79186 7.5Z" fill="#A8A8A8"/>
</svg>
