<svg width="20" height="20" viewBox="0 0 20 20" fill="none" xmlns="http://www.w3.org/2000/svg">
<circle cx="10" cy="10" r="10" fill="#FFDAF9"/>
<path d="M11.9775 9.20112C12.5949 8.92347 13.4701 8.65933 14.3335 8.85641C15.9202 9.21857 15.985 10.5559 15.1458 11.2357C15.6096 12.2006 14.9683 13.3891 13.3816 13.0269C12.5523 12.8377 11.9013 12.2457 11.4615 11.7552L10.0571 10.3721C9.91213 10.2294 9.99383 9.87253 10.1864 9.80737L11.9775 9.20112Z" fill="#ED9EF8"/>
<path d="M11.8935 11.0231C12.4956 11.3328 13.2477 11.8523 13.632 12.6503C14.3381 14.1166 13.3329 15.0011 12.2782 14.7688C11.813 15.733 10.484 15.9726 9.77784 14.5063C9.40877 13.7399 9.46567 12.8618 9.57496 12.2122L9.78064 10.2518C9.80187 10.0495 10.1318 9.89087 10.3028 10.0008L11.8935 11.0231Z" fill="#ED9EF8"/>
<path d="M10.3883 12.098C10.5215 12.7617 10.5843 13.6737 10.2 14.4717C9.4939 15.938 8.17565 15.7036 7.69967 14.7341C6.65578 14.9716 5.63975 14.0819 6.3459 12.6156C6.71497 11.8492 7.43696 11.3462 8.01303 11.0266L9.67397 9.96514C9.84538 9.8556 10.1751 10.0147 10.1958 10.2169L10.3883 12.098Z" fill="#ED9EF8"/>
<path d="M8.58104 11.6944C8.14519 12.2124 7.47133 12.8301 6.60787 13.0272C5.02117 13.3893 4.38254 12.2125 4.84373 11.2359C4.00718 10.5679 4.06927 9.21882 5.65598 8.85667C6.48527 8.66739 7.32868 8.91825 7.93772 9.16937L9.80321 9.80612C9.99572 9.87183 10.0769 10.2288 9.93174 10.371L8.58104 11.6944Z" fill="#ED9EF8"/>
<path d="M7.86852 9.93768C7.19174 9.91992 6.28867 9.7782 5.59623 9.22599C4.32379 8.21126 4.84568 6.97822 5.89675 6.72991C5.89749 5.65934 6.99094 4.86676 8.26338 5.88149C8.92842 6.41184 9.25814 7.22766 9.44155 7.8604L10.1068 9.7159C10.1755 9.90738 9.94705 10.1934 9.7453 10.1686L7.86852 9.93768Z" fill="#ED9EF8"/>
<path d="M8.7119 8.30452C8.30381 7.76433 7.85156 6.96991 7.85156 6.08425C7.85156 4.45674 9.14098 4.09598 9.99045 4.76292C10.8279 4.09601 12.1293 4.45674 12.1293 6.08425C12.1293 6.93486 11.6971 7.70131 11.3167 8.2392L10.2808 9.91623C10.1739 10.0893 9.80788 10.089 9.7015 9.91583L8.7119 8.30452Z" fill="#ED9EF8"/>
<path d="M10.6096 7.96496C10.7775 7.3091 11.1166 6.4602 11.809 5.908C13.0815 4.89326 14.1675 5.67645 14.1757 6.75642C15.2192 6.99536 15.7486 8.23776 14.4762 9.2525C13.8112 9.78285 12.9424 9.92277 12.2847 9.96078L10.3277 10.1965C10.1258 10.2208 9.89772 9.93446 9.96681 9.7433L10.6096 7.96496Z" fill="#ED9EF8"/>
<g style="mix-blend-mode:multiply">
<path d="M9.75088 7.83861C9.77943 7.53605 10.221 7.53605 10.2496 7.83861C10.2722 8.07906 10.5886 8.15126 10.7133 7.94447C10.8703 7.68426 11.2682 7.87585 11.1626 8.16083C11.0787 8.38731 11.3324 8.58961 11.5345 8.45743C11.7889 8.2911 12.0642 8.63634 11.8455 8.84731C11.6716 9.01496 11.8124 9.30728 12.0519 9.2759C12.3532 9.2364 12.4514 9.66691 12.1628 9.76207C11.9335 9.83769 11.9335 10.1621 12.1628 10.2378C12.4514 10.3329 12.3532 10.7634 12.0519 10.7239C11.8124 10.6926 11.6716 10.9849 11.8455 11.1525C12.0642 11.3635 11.7889 11.7087 11.5345 11.5424C11.3324 11.4102 11.0787 11.6125 11.1626 11.839C11.2682 12.124 10.8703 12.3156 10.7133 12.0554C10.5886 11.8486 10.2722 11.9208 10.2496 12.1612C10.221 12.4638 9.77943 12.4638 9.75088 12.1612C9.7282 11.9208 9.41187 11.8486 9.28711 12.0554C9.13011 12.3156 8.73226 12.124 8.83782 11.839C8.9217 11.6125 8.66803 11.4102 8.4659 11.5424C8.21155 11.7087 7.93623 11.3635 8.15498 11.1525C8.32883 10.9849 8.18805 10.6926 7.94858 10.7239C7.64726 10.7634 7.549 10.3329 7.83762 10.2378C8.06699 10.1621 8.06699 9.83769 7.83762 9.76207C7.549 9.66691 7.64726 9.2364 7.94858 9.2759C8.18805 9.30728 8.32883 9.01496 8.15498 8.84731C7.93623 8.63635 8.21155 8.2911 8.4659 8.45743C8.66803 8.5896 8.9217 8.38731 8.83782 8.16083C8.73226 7.87585 9.13011 7.68426 9.28711 7.94447C9.41187 8.15126 9.7282 8.07906 9.75088 7.83861Z" fill="#F18BFF"/>
</g>
<g style="mix-blend-mode:multiply">
<path fill-rule="evenodd" clip-rule="evenodd" d="M9.67134 7.83108C9.70901 7.43179 10.2918 7.4318 10.3294 7.83108C10.3449 7.99466 10.5601 8.04377 10.6449 7.90309C10.8521 7.5597 11.3772 7.81254 11.2379 8.18863C11.1808 8.3427 11.3534 8.48033 11.4909 8.3904C11.8265 8.17091 12.1899 8.62652 11.9012 8.90492C11.7829 9.01898 11.8787 9.21785 12.0416 9.1965C12.4393 9.14438 12.5689 9.71252 12.1881 9.8381C12.032 9.88954 12.032 10.1103 12.1881 10.1617C12.5689 10.2873 12.4393 10.8554 12.0416 10.8033C11.8787 10.782 11.7829 10.9808 11.9012 11.0949C12.1899 11.3733 11.8265 11.8289 11.4909 11.6094C11.3534 11.5195 11.1808 11.6571 11.2379 11.8112C11.3772 12.1873 10.8521 12.4401 10.6449 12.0967C10.5601 11.956 10.3449 12.0052 10.3294 12.1687C10.2918 12.568 9.70901 12.568 9.67134 12.1687C9.6559 12.0052 9.44071 11.956 9.35583 12.0967C9.14864 12.4401 8.6236 12.1873 8.7629 11.8112C8.81997 11.6571 8.6474 11.5195 8.50988 11.6094C8.17422 11.8289 7.81089 11.3733 8.09957 11.0949C8.21783 10.9808 8.12206 10.782 7.95915 10.8033C7.5615 10.8554 7.43182 10.2873 7.81271 10.1617C7.96875 10.1103 7.96875 9.88954 7.81271 9.8381C7.43182 9.71252 7.5615 9.14438 7.95915 9.1965C8.12206 9.21785 8.21783 9.01898 8.09957 8.90492C7.81089 8.62652 8.17422 8.17091 8.50988 8.3904C8.6474 8.48033 8.81997 8.3427 8.7629 8.18863C8.6236 7.81254 9.14864 7.55969 9.35583 7.90309C9.44071 8.04377 9.6559 7.99465 9.67134 7.83108ZM10.17 7.84612C10.1506 7.64029 9.85018 7.64029 9.83076 7.84612C9.80082 8.16343 9.38337 8.25871 9.21872 7.98582C9.11191 7.80879 8.84125 7.93914 8.91306 8.13301C9.02377 8.43189 8.689 8.69886 8.42225 8.52442C8.24921 8.41127 8.06191 8.64614 8.21073 8.78966C8.44015 9.01091 8.25436 9.39669 7.93834 9.35527C7.73335 9.3284 7.6665 9.62128 7.86285 9.68602C8.16555 9.78581 8.16555 10.214 7.86285 10.3138C7.6665 10.3785 7.73335 10.6714 7.93834 10.6445C8.25436 10.6031 8.44015 10.9889 8.21073 11.2102C8.06191 11.3537 8.24921 11.5885 8.42225 11.4754C8.689 11.301 9.02377 11.5679 8.91306 11.8668C8.84125 12.0607 9.11191 12.191 9.21872 12.014C9.38337 11.7411 9.80082 11.8364 9.83076 12.1537C9.85018 12.3595 10.1506 12.3595 10.17 12.1537C10.1999 11.8364 10.6174 11.7411 10.782 12.014C10.8889 12.191 11.1595 12.0607 11.0877 11.8668C10.977 11.5679 11.3118 11.301 11.5785 11.4754C11.7516 11.5885 11.9389 11.3537 11.79 11.2102C11.5606 10.9889 11.7464 10.6031 12.0624 10.6445C12.2674 10.6714 12.3343 10.3785 12.1379 10.3138C11.8352 10.214 11.8352 9.78581 12.1379 9.68602C12.3343 9.62128 12.2674 9.3284 12.0624 9.35527C11.7464 9.39669 11.5606 9.01091 11.79 8.78966C11.9389 8.64614 11.7516 8.41127 11.5785 8.52442C11.3118 8.69886 10.977 8.43189 11.0877 8.13301C11.1595 7.93914 10.8889 7.80879 10.782 7.98582C10.6174 8.25871 10.1999 8.16343 10.17 7.84612Z" fill="#ECA9F5"/>
</g>
</svg>
