<svg width="24" height="24" viewBox="0 0 24 24" fill="none" xmlns="http://www.w3.org/2000/svg">
<circle cx="12" cy="12" r="12" fill="#FFE4CC"/>
<path d="M11.75 8.75H12.375V14.4949C12.375 14.7739 12.1489 15 11.8699 15H11.75V8.75Z" fill="#68BE3F"/>
<path d="M12 9.0404C12 6.80895 13.809 5 16.0404 5H16.6C16.8209 5 17 5.17909 17 5.4V5.9596C17 8.19105 15.191 10 12.9596 10H12.202C12.0904 10 12 9.90955 12 9.79798V9.0404Z" fill="#68BE3F"/>
<path d="M7 5.9596C7 8.19105 8.80895 10 11.0404 10H11.798C11.9096 10 12 9.90955 12 9.79798V9.0404C12 6.80895 10.191 5 7.9596 5H7.4C7.17909 5 7 5.17909 7 5.4V5.9596Z" fill="#4D942C"/>
<path d="M17.262 13.4546H6.73749C6.49406 13.4546 6.30889 13.6732 6.34891 13.9133L7.05875 18.1723C7.21705 19.1221 8.03878 19.8182 9.00165 19.8182H14.9978C15.9607 19.8182 16.7824 19.1221 16.9407 18.1723L17.6506 13.9133C17.6906 13.6732 17.5054 13.4546 17.262 13.4546Z" fill="#C88044"/>
<rect x="5" y="9.63647" width="14" height="4.24242" rx="2.12121" fill="#FE9A51"/>
</svg>
