<svg width="24" height="24" viewBox="0 0 24 24" fill="none" xmlns="http://www.w3.org/2000/svg">
<circle cx="12" cy="12" r="12" fill="#C4DFFF"/>
<path fill-rule="evenodd" clip-rule="evenodd" d="M17.391 7.70438C17.789 7.58363 18.2107 7.56291 18.6187 7.64406C19.0267 7.72522 19.4084 7.90574 19.73 8.16964C20.0515 8.43354 20.3031 8.77267 20.4622 9.15699C20.6214 9.54131 20.6834 9.95896 20.6426 10.3729C20.6018 10.7869 20.4596 11.1845 20.2285 11.5303C19.9974 11.8762 19.6845 12.1598 19.3177 12.3559C18.9508 12.552 18.5412 12.6545 18.1253 12.6545H5.00025C4.63875 12.6545 4.3457 12.3615 4.3457 12C4.3457 11.6385 4.63875 11.3455 5.00025 11.3455H18.1253C18.326 11.3455 18.5236 11.296 18.7006 11.2013C18.8776 11.1067 19.0285 10.9699 19.14 10.8031C19.2515 10.6362 19.3202 10.4444 19.3398 10.2446C19.3595 10.0449 19.3296 9.84339 19.2528 9.65796C19.176 9.47253 19.0546 9.30891 18.8995 9.18158C18.7444 9.05425 18.5602 8.96716 18.3634 8.928C18.1665 8.88885 17.963 8.89884 17.771 8.9571C17.5789 9.01536 17.4042 9.12009 17.2623 9.26201C17.0066 9.51763 16.5922 9.51763 16.3366 9.26201C16.081 9.0064 16.081 8.59196 16.3366 8.33635C16.6307 8.0422 16.9929 7.82513 17.391 7.70438Z" fill="#4075FF"/>
<path fill-rule="evenodd" clip-rule="evenodd" d="M11.1248 5.43823C11.4639 5.33538 11.8231 5.31773 12.1706 5.38686C12.5181 5.45598 12.8432 5.60974 13.1171 5.83452C13.391 6.0593 13.6052 6.34815 13.7408 6.6755C13.8764 7.00284 13.9291 7.35858 13.8944 7.71119C13.8597 8.0638 13.7385 8.4024 13.5417 8.69701C13.3448 8.99161 13.0784 9.23312 12.7659 9.40014C12.4534 9.56717 12.1046 9.65455 11.7502 9.65455H5.00025C4.63875 9.65455 4.3457 9.3615 4.3457 9C4.3457 8.63851 4.63875 8.34546 5.00025 8.34546H11.7502C11.8893 8.34546 12.0262 8.31117 12.1488 8.24563C12.2714 8.18009 12.376 8.08532 12.4532 7.96971C12.5305 7.85411 12.578 7.72124 12.5916 7.58287C12.6053 7.44451 12.5846 7.30492 12.5313 7.17646C12.4781 7.04801 12.3941 6.93466 12.2866 6.84646C12.1791 6.75826 12.0516 6.69792 11.9152 6.6708C11.7788 6.64367 11.6379 6.6506 11.5048 6.69096C11.3718 6.73132 11.2507 6.80386 11.1524 6.90218C10.8968 7.15779 10.4824 7.15779 10.2268 6.90218C9.97114 6.64656 9.97114 6.23213 10.2268 5.97651C10.4773 5.72597 10.7858 5.54109 11.1248 5.43823Z" fill="#6FA0FF"/>
<path fill-rule="evenodd" clip-rule="evenodd" d="M4.3457 15C4.3457 14.6385 4.63875 14.3455 5.00025 14.3455H14.0002C14.3546 14.3455 14.7034 14.4328 15.0159 14.5999C15.3284 14.7669 15.5948 15.0084 15.7917 15.303C15.9885 15.5976 16.1097 15.9362 16.1444 16.2888C16.1791 16.6414 16.1264 16.9972 15.9908 17.3245C15.8552 17.6519 15.641 17.9407 15.3671 18.1655C15.0932 18.3903 14.7681 18.544 14.4206 18.6132C14.0731 18.6823 13.7139 18.6646 13.3748 18.5618C13.0358 18.4589 12.7273 18.274 12.4768 18.0235C12.2211 17.7679 12.2211 17.3534 12.4768 17.0978C12.7324 16.8422 13.1468 16.8422 13.4024 17.0978C13.5007 17.1961 13.6218 17.2687 13.7548 17.3091C13.8879 17.3494 14.0288 17.3563 14.1652 17.3292C14.3015 17.3021 14.4291 17.2418 14.5366 17.1535C14.6441 17.0653 14.7281 16.952 14.7813 16.8235C14.8346 16.6951 14.8553 16.5555 14.8416 16.4171C14.828 16.2788 14.7805 16.1459 14.7032 16.0303C14.626 15.9147 14.5214 15.8199 14.3988 15.7544C14.2762 15.6888 14.1393 15.6545 14.0002 15.6545H5.00025C4.63875 15.6545 4.3457 15.3615 4.3457 15Z" fill="#4075FF"/>
</svg>
