<svg width="20" height="20" viewBox="0 0 20 20" fill="none" xmlns="http://www.w3.org/2000/svg">
<path d="M5.18497 17.605L5.7207 16.7606C5.46683 16.5996 5.15397 16.5613 4.86874 16.6563L5.18497 17.605ZM1 19L0.0513167 18.6838C-0.0684615 19.0431 0.0250609 19.4393 0.292893 19.7071C0.560725 19.9749 0.956893 20.0685 1.31623 19.9487L1 19ZM2.39499 14.815L3.34367 15.1313C3.43875 14.846 3.40045 14.5332 3.23938 14.2793L2.39499 14.815ZM10 20C15.5228 20 20 15.5228 20 10H18C18 14.4183 14.4183 18 10 18V20ZM4.64923 18.4494C6.19708 19.4315 8.03367 20 10 20V18C8.42421 18 6.95764 17.5454 5.7207 16.7606L4.64923 18.4494ZM4.86874 16.6563L0.683772 18.0513L1.31623 19.9487L5.5012 18.5537L4.86874 16.6563ZM1.94868 19.3162L3.34367 15.1313L1.44631 14.4988L0.0513167 18.6838L1.94868 19.3162ZM0 10C0 11.9663 0.568546 13.8029 1.5506 15.3508L3.23938 14.2793C2.45458 13.0424 2 11.5758 2 10H0ZM10 0C4.47715 0 0 4.47715 0 10H2C2 5.58172 5.58172 2 10 2V0ZM20 10C20 4.47715 15.5228 0 10 0V2C14.4183 2 18 5.58172 18 10H20Z" fill="#393939"/>
</svg>
