<svg width="18" height="18" viewBox="0 0 18 18" fill="current" xmlns="http://www.w3.org/2000/svg">
<path d="M4.71997 15.76L5.25571 14.9156C5.00184 14.7546 4.68897 14.7163 4.40374 14.8113L4.71997 15.76ZM1 17L0.0513167 16.6838C-0.0684615 17.0431 0.0250609 17.4393 0.292893 17.7071C0.560725 17.9749 0.956893 18.0685 1.31623 17.9487L1 17ZM2.23999 13.28L3.18867 13.5963C3.28375 13.311 3.24545 12.9982 3.08438 12.7443L2.23999 13.28ZM9 18C13.9706 18 18 13.9706 18 9H16C16 12.866 12.866 16 9 16V18ZM4.18424 16.6044C5.57738 17.4883 7.23046 18 9 18V16C7.62099 16 6.33793 15.6023 5.25571 14.9156L4.18424 16.6044ZM4.40374 14.8113L0.683772 16.0513L1.31623 17.9487L5.0362 16.7087L4.40374 14.8113ZM1.94868 17.3162L3.18867 13.5963L1.29131 12.9638L0.0513167 16.6838L1.94868 17.3162ZM0 9C0 10.7695 0.511705 12.4226 1.3956 13.8158L3.08438 12.7443C2.39774 11.6621 2 10.379 2 9H0ZM9 0C4.02944 0 0 4.02944 0 9H2C2 5.13401 5.13401 2 9 2V0ZM18 9C18 4.02944 13.9706 0 9 0V2C12.866 2 16 5.13401 16 9H18Z" fill="current"/>
</svg>
