<svg width="24" height="24" viewBox="0 0 24 24" fill="none" xmlns="http://www.w3.org/2000/svg">
<circle cx="12" cy="12" r="12" fill="#CFFFB8"/>
<path d="M10.6966 15.629C9.20243 15.4717 5.19784 15.6516 4.56517 10.3584C9.45094 9.84801 11.085 11.0182 10.6966 15.629C11.2077 16.1173 11.6548 17.7329 11.8166 19.3511C12.0506 17.2253 12.1356 13.9363 14.2453 11.8878C12.9095 8.95119 13.7133 6.30003 19.3151 6.57127C19.6278 8.33525 19.3404 12.7496 14.2453 11.8878C12.1356 13.9363 12.0506 17.2253 11.8166 19.3511C11.6548 17.7329 11.2077 16.1173 10.6966 15.629Z" fill="#68BE3F"/>
<path fill-rule="evenodd" clip-rule="evenodd" d="M13.5986 11.7695C13.0245 10.3438 12.892 8.84983 13.7379 7.70231C14.6434 6.47391 16.4968 5.88714 19.3417 6.0249C19.5971 6.03726 19.81 6.22465 19.8546 6.4764C20.0228 7.42506 20.041 9.11164 19.2881 10.4791C18.9034 11.1779 18.3142 11.7969 17.449 12.172C16.6508 12.5181 15.6578 12.6394 14.4404 12.4725C13.6083 13.3696 13.1425 14.5126 12.8612 15.7159C12.6244 16.7284 12.5267 17.7373 12.438 18.6529C12.4127 18.9141 12.3881 19.1678 12.3612 19.4118C12.3306 19.6905 12.0944 19.901 11.814 19.8996C11.5337 19.8982 11.2996 19.6853 11.2717 19.4064C11.1937 18.6258 11.0471 17.8513 10.8622 17.2214C10.7697 16.9062 10.6703 16.6365 10.5697 16.4244C10.5154 16.3098 10.4651 16.2214 10.4213 16.1553C10.3694 16.1512 10.3145 16.1472 10.2569 16.143C9.48522 16.0862 8.22431 15.9936 7.06217 15.4099C5.61414 14.6826 4.35731 13.2338 4.02148 10.4241C4.00407 10.2785 4.04581 10.1319 4.13734 10.0173C4.22888 9.90267 4.36256 9.82955 4.50845 9.81431C5.74899 9.68473 6.81554 9.65785 7.7108 9.77588C8.60816 9.89418 9.36813 10.1626 9.95859 10.6524C11.1162 11.6125 11.4186 13.2382 11.2606 15.4451C11.3755 15.5986 11.4742 15.7749 11.5596 15.9552C11.5909 16.021 11.6213 16.0895 11.6509 16.1605C11.6929 15.9297 11.7403 15.6978 11.7944 15.4665C12.0952 14.1799 12.6136 12.8508 13.5986 11.7695ZM10.2021 14.2315C10.1746 12.8045 9.83969 11.977 9.25921 11.4956C8.87898 11.1802 8.33862 10.9636 7.56761 10.862C6.92064 10.7767 6.13588 10.7756 5.19242 10.8511C5.57205 12.9472 6.55268 13.9281 7.55386 14.4309C8.16506 14.7379 8.79755 14.8789 9.37948 14.9565C9.02411 14.5875 8.61153 14.1796 8.20701 13.7892C7.79475 13.3914 7.40436 13.0245 7.11688 12.757C6.97321 12.6233 6.85541 12.5146 6.77365 12.4394C6.73276 12.4018 6.7009 12.3726 6.67932 12.3528C6.66854 12.343 6.66032 12.3355 6.65484 12.3304L6.64675 12.3231C6.64674 12.3231 6.64674 12.3231 6.71939 12.2433L6.64675 12.3231C6.42314 12.1193 6.40705 11.7729 6.61081 11.5492C6.81457 11.3256 7.16102 11.3096 7.38462 11.5133L7.01568 11.9182C7.38462 11.5133 7.38465 11.5133 7.38468 11.5134L7.38481 11.5135L7.39358 11.5215C7.39935 11.5268 7.40787 11.5345 7.41897 11.5447C7.44116 11.565 7.47368 11.5948 7.51525 11.6331C7.59838 11.7095 7.71776 11.8197 7.86318 11.955C8.15389 12.2256 8.54934 12.5971 8.96774 13.0009C9.37265 13.3916 9.81286 13.8255 10.2021 14.2315ZM15.2191 11.4454C15.9738 11.4789 16.5594 11.3637 17.0132 11.1669C17.6251 10.9016 18.0435 10.4683 18.3285 9.95077C18.8205 9.05708 18.9036 7.92598 18.8323 7.1034C16.3811 7.05471 15.1505 7.63222 14.6197 8.35235C14.1946 8.92898 14.1175 9.73954 14.3947 10.7228C14.6546 10.4048 14.9587 10.0619 15.2476 9.74719C15.5454 9.42256 15.831 9.12346 16.0419 8.90576C16.1474 8.7968 16.2345 8.70798 16.2953 8.64624C16.3257 8.61536 16.3496 8.59125 16.366 8.57476C16.3742 8.56651 16.3805 8.56017 16.3848 8.55584L16.3914 8.54918L16.3915 8.54906C16.3916 8.54903 16.3916 8.549 16.7792 8.93607L16.3916 8.549C16.6054 8.33495 16.9522 8.33471 17.1662 8.54848C17.3803 8.76225 17.3805 9.10907 17.1668 9.32313L17.1611 9.32877C17.1572 9.33269 17.1514 9.33861 17.1436 9.34642C17.1281 9.36205 17.1051 9.38524 17.0757 9.41514C17.0167 9.47494 16.9319 9.56151 16.8288 9.66794C16.6224 9.88101 16.344 10.1726 16.0547 10.4879C15.7647 10.804 15.4678 11.1394 15.2227 11.4411C15.2215 11.4425 15.2203 11.444 15.2191 11.4454Z" fill="#68BE3F"/>
<path fill-rule="evenodd" clip-rule="evenodd" d="M17.1937 8.45274C17.4602 8.68151 17.4909 9.08306 17.2621 9.34965L14.7285 12.3021C14.4997 12.5687 14.0982 12.5994 13.8316 12.3706C13.565 12.1418 13.5343 11.7403 13.7631 11.4737L16.2968 8.52122C16.5255 8.25463 16.9271 8.22398 17.1937 8.45274ZM6.54582 11.4891C6.78242 11.2295 7.18472 11.2108 7.44436 11.4474L7.01595 11.9176C7.44436 11.4474 7.44439 11.4474 7.44443 11.4475L7.45338 11.4557C7.45918 11.461 7.46772 11.4688 7.47885 11.4789C7.50109 11.4993 7.53366 11.5292 7.57529 11.5674C7.65853 11.644 7.77804 11.7543 7.9236 11.8898C8.21456 12.1605 8.61043 12.5325 9.02932 12.9367C9.84594 13.7248 10.8156 14.6971 11.2158 15.2611C11.4191 15.5476 11.3516 15.9446 11.0651 16.1479C10.7786 16.3511 10.3816 16.2837 10.1783 15.9972C9.86155 15.5508 8.99065 14.6672 8.14596 13.8521C7.7342 13.4548 7.34422 13.0883 7.057 12.821C6.91347 12.6875 6.7958 12.5789 6.71414 12.5037C6.67331 12.4662 6.6415 12.437 6.61998 12.4173C6.60921 12.4075 6.60102 12.4 6.59556 12.395L6.58761 12.3878L6.58754 12.3877C6.58753 12.3877 6.58753 12.3877 6.5934 12.3813L6.58754 12.3877C6.32789 12.1511 6.30921 11.7488 6.54582 11.4891Z" fill="#4D942C"/>
</svg>
