<svg width="24" height="24" viewBox="0 0 24 24" fill="none" xmlns="http://www.w3.org/2000/svg">
<circle cx="12" cy="12" r="12" fill="#C4EAFF"/>
<path d="M6.75 13.75C6.75 16.6667 9.08333 19 12 19C14.9167 19 17.25 16.6667 17.25 13.75C17.25 10.075 13.6333 5 12 5C10.7167 5 9.08333 7.50833 8.73333 8.03333C8.15 8.96667 6.75 11.4167 6.75 13.75Z" fill="#47BDFF"/>
<path d="M11.9997 16.6666H11.9413C10.483 16.6083 9.19967 15.2666 9.08301 13.8083V13.75C9.08301 13.4 9.31634 13.1666 9.66634 13.1666C9.95801 13.1666 10.2497 13.4 10.2497 13.75C10.2497 14.625 11.1247 15.5 11.9997 15.5C12.2913 15.5 12.583 15.7916 12.583 16.0833C12.583 16.375 12.3497 16.6666 11.9997 16.6666Z" fill="white"/>
</svg>
