<svg width="4" height="14" viewBox="0 0 4 14" fill="none" xmlns="http://www.w3.org/2000/svg">
<path d="M1.99967 3.66668C2.91634 3.66668 3.66634 2.91668 3.66634 2.00001C3.66634 1.08334 2.91634 0.333344 1.99967 0.333344C1.08301 0.333344 0.333008 1.08334 0.333008 2.00001C0.333008 2.91668 1.08301 3.66668 1.99967 3.66668ZM1.99967 5.33334C1.08301 5.33334 0.333008 6.08334 0.333008 7.00001C0.333008 7.91668 1.08301 8.66668 1.99967 8.66668C2.91634 8.66668 3.66634 7.91668 3.66634 7.00001C3.66634 6.08334 2.91634 5.33334 1.99967 5.33334ZM1.99967 10.3333C1.08301 10.3333 0.333008 11.0833 0.333008 12C0.333008 12.9167 1.08301 13.6667 1.99967 13.6667C2.91634 13.6667 3.66634 12.9167 3.66634 12C3.66634 11.0833 2.91634 10.3333 1.99967 10.3333Z" fill="#6F6F6F"/>
</svg>
