<svg width="156" height="162" viewBox="0 0 156 162" fill="none" xmlns="http://www.w3.org/2000/svg">
<path d="M16.4171 70.6938C16.4171 70.6938 43.8721 69.5902 49.8052 24.2898C55.0739 -15.9414 101.37 2.37033 114.753 18.4074C132.089 39.1822 122.848 74.9191 145.274 79.4337C167.7 83.9483 153.055 134.143 119.014 129.338C76.667 123.362 86.9124 148.2 74.2002 158.713C65.0769 166.258 27.6682 158.995 26.4214 131.605C25.3722 108.557 15.6865 108.63 8.82125 106.017C-1.08005 102.247 -7.31896 74.95 16.4171 70.6938Z" fill="#DEFBE6"/>
<path d="M109.749 121.003L82.7749 94.2485L77.4337 99.6743L104.407 126.428L109.749 121.003Z" fill="#A7F0BA"/>
<path d="M120.053 128.192L99.067 107.377C98.9502 107.261 98.7619 107.262 98.6464 107.379L90.7035 115.448C90.588 115.565 90.5892 115.754 90.706 115.87L111.692 136.685C111.809 136.801 111.997 136.8 112.112 136.682L120.055 128.614C120.171 128.497 120.17 128.307 120.053 128.192Z" fill="#6FDC8C"/>
<path d="M58.868 107.704C77.4251 107.704 92.4686 92.6036 92.4686 73.9765C92.4686 55.3493 77.4251 40.249 58.868 40.249C40.3109 40.249 25.2673 55.3493 25.2673 73.9765C25.2673 92.6036 40.3109 107.704 58.868 107.704Z" fill="#6FDC8C"/>
<path d="M58.868 102.201C74.3972 102.201 86.9861 89.5644 86.9861 73.9766C86.9861 58.3888 74.3972 45.7524 58.868 45.7524C43.3388 45.7524 30.7499 58.3888 30.7499 73.9766C30.7499 89.5644 43.3388 102.201 58.868 102.201Z" fill="#F7F8FA"/>
<path fill-rule="evenodd" clip-rule="evenodd" d="M84.4701 20.273C84.4521 18.0669 86.9505 14.7729 92.4486 14.7175C97.6617 14.665 101.147 17.5309 101.179 21.3711C101.21 25.2113 97.7708 28.0245 96.6781 28.8936C94.4524 30.6729 94.4216 31.899 94.4389 34.0235C94.4452 34.7998 94.0453 35.7027 92.0499 35.7228C90.3799 35.7397 89.8048 35.1326 89.7876 33.0082C89.7589 29.4947 91.2928 27.804 92.4655 26.7707C92.708 26.5604 92.9815 26.3457 93.2664 26.1219C94.5498 25.1143 96.0674 23.9228 96.0527 22.1174C96.0373 20.2381 94.4015 19.3553 92.3645 19.3763C89.9598 19.4005 89.2559 20.4617 88.663 21.3556C88.2316 22.006 87.8589 22.5678 86.9328 22.5771C85.8327 22.5883 84.483 21.8664 84.4701 20.273ZM89.9437 39.5006C90.5194 38.9058 91.3052 38.5623 92.1306 38.5446C92.9594 38.5407 93.7554 38.8661 94.3447 39.4496C94.9339 40.0331 95.2685 40.8273 95.2752 41.6585C95.282 42.4898 94.9605 43.2906 94.3808 43.8859C93.8012 44.4812 93.0107 44.8226 92.1819 44.8355C91.3563 44.8344 90.5651 44.5068 89.9798 43.9238C89.3945 43.3408 89.0625 42.5494 89.0558 41.7213C89.049 40.8932 89.3681 40.0953 89.9437 39.5006Z" fill="#6FDC8C"/>
</svg>
