<svg width="24" height="24" viewBox="0 0 24 24" fill="none" xmlns="http://www.w3.org/2000/svg">
<g opacity="0.78">
<path d="M8 20.0001V21.0001C8.26522 21.0001 8.51957 20.8947 8.70711 20.7072L8 20.0001ZM4 20.0001H3C3 20.5524 3.44772 21.0001 4 21.0001V20.0001ZM4 16.0001L3.29289 15.293C3.10536 15.4805 3 15.7349 3 16.0001H4ZM15.2929 4.7072L16 5.41431L16 5.41431L15.2929 4.7072ZM16.7071 4.7072L16 5.41431L16 5.41431L16.7071 4.7072ZM19.2929 7.29299L20 6.58588V6.58588L19.2929 7.29299ZM19.2929 8.7072L18.5858 8.00009L19.2929 8.7072ZM8 19.0001H4V21.0001H8V19.0001ZM5 20.0001V16.0001H3V20.0001H5ZM4.70711 16.7072L16 5.41431L14.5858 4.00009L3.29289 15.293L4.70711 16.7072ZM16 5.41431L18.5858 8.00009L20 6.58588L17.4142 4.00009L16 5.41431ZM18.5858 8.00009L7.29289 19.293L8.70711 20.7072L20 9.41431L18.5858 8.00009ZM18.5858 8.00009V8.00009L20 9.41431C20.781 8.63326 20.781 7.36693 20 6.58588L18.5858 8.00009ZM16 5.41431H16L17.4142 4.00009C16.6332 3.21904 15.3668 3.21904 14.5858 4.00009L16 5.41431Z" fill="#393939"/>
<path d="M12 8L16 12" stroke="#393939" stroke-width="2" stroke-linecap="round" stroke-linejoin="round"/>
</g>
</svg>
