<svg width="105" height="94" viewBox="0 0 105 94" fill="none" xmlns="http://www.w3.org/2000/svg">
<path d="M68.2299 17.7012L69.2286 19.645L71.1724 20.6437L69.2286 21.6424L68.2299 23.5862L67.2312 21.6424L65.2874 20.6437L67.2312 19.645L68.2299 17.7012Z" fill="#F5D540"/>
<path d="M61.6091 12L62.2333 13.2149L63.4482 13.8391L62.2333 14.4633L61.6091 15.6782L60.9849 14.4633L59.77 13.8391L60.9849 13.2149L61.6091 12Z" fill="#F5D540"/>
<g filter="url(#filter0_bdi_1718_33115)">
<path fill-rule="evenodd" clip-rule="evenodd" d="M40.4598 45.6531C40.3986 45.6545 40.3373 45.6551 40.2759 45.6551C35.7052 45.6551 32 41.9499 32 37.3793C32 34.2775 33.7064 31.5743 36.2317 30.1571C36.2305 30.0819 36.2299 30.0065 36.2299 29.931C36.2299 22.3641 42.3641 16.2299 49.931 16.2299C56.4582 16.2299 61.9193 20.794 63.2969 26.9049C68.2912 27.1146 72.2759 31.2299 72.2759 36.2758C72.2759 41.4559 68.0766 45.6551 62.8966 45.6551H40.4598V45.6531Z" fill="url(#paint0_radial_1718_33115)" fill-opacity="0.77"/>
</g>
<g style="mix-blend-mode:soft-light" filter="url(#filter1_di_1718_33115)">
<path d="M48.5517 37.3793C48.5517 41.9499 44.8465 45.6551 40.2759 45.6551C35.7052 45.6551 32 41.9499 32 37.3793C32 32.8086 35.7052 29.1034 40.2759 29.1034C44.8465 29.1034 48.5517 32.8086 48.5517 37.3793Z" fill="#848484"/>
</g>
<path d="M48.6479 51.0897L49.4714 45.6552H54.6208L53.6807 49.5724C53.5974 49.9193 53.8604 50.2529 54.2171 50.2529H54.6987C55.1383 50.2529 55.4013 50.7418 55.1591 51.1086L49.2875 60L51.3093 52.418C51.4027 52.0677 51.1387 51.7241 50.7762 51.7241H49.1934C48.8558 51.7241 48.5974 51.4236 48.6479 51.0897Z" fill="url(#paint1_linear_1718_33115)"/>
<mask id="mask0_1718_33115" style="mask-type:alpha" maskUnits="userSpaceOnUse" x="32" y="16" width="41" height="30">
<path fill-rule="evenodd" clip-rule="evenodd" d="M40.4598 45.6531C40.3986 45.6545 40.3373 45.6551 40.2759 45.6551C35.7052 45.6551 32 41.9499 32 37.3793C32 34.2775 33.7064 31.5743 36.2317 30.1571C36.2305 30.0819 36.2299 30.0065 36.2299 29.931C36.2299 22.3641 42.3641 16.2299 49.931 16.2299C56.4582 16.2299 61.9193 20.794 63.2969 26.9049C68.2912 27.1146 72.2759 31.2299 72.2759 36.2758C72.2759 41.4559 68.0766 45.6551 62.8966 45.6551C62.649 45.6551 62.4037 45.6456 62.1609 45.6267V45.6551H40.4598V45.6531Z" fill="url(#paint2_radial_1718_33115)" fill-opacity="0.77"/>
</mask>
<g mask="url(#mask0_1718_33115)">
<g filter="url(#filter2_f_1718_33115)">
<path d="M51.6782 38.6666C46.8128 42.249 42.3935 44.7366 39.5403 45.6551H64.7357C61.6723 45.6551 55.2072 40.7908 51.6782 38.6666Z" fill="url(#paint3_radial_1718_33115)"/>
</g>
<g style="mix-blend-mode:screen" filter="url(#filter3_f_1718_33115)">
<path d="M52.7816 35.5403C49.7074 37.3009 45.3889 45.5716 43.5862 46.023H61.977C60.0414 46.023 55.0113 36.5842 52.7816 35.5403Z" fill="url(#paint4_linear_1718_33115)"/>
</g>
<g style="mix-blend-mode:screen" filter="url(#filter4_f_1718_33115)">
<path d="M51.8622 37.7471C49.7991 38.9245 46.8193 45.721 45.6094 46.0229L57.9312 45.6551C56.6322 45.6551 53.3587 38.4452 51.8622 37.7471Z" fill="url(#paint5_linear_1718_33115)"/>
</g>
</g>
<defs>
<filter id="filter0_bdi_1718_33115" x="0" y="0.229858" width="104.276" height="93.4253" filterUnits="userSpaceOnUse" color-interpolation-filters="sRGB">
<feFlood flood-opacity="0" result="BackgroundImageFix"/>
<feGaussianBlur in="BackgroundImage" stdDeviation="7.5"/>
<feComposite in2="SourceAlpha" operator="in" result="effect1_backgroundBlur_1718_33115"/>
<feColorMatrix in="SourceAlpha" type="matrix" values="0 0 0 0 0 0 0 0 0 0 0 0 0 0 0 0 0 0 127 0" result="hardAlpha"/>
<feOffset dy="16"/>
<feGaussianBlur stdDeviation="16"/>
<feColorMatrix type="matrix" values="0 0 0 0 0 0 0 0 0 0.2015 0 0 0 0 0.3875 0 0 0 0.2 0"/>
<feBlend mode="normal" in2="effect1_backgroundBlur_1718_33115" result="effect2_dropShadow_1718_33115"/>
<feBlend mode="normal" in="SourceGraphic" in2="effect2_dropShadow_1718_33115" result="shape"/>
<feColorMatrix in="SourceAlpha" type="matrix" values="0 0 0 0 0 0 0 0 0 0 0 0 0 0 0 0 0 0 127 0" result="hardAlpha"/>
<feOffset dx="3" dy="3"/>
<feGaussianBlur stdDeviation="2.5"/>
<feComposite in2="hardAlpha" operator="arithmetic" k2="-1" k3="1"/>
<feColorMatrix type="matrix" values="0 0 0 0 1 0 0 0 0 1 0 0 0 0 1 0 0 0 1 0"/>
<feBlend mode="normal" in2="shape" result="effect3_innerShadow_1718_33115"/>
</filter>
<filter id="filter1_di_1718_33115" x="24" y="13.1034" width="28.5518" height="34.5518" filterUnits="userSpaceOnUse" color-interpolation-filters="sRGB">
<feFlood flood-opacity="0" result="BackgroundImageFix"/>
<feColorMatrix in="SourceAlpha" type="matrix" values="0 0 0 0 0 0 0 0 0 0 0 0 0 0 0 0 0 0 127 0" result="hardAlpha"/>
<feOffset dx="-2" dy="-10"/>
<feGaussianBlur stdDeviation="3"/>
<feColorMatrix type="matrix" values="0 0 0 0 0 0 0 0 0 0 0 0 0 0 0 0 0 0 0.22 0"/>
<feBlend mode="normal" in2="BackgroundImageFix" result="effect1_dropShadow_1718_33115"/>
<feBlend mode="normal" in="SourceGraphic" in2="effect1_dropShadow_1718_33115" result="shape"/>
<feColorMatrix in="SourceAlpha" type="matrix" values="0 0 0 0 0 0 0 0 0 0 0 0 0 0 0 0 0 0 127 0" result="hardAlpha"/>
<feOffset dx="4" dy="2"/>
<feGaussianBlur stdDeviation="2.5"/>
<feComposite in2="hardAlpha" operator="arithmetic" k2="-1" k3="1"/>
<feColorMatrix type="matrix" values="0 0 0 0 1 0 0 0 0 1 0 0 0 0 1 0 0 0 0.74 0"/>
<feBlend mode="normal" in2="shape" result="effect2_innerShadow_1718_33115"/>
</filter>
<filter id="filter2_f_1718_33115" x="31.5403" y="30.6666" width="41.1953" height="22.9885" filterUnits="userSpaceOnUse" color-interpolation-filters="sRGB">
<feFlood flood-opacity="0" result="BackgroundImageFix"/>
<feBlend mode="normal" in="SourceGraphic" in2="BackgroundImageFix" result="shape"/>
<feGaussianBlur stdDeviation="4" result="effect1_foregroundBlur_1718_33115"/>
</filter>
<filter id="filter3_f_1718_33115" x="39.5862" y="31.5403" width="26.3909" height="18.4828" filterUnits="userSpaceOnUse" color-interpolation-filters="sRGB">
<feFlood flood-opacity="0" result="BackgroundImageFix"/>
<feBlend mode="normal" in="SourceGraphic" in2="BackgroundImageFix" result="shape"/>
<feGaussianBlur stdDeviation="2" result="effect1_foregroundBlur_1718_33115"/>
</filter>
<filter id="filter4_f_1718_33115" x="41.6094" y="33.7471" width="20.3218" height="16.2759" filterUnits="userSpaceOnUse" color-interpolation-filters="sRGB">
<feFlood flood-opacity="0" result="BackgroundImageFix"/>
<feBlend mode="normal" in="SourceGraphic" in2="BackgroundImageFix" result="shape"/>
<feGaussianBlur stdDeviation="2" result="effect1_foregroundBlur_1718_33115"/>
</filter>
<radialGradient id="paint0_radial_1718_33115" cx="0" cy="0" r="1" gradientUnits="userSpaceOnUse" gradientTransform="translate(46.1912 22.5038) rotate(90.6693) scale(23.1409 26.4068)">
<stop stop-color="white"/>
<stop offset="1" stop-color="#99CEFF"/>
</radialGradient>
<linearGradient id="paint1_linear_1718_33115" x1="52.6101" y1="45.6552" x2="52.6101" y2="55.2184" gradientUnits="userSpaceOnUse">
<stop stop-color="#E2BC38"/>
<stop offset="1" stop-color="#FFE244"/>
</linearGradient>
<radialGradient id="paint2_radial_1718_33115" cx="0" cy="0" r="1" gradientUnits="userSpaceOnUse" gradientTransform="translate(46.1912 22.5038) rotate(90.6693) scale(23.1409 26.4068)">
<stop stop-color="white"/>
<stop offset="1" stop-color="#99CEFF"/>
</radialGradient>
<radialGradient id="paint3_radial_1718_33115" cx="0" cy="0" r="1" gradientUnits="userSpaceOnUse" gradientTransform="translate(54.0486 44.8801) rotate(-90) scale(3.96126 20.4642)">
<stop stop-color="#FFDE41"/>
<stop offset="1" stop-color="#FFD200" stop-opacity="0"/>
</radialGradient>
<linearGradient id="paint4_linear_1718_33115" x1="53.2759" y1="45.8185" x2="53.2759" y2="44.4676" gradientUnits="userSpaceOnUse">
<stop stop-color="#FFDE41"/>
<stop offset="1" stop-color="#FFD200" stop-opacity="0"/>
</linearGradient>
<linearGradient id="paint5_linear_1718_33115" x1="52.1126" y1="45.8803" x2="52.1126" y2="44.0142" gradientUnits="userSpaceOnUse">
<stop stop-color="#FFDE41"/>
<stop offset="1" stop-color="#FFD200" stop-opacity="0"/>
</linearGradient>
</defs>
</svg>
