<svg width="98" height="90" viewBox="0 0 98 90" fill="none" xmlns="http://www.w3.org/2000/svg">
<g filter="url(#filter0_i_1718_33094)">
<path d="M66.9367 21.557C66.9367 27.6811 61.9722 32.6456 55.8481 32.6456C49.7241 32.6456 44.7595 27.6811 44.7595 21.557C44.7595 15.4329 49.7241 10.4684 55.8481 10.4684C61.9722 10.4684 66.9367 15.4329 66.9367 21.557Z" fill="#FFAB0B"/>
</g>
<path fill-rule="evenodd" clip-rule="evenodd" d="M55.6808 5.00025C55.7113 5.00008 55.7418 5 55.7723 5C55.8028 5 55.8333 5.00008 55.8638 5.00025C56.5349 5.0039 57.076 5.55092 57.0723 6.22204C57.0687 6.89316 56.5217 7.43425 55.8505 7.43059C55.8245 7.43045 55.7984 7.43038 55.7723 7.43038C55.7462 7.43038 55.7201 7.43045 55.694 7.43059C55.0229 7.43425 54.4759 6.89316 54.4722 6.22204C54.4686 5.55092 55.0097 5.0039 55.6808 5.00025ZM45.9016 9.77237C46.3735 10.2495 46.3693 11.0189 45.8921 11.4909C45.8553 11.5273 45.8186 11.564 45.7821 11.6009C45.3102 12.078 44.5408 12.0822 44.0636 11.6103C43.5865 11.1384 43.5822 10.3689 44.0542 9.89178C44.0969 9.8486 44.1399 9.80564 44.183 9.76292C44.6602 9.29098 45.4296 9.29521 45.9016 9.77237ZM65.643 9.77237C66.1149 9.29521 66.8843 9.29098 67.3615 9.76292C67.4047 9.80564 67.4476 9.8486 67.4904 9.89178C67.9623 10.3689 67.9581 11.1384 67.4809 11.6103C67.0038 12.0822 66.2344 12.078 65.7624 11.6009C65.726 11.564 65.6893 11.5273 65.6524 11.4909C65.1753 11.0189 65.171 10.2495 65.643 9.77237ZM71.0312 20.181C71.7024 20.1773 72.2494 20.7184 72.253 21.3895C72.2532 21.42 72.2533 21.4505 72.2533 21.481C72.2533 21.5115 72.2532 21.542 72.253 21.5725C72.2494 22.2436 71.7024 22.7847 71.0312 22.7811C70.3601 22.7774 69.819 22.2304 69.8227 21.5593C69.8228 21.5332 69.8229 21.5071 69.8229 21.481C69.8229 21.4549 69.8228 21.4288 69.8227 21.4028C69.819 20.7316 70.3601 20.1846 71.0312 20.181ZM40.5133 20.181C41.1844 20.1846 41.7255 20.7316 41.7219 21.4028C41.7217 21.4288 41.7216 21.4549 41.7216 21.481C41.7216 21.5071 41.7217 21.5332 41.7219 21.5593C41.7255 22.2304 41.1844 22.7774 40.5133 22.7811C39.8422 22.7847 39.2952 22.2436 39.2915 21.5725C39.2913 21.542 39.2913 21.5115 39.2913 21.481C39.2913 21.4505 39.2913 21.42 39.2915 21.3895C39.2952 20.7184 39.8422 20.1773 40.5133 20.181ZM44.0636 31.3517C44.5408 30.8798 45.3102 30.884 45.7821 31.3612C45.8186 31.398 45.8553 31.4347 45.8921 31.4711C46.3693 31.9431 46.3735 32.7125 45.9016 33.1897C45.4296 33.6668 44.6602 33.671 44.183 33.1991C44.1399 33.1564 44.0969 33.1134 44.0542 33.0702C43.5822 32.5931 43.5865 31.8237 44.0636 31.3517ZM67.4809 31.3517C67.9581 31.8237 67.9623 32.5931 67.4904 33.0702C67.4476 33.1134 67.4047 33.1564 67.3615 33.1991C66.8843 33.671 66.1149 33.6668 65.643 33.1897C65.171 32.7125 65.1753 31.9431 65.6524 31.4711C65.6893 31.4347 65.726 31.398 65.7624 31.3612C66.2344 30.884 67.0038 30.8798 67.4809 31.3517ZM54.4722 36.74C54.4759 36.0689 55.0229 35.5278 55.694 35.5314C55.7201 35.5316 55.7462 35.5316 55.7723 35.5316C55.7984 35.5316 55.8245 35.5316 55.8505 35.5314C56.5217 35.5278 57.0687 36.0689 57.0723 36.74C57.076 37.4111 56.5349 37.9581 55.8638 37.9618C55.8491 37.9619 55.8343 37.9619 55.8196 37.962C55.8038 37.962 55.7881 37.962 55.7723 37.962C55.7418 37.962 55.7113 37.9619 55.6808 37.9618C55.0097 37.9581 54.4686 37.4111 54.4722 36.74Z" fill="#FFE200"/>
<g filter="url(#filter1_bdi_1718_33094)">
<path fill-rule="evenodd" clip-rule="evenodd" d="M57.519 41.1519H38.9873V41.1503C38.9368 41.1514 38.8862 41.1519 38.8354 41.1519C35.0603 41.1519 32 38.0916 32 34.3165C32 31.7546 33.4094 29.5218 35.4952 28.3514C35.4942 28.2892 35.4937 28.227 35.4937 28.1646C35.4937 21.9147 40.5602 16.8481 46.8101 16.8481C52.2012 16.8481 56.7118 20.6179 57.8496 25.6652C61.9747 25.8384 65.2658 29.2374 65.2658 33.4051C65.2658 37.6328 61.8792 41.0695 57.6709 41.1505V41.1519H57.519Z" fill="url(#paint0_radial_1718_33094)" fill-opacity="0.77"/>
</g>
<g style="mix-blend-mode:soft-light" filter="url(#filter2_di_1718_33094)">
<path d="M45.6709 34.3164C45.6709 38.0915 42.6106 41.1518 38.8354 41.1518C35.0603 41.1518 32 38.0915 32 34.3164C32 30.5413 35.0603 27.481 38.8354 27.481C42.6106 27.481 45.6709 30.5413 45.6709 34.3164Z" fill="#848484"/>
</g>
<path d="M45.7504 45.6406L46.4305 41.1519H50.6836L49.9071 44.3873C49.8383 44.6738 50.0555 44.9493 50.3502 44.9493H50.748C51.1111 44.9493 51.3283 45.3532 51.1283 45.6561L46.2786 53L47.9485 46.7376C48.0257 46.4483 47.8076 46.1645 47.5082 46.1645H46.2009C45.922 46.1645 45.7086 45.9163 45.7504 45.6406Z" fill="url(#paint1_linear_1718_33094)"/>
<mask id="mask0_1718_33094" style="mask-type:alpha" maskUnits="userSpaceOnUse" x="32" y="16" width="34" height="26">
<path fill-rule="evenodd" clip-rule="evenodd" d="M38.9873 41.1503C38.9368 41.1514 38.8862 41.1519 38.8354 41.1519C35.0603 41.1519 32 38.0916 32 34.3165C32 31.7546 33.4094 29.5218 35.4952 28.3514C35.4942 28.2892 35.4937 28.227 35.4937 28.1646C35.4937 21.9147 40.5602 16.8481 46.8101 16.8481C52.2012 16.8481 56.7118 20.6179 57.8496 25.6652C61.9747 25.8384 65.2658 29.2374 65.2658 33.4051C65.2658 37.6836 61.7974 41.1519 57.519 41.1519C57.3145 41.1519 57.1119 41.144 56.9114 41.1285V41.1519H38.9873V41.1503Z" fill="url(#paint2_radial_1718_33094)" fill-opacity="0.77"/>
</mask>
<g mask="url(#mask0_1718_33094)">
<g filter="url(#filter3_f_1718_33094)">
<path d="M48.2531 35.3798C44.2345 38.3386 40.5844 40.3932 38.2278 41.1519H59.0379C56.5077 41.1519 51.1678 37.1342 48.2531 35.3798Z" fill="url(#paint3_radial_1718_33094)"/>
</g>
<g style="mix-blend-mode:screen" filter="url(#filter4_f_1718_33094)">
<path d="M49.1645 32.7975C46.6254 34.2517 43.0586 41.0828 41.5696 41.4557H56.7595C55.1608 41.4557 51.0061 33.6597 49.1645 32.7975Z" fill="url(#paint4_linear_1718_33094)"/>
</g>
<g style="mix-blend-mode:screen" filter="url(#filter5_f_1718_33094)">
<path d="M48.5569 34.6202C46.8528 35.5927 44.3916 41.2063 43.3923 41.4557L53.5695 41.1519C52.4966 41.1519 49.7929 35.1969 48.5569 34.6202Z" fill="url(#paint5_linear_1718_33094)"/>
</g>
</g>
<defs>
<filter id="filter0_i_1718_33094" x="34.7595" y="10.4684" width="32.1772" height="35.1772" filterUnits="userSpaceOnUse" color-interpolation-filters="sRGB">
<feFlood flood-opacity="0" result="BackgroundImageFix"/>
<feBlend mode="normal" in="SourceGraphic" in2="BackgroundImageFix" result="shape"/>
<feColorMatrix in="SourceAlpha" type="matrix" values="0 0 0 0 0 0 0 0 0 0 0 0 0 0 0 0 0 0 127 0" result="hardAlpha"/>
<feOffset dx="-10" dy="13"/>
<feGaussianBlur stdDeviation="12"/>
<feComposite in2="hardAlpha" operator="arithmetic" k2="-1" k3="1"/>
<feColorMatrix type="matrix" values="0 0 0 0 1 0 0 0 0 0.886275 0 0 0 0 0 0 0 0 0.9 0"/>
<feBlend mode="normal" in2="shape" result="effect1_innerShadow_1718_33094"/>
</filter>
<filter id="filter1_bdi_1718_33094" x="0" y="0.848145" width="97.2659" height="88.3038" filterUnits="userSpaceOnUse" color-interpolation-filters="sRGB">
<feFlood flood-opacity="0" result="BackgroundImageFix"/>
<feGaussianBlur in="BackgroundImage" stdDeviation="7.5"/>
<feComposite in2="SourceAlpha" operator="in" result="effect1_backgroundBlur_1718_33094"/>
<feColorMatrix in="SourceAlpha" type="matrix" values="0 0 0 0 0 0 0 0 0 0 0 0 0 0 0 0 0 0 127 0" result="hardAlpha"/>
<feOffset dy="16"/>
<feGaussianBlur stdDeviation="16"/>
<feColorMatrix type="matrix" values="0 0 0 0 0 0 0 0 0 0.2015 0 0 0 0 0.3875 0 0 0 0.2 0"/>
<feBlend mode="normal" in2="effect1_backgroundBlur_1718_33094" result="effect2_dropShadow_1718_33094"/>
<feBlend mode="normal" in="SourceGraphic" in2="effect2_dropShadow_1718_33094" result="shape"/>
<feColorMatrix in="SourceAlpha" type="matrix" values="0 0 0 0 0 0 0 0 0 0 0 0 0 0 0 0 0 0 127 0" result="hardAlpha"/>
<feOffset dx="3" dy="3"/>
<feGaussianBlur stdDeviation="2.5"/>
<feComposite in2="hardAlpha" operator="arithmetic" k2="-1" k3="1"/>
<feColorMatrix type="matrix" values="0 0 0 0 1 0 0 0 0 1 0 0 0 0 1 0 0 0 1 0"/>
<feBlend mode="normal" in2="shape" result="effect3_innerShadow_1718_33094"/>
</filter>
<filter id="filter2_di_1718_33094" x="24" y="11.481" width="25.6709" height="31.6709" filterUnits="userSpaceOnUse" color-interpolation-filters="sRGB">
<feFlood flood-opacity="0" result="BackgroundImageFix"/>
<feColorMatrix in="SourceAlpha" type="matrix" values="0 0 0 0 0 0 0 0 0 0 0 0 0 0 0 0 0 0 127 0" result="hardAlpha"/>
<feOffset dx="-2" dy="-10"/>
<feGaussianBlur stdDeviation="3"/>
<feColorMatrix type="matrix" values="0 0 0 0 0 0 0 0 0 0 0 0 0 0 0 0 0 0 0.22 0"/>
<feBlend mode="normal" in2="BackgroundImageFix" result="effect1_dropShadow_1718_33094"/>
<feBlend mode="normal" in="SourceGraphic" in2="effect1_dropShadow_1718_33094" result="shape"/>
<feColorMatrix in="SourceAlpha" type="matrix" values="0 0 0 0 0 0 0 0 0 0 0 0 0 0 0 0 0 0 127 0" result="hardAlpha"/>
<feOffset dx="4" dy="2"/>
<feGaussianBlur stdDeviation="2.5"/>
<feComposite in2="hardAlpha" operator="arithmetic" k2="-1" k3="1"/>
<feColorMatrix type="matrix" values="0 0 0 0 1 0 0 0 0 1 0 0 0 0 1 0 0 0 0.74 0"/>
<feBlend mode="normal" in2="shape" result="effect2_innerShadow_1718_33094"/>
</filter>
<filter id="filter3_f_1718_33094" x="30.2278" y="27.3798" width="36.8101" height="21.7721" filterUnits="userSpaceOnUse" color-interpolation-filters="sRGB">
<feFlood flood-opacity="0" result="BackgroundImageFix"/>
<feBlend mode="normal" in="SourceGraphic" in2="BackgroundImageFix" result="shape"/>
<feGaussianBlur stdDeviation="4" result="effect1_foregroundBlur_1718_33094"/>
</filter>
<filter id="filter4_f_1718_33094" x="37.5696" y="28.7975" width="23.1899" height="16.6582" filterUnits="userSpaceOnUse" color-interpolation-filters="sRGB">
<feFlood flood-opacity="0" result="BackgroundImageFix"/>
<feBlend mode="normal" in="SourceGraphic" in2="BackgroundImageFix" result="shape"/>
<feGaussianBlur stdDeviation="2" result="effect1_foregroundBlur_1718_33094"/>
</filter>
<filter id="filter5_f_1718_33094" x="39.3923" y="30.6202" width="18.1772" height="14.8354" filterUnits="userSpaceOnUse" color-interpolation-filters="sRGB">
<feFlood flood-opacity="0" result="BackgroundImageFix"/>
<feBlend mode="normal" in="SourceGraphic" in2="BackgroundImageFix" result="shape"/>
<feGaussianBlur stdDeviation="2" result="effect1_foregroundBlur_1718_33094"/>
</filter>
<radialGradient id="paint0_radial_1718_33094" cx="0" cy="0" r="1" gradientUnits="userSpaceOnUse" gradientTransform="translate(43.7212 22.0301) rotate(90.6693) scale(19.1132 21.8107)">
<stop stop-color="white"/>
<stop offset="1" stop-color="#99CEFF"/>
</radialGradient>
<linearGradient id="paint1_linear_1718_33094" x1="49.0229" y1="41.1519" x2="49.0229" y2="49.0506" gradientUnits="userSpaceOnUse">
<stop stop-color="#E2BC38"/>
<stop offset="1" stop-color="#FFE244"/>
</linearGradient>
<radialGradient id="paint2_radial_1718_33094" cx="0" cy="0" r="1" gradientUnits="userSpaceOnUse" gradientTransform="translate(43.7212 22.0301) rotate(90.6693) scale(19.1132 21.8107)">
<stop stop-color="white"/>
<stop offset="1" stop-color="#99CEFF"/>
</radialGradient>
<radialGradient id="paint3_radial_1718_33094" cx="0" cy="0" r="1" gradientUnits="userSpaceOnUse" gradientTransform="translate(50.2109 40.5118) rotate(-90) scale(3.2718 16.9024)">
<stop stop-color="#FFDE41"/>
<stop offset="1" stop-color="#FFD200" stop-opacity="0"/>
</radialGradient>
<linearGradient id="paint4_linear_1718_33094" x1="49.5728" y1="41.2868" x2="49.5728" y2="40.171" gradientUnits="userSpaceOnUse">
<stop stop-color="#FFDE41"/>
<stop offset="1" stop-color="#FFD200" stop-opacity="0"/>
</linearGradient>
<linearGradient id="paint5_linear_1718_33094" x1="48.7636" y1="41.3379" x2="48.7636" y2="39.7965" gradientUnits="userSpaceOnUse">
<stop stop-color="#FFDE41"/>
<stop offset="1" stop-color="#FFD200" stop-opacity="0"/>
</linearGradient>
</defs>
</svg>
