<svg width="112" height="100" viewBox="0 0 112 100" fill="none" xmlns="http://www.w3.org/2000/svg">
<g filter="url(#filter0_bdi_1718_33064)">
<path fill-rule="evenodd" clip-rule="evenodd" d="M42.0822 51.0661C42.0093 51.0677 41.9363 51.0685 41.863 51.0685C36.4158 51.0685 32 46.6527 32 41.2055C32 37.5088 34.0337 34.2872 37.0433 32.5983C37.0418 32.5086 37.0411 32.4188 37.0411 32.3288C37.0411 23.3106 44.3517 16 53.3699 16C61.1488 16 67.6572 21.4395 69.299 28.7223C75.2512 28.9723 80 33.8768 80 39.8904C80 46.0639 74.9954 51.0685 68.8219 51.0685C68.7487 51.0685 68.6756 51.0678 68.6027 51.0664V51.0685H42.0822V51.0661Z" fill="url(#paint0_radial_1718_33064)" fill-opacity="0.77"/>
</g>
<g style="mix-blend-mode:soft-light" filter="url(#filter1_di_1718_33064)">
<path d="M51.726 41.2054C51.726 46.6526 47.3102 51.0684 41.863 51.0684C36.4158 51.0684 32 46.6526 32 41.2054C32 35.7582 36.4158 31.3424 41.863 31.3424C47.3102 31.3424 51.726 35.7582 51.726 41.2054Z" fill="#848484"/>
</g>
<path fill-rule="evenodd" clip-rule="evenodd" d="M59.1646 40.548C59.4369 40.548 59.6577 40.7688 59.6577 41.0411L59.6577 60.8767C59.6577 61.1491 59.4369 61.3699 59.1646 61.3699C58.8922 61.3699 58.6714 61.1491 58.6714 60.8767L58.6714 41.0411C58.6714 40.7688 58.8922 40.548 59.1646 40.548Z" fill="white"/>
<path fill-rule="evenodd" clip-rule="evenodd" d="M61.6332 42.1556C61.8347 42.3388 61.8496 42.6507 61.6664 42.8522L59.1267 45.6459L56.35 42.8692C56.1574 42.6766 56.1574 42.3644 56.35 42.1718C56.5426 41.9792 56.8548 41.9792 57.0474 42.1718L59.0927 44.217L60.9366 42.1888C61.1198 41.9872 61.4317 41.9724 61.6332 42.1556Z" fill="white"/>
<path fill-rule="evenodd" clip-rule="evenodd" d="M56.3671 60.8581C56.1655 60.6749 56.1507 60.363 56.3339 60.1614L58.8736 57.3678L61.6502 60.1445C61.8428 60.3371 61.8428 60.6493 61.6502 60.8419C61.4576 61.0345 61.1454 61.0345 60.9528 60.8419L58.9076 58.7966L57.0637 60.8249C56.8805 61.0264 56.5686 61.0413 56.3671 60.8581Z" fill="white"/>
<path fill-rule="evenodd" clip-rule="evenodd" d="M57.6652 45.8979C57.8578 45.7053 58.17 45.7053 58.3626 45.8979L59.1098 46.645L59.857 45.8979C60.0496 45.7053 60.3618 45.7053 60.5544 45.8979C60.747 46.0904 60.747 46.4027 60.5544 46.5953L59.1098 48.0399L57.6652 46.5953C57.4726 46.4027 57.4726 46.0904 57.6652 45.8979Z" fill="white"/>
<path fill-rule="evenodd" clip-rule="evenodd" d="M60.3351 57.3351C60.1425 57.5276 59.8302 57.5276 59.6376 57.3351L58.8905 56.5879L58.1433 57.3351C57.9507 57.5276 57.6384 57.5276 57.4459 57.3351C57.2533 57.1425 57.2533 56.8302 57.4459 56.6376L58.8905 55.193L60.3351 56.6376C60.5276 56.8302 60.5276 57.1425 60.3351 57.3351Z" fill="white"/>
<path fill-rule="evenodd" clip-rule="evenodd" d="M69.4111 51.1233C69.4111 51.3957 69.1903 51.6165 68.918 51.6165L49.0824 51.6165C48.81 51.6165 48.5892 51.3957 48.5892 51.1233C48.5892 50.8509 48.81 50.6302 49.0824 50.6302L68.918 50.6302C69.1903 50.6302 69.4111 50.8509 69.4111 51.1233Z" fill="white"/>
<path fill-rule="evenodd" clip-rule="evenodd" d="M67.8034 53.592C67.6202 53.7936 67.3083 53.8084 67.1068 53.6252L64.3131 51.0855L67.0898 48.3089C67.2824 48.1163 67.5946 48.1163 67.7872 48.3089C67.9798 48.5015 67.9798 48.8137 67.7872 49.0063L65.7419 51.0515L67.7702 52.8954C67.9717 53.0786 67.9866 53.3905 67.8034 53.592Z" fill="white"/>
<path fill-rule="evenodd" clip-rule="evenodd" d="M49.1009 48.3258C49.2841 48.1243 49.596 48.1094 49.7975 48.2926L52.5912 50.8323L49.8145 53.609C49.6219 53.8016 49.3097 53.8016 49.1171 53.609C48.9245 53.4164 48.9245 53.1041 49.1171 52.9116L51.1623 50.8663L49.1341 49.0224C48.9326 48.8392 48.9177 48.5273 49.1009 48.3258Z" fill="white"/>
<path fill-rule="evenodd" clip-rule="evenodd" d="M64.0611 49.6239C64.2537 49.8165 64.2537 50.1288 64.0611 50.3214L63.3139 51.0685L64.0611 51.8157C64.2537 52.0083 64.2537 52.3205 64.0611 52.5131C63.8685 52.7057 63.5563 52.7057 63.3637 52.5131L61.9191 51.0685L63.3637 49.6239C63.5563 49.4313 63.8685 49.4313 64.0611 49.6239Z" fill="white"/>
<path fill-rule="evenodd" clip-rule="evenodd" d="M52.6239 52.2939C52.4313 52.1013 52.4313 51.7891 52.6239 51.5965L53.3711 50.8493L52.6239 50.1021C52.4313 49.9095 52.4313 49.5973 52.6239 49.4047C52.8165 49.2121 53.1288 49.2121 53.3214 49.4047L54.766 50.8493L53.3214 52.2939C53.1288 52.4865 52.8165 52.4865 52.6239 52.2939Z" fill="white"/>
<path fill-rule="evenodd" clip-rule="evenodd" d="M66.4721 43.5268C66.6647 43.7194 66.6647 44.0316 66.4721 44.2242L52.4462 58.2501C52.2536 58.4427 51.9414 58.4427 51.7488 58.2501C51.5562 58.0575 51.5562 57.7453 51.7488 57.5527L65.7747 43.5268C65.9673 43.3342 66.2795 43.3342 66.4721 43.5268Z" fill="white"/>
<path fill-rule="evenodd" clip-rule="evenodd" d="M67.0214 46.6284C67.0343 46.9005 66.8243 47.1315 66.5523 47.1445L62.781 47.3241L62.781 43.3973C62.781 43.1249 63.0018 42.9041 63.2742 42.9041C63.5465 42.9041 63.7673 43.1249 63.7673 43.3973L63.7673 46.2897L66.5053 46.1593C66.7774 46.1463 67.0084 46.3564 67.0214 46.6284Z" fill="white"/>
<path fill-rule="evenodd" clip-rule="evenodd" d="M50.1021 55.9469C50.0892 55.6748 50.2992 55.4438 50.5713 55.4308L54.3425 55.2513L54.3425 59.1781C54.3425 59.4504 54.1217 59.6712 53.8494 59.6712C53.577 59.6712 53.3562 59.4504 53.3562 59.1781L53.3562 56.2856L50.6182 56.416C50.3461 56.429 50.1151 56.2189 50.1021 55.9469Z" fill="white"/>
<path fill-rule="evenodd" clip-rule="evenodd" d="M61.7397 46.1918C62.0121 46.1918 62.2329 46.4126 62.2329 46.685V47.7416L63.2896 47.7416C63.5619 47.7416 63.7827 47.9624 63.7827 48.2348C63.7827 48.5072 63.5619 48.7279 63.2896 48.7279H61.2466L61.2466 46.685C61.2466 46.4126 61.4674 46.1918 61.7397 46.1918Z" fill="white"/>
<path fill-rule="evenodd" clip-rule="evenodd" d="M55.6028 56.3836C55.3304 56.3836 55.1096 56.1628 55.1096 55.8905L55.1096 54.8338L54.053 54.8338C53.7806 54.8338 53.5598 54.613 53.5598 54.3406C53.5598 54.0683 53.7806 53.8475 54.053 53.8475L56.0959 53.8475L56.0959 55.8905C56.0959 56.1628 55.8751 56.3836 55.6028 56.3836Z" fill="white"/>
<path fill-rule="evenodd" clip-rule="evenodd" d="M66.4322 58.431C66.2396 58.6235 65.9274 58.6235 65.7348 58.431L51.7089 44.4051C51.5163 44.2125 51.5163 43.9002 51.7089 43.7076C51.9015 43.515 52.2137 43.515 52.4063 43.7076L66.4322 57.7335C66.6248 57.9261 66.6248 58.2384 66.4322 58.431Z" fill="white"/>
<path fill-rule="evenodd" clip-rule="evenodd" d="M63.3307 58.9801C63.0586 58.9931 62.8276 58.783 62.8146 58.511L62.6351 54.7398L66.5619 54.7398C66.8342 54.7398 67.055 54.9605 67.055 55.2329C67.055 55.5053 66.8342 55.7261 66.5619 55.7261L63.6694 55.7261L63.7998 58.4641C63.8128 58.7361 63.6027 58.9672 63.3307 58.9801Z" fill="white"/>
<path fill-rule="evenodd" clip-rule="evenodd" d="M54.0121 42.061C54.2841 42.0481 54.5152 42.2581 54.5281 42.5301L54.7077 46.3014L50.7809 46.3014C50.5086 46.3014 50.2878 46.0806 50.2878 45.8082C50.2878 45.5359 50.5086 45.3151 50.7809 45.3151L53.6733 45.3151L53.543 42.5771C53.53 42.305 53.74 42.074 54.0121 42.061Z" fill="white"/>
<path fill-rule="evenodd" clip-rule="evenodd" d="M63.7672 53.6986C63.7672 53.971 63.5464 54.1918 63.274 54.1918H62.2173L62.2173 55.2484C62.2173 55.5208 61.9966 55.7416 61.7242 55.7416C61.4518 55.7416 61.231 55.5208 61.231 55.2484V53.2055L63.274 53.2055C63.5464 53.2055 63.7672 53.4262 63.7672 53.6986Z" fill="white"/>
<path fill-rule="evenodd" clip-rule="evenodd" d="M53.5754 47.5616C53.5754 47.2893 53.7962 47.0685 54.0685 47.0685L55.1252 47.0685L55.1252 46.0118C55.1252 45.7395 55.346 45.5187 55.6183 45.5187C55.8907 45.5187 56.1115 45.7395 56.1115 46.0118L56.1115 48.0548L54.0685 48.0548C53.7962 48.0548 53.5754 47.834 53.5754 47.5616Z" fill="white"/>
<defs>
<filter id="filter0_bdi_1718_33064" x="0" y="0" width="112" height="99.0685" filterUnits="userSpaceOnUse" color-interpolation-filters="sRGB">
<feFlood flood-opacity="0" result="BackgroundImageFix"/>
<feGaussianBlur in="BackgroundImage" stdDeviation="7.5"/>
<feComposite in2="SourceAlpha" operator="in" result="effect1_backgroundBlur_1718_33064"/>
<feColorMatrix in="SourceAlpha" type="matrix" values="0 0 0 0 0 0 0 0 0 0 0 0 0 0 0 0 0 0 127 0" result="hardAlpha"/>
<feOffset dy="16"/>
<feGaussianBlur stdDeviation="16"/>
<feColorMatrix type="matrix" values="0 0 0 0 0 0 0 0 0 0.2015 0 0 0 0 0.3875 0 0 0 0.2 0"/>
<feBlend mode="normal" in2="effect1_backgroundBlur_1718_33064" result="effect2_dropShadow_1718_33064"/>
<feBlend mode="normal" in="SourceGraphic" in2="effect2_dropShadow_1718_33064" result="shape"/>
<feColorMatrix in="SourceAlpha" type="matrix" values="0 0 0 0 0 0 0 0 0 0 0 0 0 0 0 0 0 0 127 0" result="hardAlpha"/>
<feOffset dx="3" dy="3"/>
<feGaussianBlur stdDeviation="2.5"/>
<feComposite in2="hardAlpha" operator="arithmetic" k2="-1" k3="1"/>
<feColorMatrix type="matrix" values="0 0 0 0 1 0 0 0 0 1 0 0 0 0 1 0 0 0 1 0"/>
<feBlend mode="normal" in2="shape" result="effect3_innerShadow_1718_33064"/>
</filter>
<filter id="filter1_di_1718_33064" x="24" y="15.3424" width="31.7261" height="37.7261" filterUnits="userSpaceOnUse" color-interpolation-filters="sRGB">
<feFlood flood-opacity="0" result="BackgroundImageFix"/>
<feColorMatrix in="SourceAlpha" type="matrix" values="0 0 0 0 0 0 0 0 0 0 0 0 0 0 0 0 0 0 127 0" result="hardAlpha"/>
<feOffset dx="-2" dy="-10"/>
<feGaussianBlur stdDeviation="3"/>
<feColorMatrix type="matrix" values="0 0 0 0 0 0 0 0 0 0 0 0 0 0 0 0 0 0 0.22 0"/>
<feBlend mode="normal" in2="BackgroundImageFix" result="effect1_dropShadow_1718_33064"/>
<feBlend mode="normal" in="SourceGraphic" in2="effect1_dropShadow_1718_33064" result="shape"/>
<feColorMatrix in="SourceAlpha" type="matrix" values="0 0 0 0 0 0 0 0 0 0 0 0 0 0 0 0 0 0 127 0" result="hardAlpha"/>
<feOffset dx="4" dy="2"/>
<feGaussianBlur stdDeviation="2.5"/>
<feComposite in2="hardAlpha" operator="arithmetic" k2="-1" k3="1"/>
<feColorMatrix type="matrix" values="0 0 0 0 1 0 0 0 0 1 0 0 0 0 1 0 0 0 0.74 0"/>
<feBlend mode="normal" in2="shape" result="effect2_innerShadow_1718_33064"/>
</filter>
<radialGradient id="paint0_radial_1718_33064" cx="0" cy="0" r="1" gradientUnits="userSpaceOnUse" gradientTransform="translate(48.9128 23.4771) rotate(90.6693) scale(27.5789 31.4712)">
<stop stop-color="white"/>
<stop offset="1" stop-color="#99CEFF"/>
</radialGradient>
</defs>
</svg>
