<svg width="28" height="46" viewBox="0 3 48 46" fill="none" xmlns="http://www.w3.org/2000/svg">
<g filter="url(#filter0_bi_1718_33064)">
<path fill-rule="evenodd" clip-rule="evenodd" d="M10.0822 35.0661C10.0093 35.0677 9.93626 35.0685 9.86301 35.0685C4.41582 35.0685 0 30.6527 0 25.2055C0 21.5088 2.03369 18.2872 5.04328 16.5983C5.04182 16.5086 5.0411 16.4188 5.0411 16.3288C5.0411 7.31064 12.3517 0 21.3699 0C29.1488 0 35.6572 5.43949 37.299 12.7223C43.2512 12.9723 48 17.8768 48 23.8904C48 30.0639 42.9954 35.0685 36.8219 35.0685C36.7487 35.0685 36.6756 35.0678 36.6027 35.0664V35.0685H10.0822V35.0661Z" fill="url(#paint0_radial_1718_33064)" fill-opacity="0.77"/>
</g>
<path fill-rule="evenodd" clip-rule="evenodd" d="M27.1646 24.548C27.4369 24.548 27.6577 24.7688 27.6577 25.0411L27.6577 44.8767C27.6577 45.1491 27.4369 45.3699 27.1646 45.3699C26.8922 45.3699 26.6714 45.1491 26.6714 44.8767L26.6714 25.0411C26.6714 24.7688 26.8922 24.548 27.1646 24.548Z" fill="white"/>
<path fill-rule="evenodd" clip-rule="evenodd" d="M29.6332 26.1556C29.8347 26.3388 29.8496 26.6507 29.6664 26.8522L27.1267 29.6459L24.35 26.8692C24.1574 26.6766 24.1574 26.3644 24.35 26.1718C24.5426 25.9792 24.8548 25.9792 25.0474 26.1718L27.0927 28.217L28.9366 26.1888C29.1198 25.9872 29.4317 25.9724 29.6332 26.1556Z" fill="white"/>
<path fill-rule="evenodd" clip-rule="evenodd" d="M24.3671 44.8581C24.1655 44.6749 24.1507 44.363 24.3339 44.1614L26.8736 41.3678L29.6502 44.1445C29.8428 44.3371 29.8428 44.6493 29.6502 44.8419C29.4576 45.0345 29.1454 45.0345 28.9528 44.8419L26.9076 42.7966L25.0637 44.8249C24.8805 45.0264 24.5686 45.0413 24.3671 44.8581Z" fill="white"/>
<path fill-rule="evenodd" clip-rule="evenodd" d="M25.6652 29.8979C25.8578 29.7053 26.17 29.7053 26.3626 29.8979L27.1098 30.645L27.857 29.8979C28.0496 29.7053 28.3618 29.7053 28.5544 29.8979C28.747 30.0904 28.747 30.4027 28.5544 30.5953L27.1098 32.0399L25.6652 30.5953C25.4726 30.4027 25.4726 30.0904 25.6652 29.8979Z" fill="white"/>
<path fill-rule="evenodd" clip-rule="evenodd" d="M28.3351 41.3351C28.1425 41.5276 27.8302 41.5276 27.6376 41.3351L26.8905 40.5879L26.1433 41.3351C25.9507 41.5276 25.6384 41.5276 25.4459 41.3351C25.2533 41.1425 25.2533 40.8302 25.4459 40.6376L26.8905 39.193L28.3351 40.6376C28.5276 40.8302 28.5276 41.1425 28.3351 41.3351Z" fill="white"/>
<path fill-rule="evenodd" clip-rule="evenodd" d="M37.4111 35.1233C37.4111 35.3957 37.1903 35.6165 36.918 35.6165L17.0824 35.6165C16.81 35.6165 16.5892 35.3957 16.5892 35.1233C16.5892 34.8509 16.81 34.6302 17.0824 34.6302L36.918 34.6302C37.1903 34.6302 37.4111 34.8509 37.4111 35.1233Z" fill="white"/>
<path fill-rule="evenodd" clip-rule="evenodd" d="M35.8034 37.592C35.6202 37.7936 35.3083 37.8084 35.1068 37.6252L32.3131 35.0855L35.0898 32.3089C35.2824 32.1163 35.5946 32.1163 35.7872 32.3089C35.9798 32.5015 35.9798 32.8137 35.7872 33.0063L33.7419 35.0515L35.7702 36.8954C35.9717 37.0786 35.9866 37.3905 35.8034 37.592Z" fill="white"/>
<path fill-rule="evenodd" clip-rule="evenodd" d="M17.1009 32.3258C17.2841 32.1243 17.596 32.1094 17.7975 32.2926L20.5912 34.8323L17.8145 37.609C17.6219 37.8016 17.3097 37.8016 17.1171 37.609C16.9245 37.4164 16.9245 37.1041 17.1171 36.9116L19.1623 34.8663L17.1341 33.0224C16.9326 32.8392 16.9177 32.5273 17.1009 32.3258Z" fill="white"/>
<path fill-rule="evenodd" clip-rule="evenodd" d="M32.0611 33.6239C32.2537 33.8165 32.2537 34.1288 32.0611 34.3214L31.3139 35.0685L32.0611 35.8157C32.2537 36.0083 32.2537 36.3205 32.0611 36.5131C31.8685 36.7057 31.5563 36.7057 31.3637 36.5131L29.9191 35.0685L31.3637 33.6239C31.5563 33.4313 31.8685 33.4313 32.0611 33.6239Z" fill="white"/>
<path fill-rule="evenodd" clip-rule="evenodd" d="M20.6239 36.2939C20.4313 36.1013 20.4313 35.7891 20.6239 35.5965L21.3711 34.8493L20.6239 34.1021C20.4313 33.9095 20.4313 33.5973 20.6239 33.4047C20.8165 33.2121 21.1288 33.2121 21.3214 33.4047L22.766 34.8493L21.3214 36.2939C21.1288 36.4865 20.8165 36.4865 20.6239 36.2939Z" fill="white"/>
<path fill-rule="evenodd" clip-rule="evenodd" d="M34.4721 27.5268C34.6647 27.7194 34.6647 28.0316 34.4721 28.2242L20.4462 42.2501C20.2536 42.4427 19.9414 42.4427 19.7488 42.2501C19.5562 42.0575 19.5562 41.7453 19.7488 41.5527L33.7747 27.5268C33.9673 27.3342 34.2795 27.3342 34.4721 27.5268Z" fill="white"/>
<path fill-rule="evenodd" clip-rule="evenodd" d="M35.0214 30.6284C35.0343 30.9005 34.8243 31.1315 34.5523 31.1445L30.781 31.3241L30.781 27.3973C30.781 27.1249 31.0018 26.9041 31.2742 26.9041C31.5465 26.9041 31.7673 27.1249 31.7673 27.3973L31.7673 30.2897L34.5053 30.1593C34.7774 30.1463 35.0084 30.3564 35.0214 30.6284Z" fill="white"/>
<path fill-rule="evenodd" clip-rule="evenodd" d="M18.1021 39.9469C18.0892 39.6748 18.2992 39.4438 18.5713 39.4308L22.3425 39.2513L22.3425 43.1781C22.3425 43.4504 22.1217 43.6712 21.8494 43.6712C21.577 43.6712 21.3562 43.4504 21.3562 43.1781L21.3562 40.2856L18.6182 40.416C18.3461 40.429 18.1151 40.2189 18.1021 39.9469Z" fill="white"/>
<path fill-rule="evenodd" clip-rule="evenodd" d="M29.7397 30.1918C30.0121 30.1918 30.2329 30.4126 30.2329 30.685V31.7416L31.2896 31.7416C31.5619 31.7416 31.7827 31.9624 31.7827 32.2348C31.7827 32.5072 31.5619 32.7279 31.2896 32.7279H29.2466L29.2466 30.685C29.2466 30.4126 29.4674 30.1918 29.7397 30.1918Z" fill="white"/>
<path fill-rule="evenodd" clip-rule="evenodd" d="M23.6028 40.3836C23.3304 40.3836 23.1096 40.1628 23.1096 39.8905L23.1096 38.8338L22.053 38.8338C21.7806 38.8338 21.5598 38.613 21.5598 38.3406C21.5598 38.0683 21.7806 37.8475 22.053 37.8475L24.0959 37.8475L24.0959 39.8905C24.0959 40.1628 23.8751 40.3836 23.6028 40.3836Z" fill="white"/>
<path fill-rule="evenodd" clip-rule="evenodd" d="M34.4322 42.431C34.2396 42.6235 33.9274 42.6235 33.7348 42.431L19.7089 28.4051C19.5163 28.2125 19.5163 27.9002 19.7089 27.7076C19.9015 27.515 20.2137 27.515 20.4063 27.7076L34.4322 41.7335C34.6248 41.9261 34.6248 42.2384 34.4322 42.431Z" fill="white"/>
<path fill-rule="evenodd" clip-rule="evenodd" d="M31.3307 42.9801C31.0586 42.9931 30.8276 42.783 30.8146 42.511L30.6351 38.7398L34.5619 38.7398C34.8342 38.7398 35.055 38.9605 35.055 39.2329C35.055 39.5053 34.8342 39.7261 34.5619 39.7261L31.6694 39.7261L31.7998 42.4641C31.8128 42.7361 31.6027 42.9672 31.3307 42.9801Z" fill="white"/>
<path fill-rule="evenodd" clip-rule="evenodd" d="M22.0121 26.061C22.2841 26.0481 22.5152 26.2581 22.5281 26.5301L22.7077 30.3014L18.7809 30.3014C18.5086 30.3014 18.2878 30.0806 18.2878 29.8082C18.2878 29.5359 18.5086 29.3151 18.7809 29.3151L21.6733 29.3151L21.543 26.5771C21.53 26.305 21.74 26.074 22.0121 26.061Z" fill="white"/>
<path fill-rule="evenodd" clip-rule="evenodd" d="M31.7672 37.6986C31.7672 37.971 31.5464 38.1918 31.274 38.1918H30.2173L30.2173 39.2484C30.2173 39.5208 29.9966 39.7416 29.7242 39.7416C29.4518 39.7416 29.231 39.5208 29.231 39.2484V37.2055L31.274 37.2055C31.5464 37.2055 31.7672 37.4262 31.7672 37.6986Z" fill="white"/>
<path fill-rule="evenodd" clip-rule="evenodd" d="M21.5754 31.5616C21.5754 31.2893 21.7962 31.0685 22.0685 31.0685L23.1252 31.0685L23.1252 30.0118C23.1252 29.7395 23.346 29.5187 23.6183 29.5187C23.8907 29.5187 24.1115 29.7395 24.1115 30.0118L24.1115 32.0548L22.0685 32.0548C21.7962 32.0548 21.5754 31.834 21.5754 31.5616Z" fill="white"/>
<defs>
<filter id="filter0_bi_1718_33064" x="-15" y="-15" width="78" height="65.0685" filterUnits="userSpaceOnUse" color-interpolation-filters="sRGB">
<feFlood flood-opacity="0" result="BackgroundImageFix"/>
<feGaussianBlur in="BackgroundImage" stdDeviation="7.5"/>
<feComposite in2="SourceAlpha" operator="in" result="effect1_backgroundBlur_1718_33064"/>
<feBlend mode="normal" in="SourceGraphic" in2="effect1_backgroundBlur_1718_33064" result="shape"/>
<feColorMatrix in="SourceAlpha" type="matrix" values="0 0 0 0 0 0 0 0 0 0 0 0 0 0 0 0 0 0 127 0" result="hardAlpha"/>
<feOffset dx="3" dy="3"/>
<feGaussianBlur stdDeviation="2.5"/>
<feComposite in2="hardAlpha" operator="arithmetic" k2="-1" k3="1"/>
<feColorMatrix type="matrix" values="0 0 0 0 1 0 0 0 0 1 0 0 0 0 1 0 0 0 1 0"/>
<feBlend mode="normal" in2="shape" result="effect2_innerShadow_1718_33064"/>
</filter>
<radialGradient id="paint0_radial_1718_33064" cx="0" cy="0" r="1" gradientUnits="userSpaceOnUse" gradientTransform="translate(16.9128 7.47714) rotate(90.6693) scale(27.5789 31.4712)">
<stop stop-color="white"/>
<stop offset="1" stop-color="#99CEFF"/>
</radialGradient>
</defs>
</svg>
