<svg width="130" height="130" viewBox="20 15 130 130" fill="none" xmlns="http://www.w3.org/2000/svg">
<g filter="url(#filter0_i_1718_33053)">
<path d="M91.9638 70.1086C91.9638 78.8652 84.8652 85.9638 76.1086 85.9638C67.352 85.9638 60.2534 78.8652 60.2534 70.1086C60.2534 61.352 67.352 54.2534 76.1086 54.2534C84.8652 54.2534 91.9638 61.352 91.9638 70.1086Z" fill="#FFAB0B"/>
</g>
<path fill-rule="evenodd" clip-rule="evenodd" d="M75.8668 46.0004C75.9112 46.0001 75.9556 46 76 46C76.0444 46 76.0888 46.0001 76.1332 46.0004C77.3327 46.0069 78.2998 46.9846 78.2933 48.1841C78.2867 49.3836 77.3091 50.3507 76.1095 50.3442C76.073 50.344 76.0365 50.3439 76 50.3439C75.9635 50.3439 75.9269 50.344 75.8905 50.3442C74.6909 50.3507 73.7133 49.3836 73.7067 48.1841C73.7002 46.9846 74.6673 46.0069 75.8668 46.0004ZM62.1951 52.9528C63.0386 53.8056 63.031 55.1808 62.1782 56.0243C62.1266 56.0753 62.0753 56.1266 62.0243 56.1782C61.1808 57.031 59.8056 57.0386 58.9528 56.1951C58.0999 55.3515 58.0924 53.9764 58.9359 53.1235C58.9981 53.0606 59.0606 52.9981 59.1235 52.9359C59.9764 52.0924 61.3515 52.0999 62.1951 52.9528ZM89.8049 52.9528C90.6485 52.0999 92.0236 52.0924 92.8765 52.9359C92.9394 52.9981 93.0019 53.0606 93.0641 53.1235C93.9076 53.9764 93.9001 55.3515 93.0472 56.1951C92.1944 57.0386 90.8192 57.031 89.9757 56.1782C89.9247 56.1266 89.8734 56.0753 89.8218 56.0243C88.969 55.1808 88.9614 53.8056 89.8049 52.9528ZM97.8159 67.7067C99.0154 67.7002 99.9931 68.6673 99.9996 69.8668C99.9999 69.9112 100 69.9556 100 70C100 70.0334 99.9999 70.0668 99.9998 70.1002C99.9998 70.1112 99.9997 70.1222 99.9996 70.1332C99.9931 71.3327 99.0154 72.2998 97.8159 72.2933C96.6164 72.2867 95.6493 71.3091 95.6558 70.1095C95.656 70.073 95.6561 70.0365 95.6561 70C95.6561 69.9635 95.656 69.9269 95.6558 69.8905C95.6493 68.6909 96.6164 67.7133 97.8159 67.7067ZM54.1841 67.7067C55.3836 67.7133 56.3507 68.6909 56.3442 69.8905C56.344 69.927 56.3439 69.9635 56.3439 70C56.3439 70.0365 56.344 70.0731 56.3442 70.1095C56.3507 71.3091 55.3836 72.2867 54.1841 72.2933C52.9846 72.2998 52.0069 71.3327 52.0004 70.1332C52.0001 70.0888 52 70.0444 52 70C52 69.9556 52.0001 69.9112 52.0004 69.8668C52.0069 68.6673 52.9846 67.7002 54.1841 67.7067ZM58.9528 83.8049C59.8056 82.9614 61.1808 82.969 62.0243 83.8218C62.0753 83.8734 62.1266 83.9247 62.1782 83.9757C63.031 84.8192 63.0386 86.1944 62.1951 87.0472C61.3515 87.9001 59.9764 87.9076 59.1235 87.0641C59.0606 87.0019 58.9981 86.9394 58.9359 86.8765C58.0924 86.0236 58.0999 84.6485 58.9528 83.8049ZM93.0472 83.8049C93.9001 84.6485 93.9076 86.0236 93.0641 86.8765C93.0019 86.9394 92.9394 87.0019 92.8765 87.0641C92.0236 87.9076 90.6485 87.9001 89.8049 87.0472C88.9614 86.1944 88.969 84.8192 89.8218 83.9757C89.8734 83.9247 89.9247 83.8734 89.9757 83.8218C90.8192 82.969 92.1944 82.9614 93.0472 83.8049ZM73.7067 91.8159C73.7133 90.6164 74.6909 89.6493 75.8905 89.6558C75.9141 89.6559 75.9377 89.656 75.9614 89.6561C75.9743 89.6561 75.9871 89.6561 76 89.6561C76.0365 89.6561 76.0731 89.656 76.1095 89.6558C77.3091 89.6493 78.2867 90.6164 78.2933 91.8159C78.2998 93.0154 77.3327 93.9931 76.1332 93.9996C76.1012 93.9998 76.0691 93.9999 76.0371 94C76.0247 94 76.0124 94 76 94C75.9556 94 75.9112 93.9999 75.8668 93.9996C74.6673 93.9931 73.7002 93.0154 73.7067 91.8159Z" fill="#FFE200"/>
<g opacity="0.7" filter="url(#filter1_f_1718_33053)">
<ellipse cx="73.8281" cy="72.9322" rx="8.36199" ry="8.68778" fill="white"/>
<ellipse cx="81.9728" cy="65.3304" rx="10.8597" ry="11.2941" fill="white"/>
<ellipse cx="91.4208" cy="65.1131" rx="8.36199" ry="8.68778" fill="white"/>
<ellipse cx="64.5972" cy="75.5385" rx="9.77376" ry="10.2081" fill="white"/>
<ellipse cx="71.0045" cy="85.8553" rx="5.53846" ry="5.75566" fill="white"/>
</g>
<defs>
<filter id="filter0_i_1718_33053" x="50.2534" y="54.2534" width="41.7104" height="44.7104" filterUnits="userSpaceOnUse" color-interpolation-filters="sRGB">
<feFlood flood-opacity="0" result="BackgroundImageFix"/>
<feBlend mode="normal" in="SourceGraphic" in2="BackgroundImageFix" result="shape"/>
<feColorMatrix in="SourceAlpha" type="matrix" values="0 0 0 0 0 0 0 0 0 0 0 0 0 0 0 0 0 0 127 0" result="hardAlpha"/>
<feOffset dx="-10" dy="13"/>
<feGaussianBlur stdDeviation="12"/>
<feComposite in2="hardAlpha" operator="arithmetic" k2="-1" k3="1"/>
<feColorMatrix type="matrix" values="0 0 0 0 1 0 0 0 0 0.886275 0 0 0 0 0 0 0 0 0.9 0"/>
<feBlend mode="normal" in2="shape" result="effect1_innerShadow_1718_33053"/>
</filter>
<filter id="filter1_f_1718_33053" x="0.823486" y="0.0362549" width="152.959" height="145.575" filterUnits="userSpaceOnUse" color-interpolation-filters="sRGB">
<feFlood flood-opacity="0" result="BackgroundImageFix"/>
<feBlend mode="normal" in="SourceGraphic" in2="BackgroundImageFix" result="shape"/>
<feGaussianBlur stdDeviation="27" result="effect1_foregroundBlur_1718_33053"/>
</filter>
</defs>
</svg>
