<svg width="25" height="48" viewBox="0 6 48 48" fill="none" xmlns="http://www.w3.org/2000/svg">
<g filter="url(#filter0_i_1718_33053)">
<path d="M39.9638 24.1086C39.9638 32.8652 32.8652 39.9638 24.1086 39.9638C15.352 39.9638 8.25342 32.8652 8.25342 24.1086C8.25342 15.352 15.352 8.25342 24.1086 8.25342C32.8652 8.25342 39.9638 15.352 39.9638 24.1086Z" fill="#FFAB0B"/>
</g>
<path fill-rule="evenodd" clip-rule="evenodd" d="M23.8668 0.000362483C23.9112 0.000120966 23.9556 0 24 0C24.0444 0 24.0888 0.000120966 24.1332 0.000362483C25.3327 0.00689276 26.2998 0.984585 26.2933 2.1841C26.2867 3.38361 25.3091 4.35072 24.1095 4.34419C24.073 4.34399 24.0365 4.34389 24 4.34389C23.9635 4.34389 23.9269 4.34399 23.8905 4.34419C22.6909 4.35072 21.7133 3.38361 21.7067 2.1841C21.7002 0.984585 22.6673 0.00689276 23.8668 0.000362483ZM10.1951 6.95276C11.0386 7.80561 11.031 9.18079 10.1782 10.0243C10.1266 10.0753 10.0753 10.1266 10.0243 10.1782C9.18079 11.031 7.80561 11.0386 6.95276 10.1951C6.09992 9.35154 6.09236 7.97636 6.93588 7.12351C6.99808 7.06062 7.06062 6.99808 7.12351 6.93588C7.97636 6.09236 9.35154 6.09992 10.1951 6.95276ZM37.8049 6.95276C38.6485 6.09992 40.0236 6.09236 40.8765 6.93588C40.9394 6.99808 41.0019 7.06062 41.0641 7.12351C41.9076 7.97636 41.9001 9.35154 41.0472 10.1951C40.1944 11.0386 38.8192 11.031 37.9757 10.1782C37.9247 10.1266 37.8734 10.0753 37.8218 10.0243C36.969 9.18079 36.9614 7.80561 37.8049 6.95276ZM45.8159 21.7067C47.0154 21.7002 47.9931 22.6673 47.9996 23.8668C47.9999 23.9112 48 23.9556 48 24C48 24.0334 47.9999 24.0668 47.9998 24.1002C47.9998 24.1112 47.9997 24.1222 47.9996 24.1332C47.9931 25.3327 47.0154 26.2998 45.8159 26.2933C44.6164 26.2867 43.6493 25.3091 43.6558 24.1095C43.656 24.073 43.6561 24.0365 43.6561 24C43.6561 23.9635 43.656 23.9269 43.6558 23.8905C43.6493 22.6909 44.6164 21.7133 45.8159 21.7067ZM2.1841 21.7067C3.38361 21.7133 4.35072 22.6909 4.34419 23.8905C4.34399 23.927 4.34389 23.9635 4.34389 24C4.34389 24.0365 4.34399 24.0731 4.34419 24.1095C4.35072 25.3091 3.38361 26.2867 2.1841 26.2933C0.984585 26.2998 0.00689276 25.3327 0.000362483 24.1332C0.000120966 24.0888 0 24.0444 0 24C0 23.9556 0.000120966 23.9112 0.000362483 23.8668C0.00689276 22.6673 0.984585 21.7002 2.1841 21.7067ZM6.95276 37.8049C7.80561 36.9614 9.18079 36.969 10.0243 37.8218C10.0753 37.8734 10.1266 37.9247 10.1782 37.9757C11.031 38.8192 11.0386 40.1944 10.1951 41.0472C9.35154 41.9001 7.97636 41.9076 7.12351 41.0641C7.06062 41.0019 6.99808 40.9394 6.93588 40.8765C6.09236 40.0236 6.09992 38.6485 6.95276 37.8049ZM41.0472 37.8049C41.9001 38.6485 41.9076 40.0236 41.0641 40.8765C41.0019 40.9394 40.9394 41.0019 40.8765 41.0641C40.0236 41.9076 38.6485 41.9001 37.8049 41.0472C36.9614 40.1944 36.969 38.8192 37.8218 37.9757C37.8734 37.9247 37.9247 37.8734 37.9757 37.8218C38.8192 36.969 40.1944 36.9614 41.0472 37.8049ZM21.7067 45.8159C21.7133 44.6164 22.6909 43.6493 23.8905 43.6558C23.9141 43.6559 23.9377 43.656 23.9614 43.6561C23.9743 43.6561 23.9871 43.6561 24 43.6561C24.0365 43.6561 24.0731 43.656 24.1095 43.6558C25.3091 43.6493 26.2867 44.6164 26.2933 45.8159C26.2998 47.0154 25.3327 47.9931 24.1332 47.9996C24.1012 47.9998 24.0691 47.9999 24.0371 48C24.0247 48 24.0124 48 24 48C23.9556 48 23.9112 47.9999 23.8668 47.9996C22.6673 47.9931 21.7002 47.0154 21.7067 45.8159Z" fill="#FFE200"/>
<defs>
<filter id="filter0_i_1718_33053" x="-1.74658" y="8.25342" width="41.7104" height="44.7104" filterUnits="userSpaceOnUse" color-interpolation-filters="sRGB">
<feFlood flood-opacity="0" result="BackgroundImageFix"/>
<feBlend mode="normal" in="SourceGraphic" in2="BackgroundImageFix" result="shape"/>
<feColorMatrix in="SourceAlpha" type="matrix" values="0 0 0 0 0 0 0 0 0 0 0 0 0 0 0 0 0 0 127 0" result="hardAlpha"/>
<feOffset dx="-10" dy="13"/>
<feGaussianBlur stdDeviation="12"/>
<feComposite in2="hardAlpha" operator="arithmetic" k2="-1" k3="1"/>
<feColorMatrix type="matrix" values="0 0 0 0 1 0 0 0 0 0.886275 0 0 0 0 0 0 0 0 0.9 0"/>
<feBlend mode="normal" in2="shape" result="effect1_innerShadow_1718_33053"/>
</filter>
</defs>
</svg>
