<svg width="30" height="44" viewBox="0 6 48 44" fill="none" xmlns="http://www.w3.org/2000/svg">
<g filter="url(#filter0_i_1718_33024)">
<path d="M41.6604 19.7434C41.6604 27.0461 35.7404 32.966 28.4377 32.966C21.1351 32.966 15.2151 27.0461 15.2151 19.7434C15.2151 12.4407 21.1351 6.52075 28.4377 6.52075C35.7404 6.52075 41.6604 12.4407 41.6604 19.7434Z" fill="#FFAB0B"/>
</g>
<path fill-rule="evenodd" clip-rule="evenodd" d="M28.2381 0.000296942C28.2744 9.9067e-05 28.3108 0 28.3472 0C28.3836 0 28.4199 9.9067e-05 28.4563 0.000296942C29.2565 0.00465373 29.9018 0.656941 29.8974 1.45722C29.8931 2.2575 29.2408 2.90272 28.4405 2.89837C28.4094 2.8982 28.3783 2.89811 28.3472 2.89811C28.316 2.89811 28.2849 2.8982 28.2538 2.89837C27.4536 2.90272 26.8013 2.2575 26.7969 1.45722C26.7926 0.656941 27.4378 0.00465373 28.2381 0.000296942ZM16.5768 5.69083C17.1396 6.25982 17.1345 7.1773 16.5655 7.74007C16.5216 7.78354 16.4779 7.82725 16.4344 7.8712C15.8716 8.4402 14.9542 8.44524 14.3852 7.88247C13.8162 7.31969 13.8111 6.40222 14.3739 5.83322C14.4248 5.78172 14.4761 5.7305 14.5276 5.67956C15.0966 5.11679 16.014 5.12183 16.5768 5.69083ZM40.1175 5.69083C40.6803 5.12183 41.5978 5.11679 42.1668 5.67956C42.2183 5.7305 42.2695 5.78172 42.3204 5.83322C42.8832 6.40222 42.8782 7.31969 42.3092 7.88247C41.7402 8.44524 40.8227 8.4402 40.2599 7.8712C40.2165 7.82725 40.1727 7.78354 40.1288 7.74007C39.5598 7.1773 39.5548 6.25982 40.1175 5.69083ZM46.5428 18.1026C47.3431 18.0982 47.9953 18.7435 47.9997 19.5437C47.9999 19.5801 48 19.6164 48 19.6528C48 19.6892 47.9999 19.7256 47.9997 19.7619C47.9953 20.5622 47.3431 21.2074 46.5428 21.2031C45.7425 21.1987 45.0973 20.5464 45.1016 19.7462C45.1018 19.7151 45.1019 19.684 45.1019 19.6528C45.1019 19.6217 45.1018 19.5906 45.1016 19.5595C45.0973 18.7592 45.7425 18.1069 46.5428 18.1026ZM10.1516 18.1026C10.9518 18.1069 11.5971 18.7592 11.5927 19.5595C11.5925 19.5906 11.5924 19.6217 11.5924 19.6528C11.5924 19.684 11.5925 19.7151 11.5927 19.7462C11.5971 20.5464 10.9518 21.1987 10.1516 21.2031C9.35128 21.2074 8.69899 20.5622 8.69463 19.7619C8.69444 19.7256 8.69434 19.6892 8.69434 19.6528C8.69434 19.6164 8.69444 19.5801 8.69463 19.5437C8.69899 18.7435 9.35128 18.0982 10.1516 18.1026ZM14.3852 31.4232C14.9542 30.8604 15.8716 30.8655 16.4344 31.4345C16.4779 31.4784 16.5216 31.5221 16.5655 31.5656C17.1345 32.1284 17.1396 33.0458 16.5768 33.6148C16.014 34.1838 15.0966 34.1889 14.5276 33.6261C14.4761 33.5752 14.4248 33.5239 14.3739 33.4724C13.8111 32.9034 13.8162 31.986 14.3852 31.4232ZM42.3092 31.4232C42.8782 31.986 42.8832 32.9034 42.3204 33.4724C42.2695 33.5239 42.2183 33.5752 42.1668 33.6261C41.5978 34.1889 40.6803 34.1838 40.1175 33.6148C39.5548 33.0458 39.5598 32.1284 40.1288 31.5656C40.1727 31.5221 40.2165 31.4784 40.2599 31.4345C40.8227 30.8655 41.7402 30.8604 42.3092 31.4232ZM26.7969 37.8484C26.8013 37.0482 27.4536 36.4029 28.2538 36.4073C28.2849 36.4075 28.316 36.4075 28.3472 36.4075C28.3783 36.4075 28.4094 36.4075 28.4405 36.4073C29.2408 36.4029 29.8931 37.0482 29.8974 37.8484C29.9018 38.6487 29.2565 39.301 28.4563 39.3054C28.4387 39.3055 28.4212 39.3055 28.4036 39.3056C28.3848 39.3056 28.366 39.3057 28.3472 39.3057C28.3108 39.3057 28.2744 39.3056 28.2381 39.3054C27.4378 39.301 26.7926 38.6487 26.7969 37.8484Z" fill="#FFE200"/>
<path fill-rule="evenodd" clip-rule="evenodd" d="M8.33208 43.1075C8.27186 43.1088 8.21148 43.1094 8.15094 43.1094C3.6493 43.1094 0 39.4601 0 34.9585C0 31.9035 1.68067 29.2411 4.16784 27.8454C4.16664 27.7713 4.16604 27.697 4.16604 27.6226C4.16604 20.1699 10.2077 14.1283 17.6604 14.1283C24.089 14.1283 29.4676 18.6236 30.8245 24.6422C35.7434 24.8488 39.6679 28.9019 39.6679 33.8717C39.6679 38.9736 35.532 43.1094 30.4302 43.1094C30.3089 43.1094 30.1881 43.1071 30.0679 43.1025V43.1094H8.33208V43.1075Z" fill="url(#paint0_radial_1718_33024)" fill-opacity="0.9"/>
<defs>
<filter id="filter0_i_1718_33024" x="5.21509" y="6.52075" width="36.4453" height="39.4453" filterUnits="userSpaceOnUse" color-interpolation-filters="sRGB">
<feFlood flood-opacity="0" result="BackgroundImageFix"/>
<feBlend mode="normal" in="SourceGraphic" in2="BackgroundImageFix" result="shape"/>
<feColorMatrix in="SourceAlpha" type="matrix" values="0 0 0 0 0 0 0 0 0 0 0 0 0 0 0 0 0 0 127 0" result="hardAlpha"/>
<feOffset dx="-10" dy="13"/>
<feGaussianBlur stdDeviation="12"/>
<feComposite in2="hardAlpha" operator="arithmetic" k2="-1" k3="1"/>
<feColorMatrix type="matrix" values="0 0 0 0 1 0 0 0 0 0.886275 0 0 0 0 0 0 0 0 0.9 0"/>
<feBlend mode="normal" in2="shape" result="effect1_innerShadow_1718_33024"/>
</filter>
<radialGradient id="paint0_radial_1718_33024" cx="0" cy="0" r="1" gradientUnits="userSpaceOnUse" gradientTransform="translate(13.977 20.3075) rotate(90.6693) scale(22.7916 26.0082)">
<stop stop-color="white"/>
<stop offset="1" stop-color="#99CEFF"/>
</radialGradient>
</defs>
</svg>
