<svg width="30" height="48" viewBox="0 5 45 48" fill="none" xmlns="http://www.w3.org/2000/svg">
<g filter="url(#filter0_bi_1718_33153)">
<path fill-rule="evenodd" clip-rule="evenodd" d="M34.0612 32.4393H9.32629V32.4371C9.25889 32.4385 9.1913 32.4393 9.12355 32.4393C4.08475 32.4393 0 28.3545 0 23.3157C0 19.8962 1.88121 16.9161 4.66516 15.3538C4.66382 15.2709 4.66315 15.1878 4.66315 15.1045C4.66315 6.76253 11.4257 0 19.7677 0C26.9634 0 32.9838 5.03167 34.5026 11.7685C40.0085 11.9997 44.4013 16.5365 44.4013 22.0993C44.4013 27.6057 40.097 32.1068 34.6695 32.4217V32.4393H34.0612Z" fill="url(#paint0_radial_1718_33153)" fill-opacity="0.77"/>
</g>
<path d="M16.4367 37.2829C16.6266 37.1035 16.9397 37.2167 16.9692 37.4755L17.2092 39.5822C17.3249 40.5986 16.3275 41.3845 15.364 41.0359L-nan -nanL15.364 41.0359C14.4005 40.6873 14.1446 39.448 14.8906 38.7433L16.4367 37.2829Z" fill="#00D0E2"/>
<path d="M22.3163 37.2829C22.5063 37.1035 22.8194 37.2167 22.8488 37.4755L23.0888 39.5822C23.2046 40.5986 22.2071 41.3845 21.2436 41.0359L-nan -nanL21.2436 41.0359C20.2801 40.6873 20.0242 39.448 20.7702 38.7433L22.3163 37.2829Z" fill="#00D0E2"/>
<path d="M28.6015 37.2829C28.7914 37.1035 29.1045 37.2167 29.134 37.4755L29.374 39.5822C29.4897 40.5986 28.4923 41.3845 27.5288 41.0359L-nan -nanL27.5288 41.0359C26.5653 40.6873 26.3094 39.448 27.0554 38.7433L28.6015 37.2829Z" fill="#00D0E2"/>
<path d="M18.464 43.7735C18.6536 43.5941 18.9665 43.7078 18.9962 43.9669L19.2382 46.0757C19.355 47.0932 18.3592 47.8786 17.3962 47.5287L-nan -nanL17.3962 47.5287C16.4332 47.1788 16.1762 45.9382 16.9208 45.2337L18.464 43.7735Z" fill="#00D0E2"/>
<path d="M24.3436 43.7735C24.5332 43.5941 24.8462 43.7078 24.8759 43.9669L25.1179 46.0757C25.2346 47.0932 24.2389 47.8786 23.2758 47.5287L-nan -nanL23.2758 47.5287C22.3128 47.1788 22.0558 45.9382 22.8004 45.2337L24.3436 43.7735Z" fill="#00D0E2"/>
<defs>
<filter id="filter0_bi_1718_33153" x="-15" y="-15" width="74.4014" height="62.4393" filterUnits="userSpaceOnUse" color-interpolation-filters="sRGB">
<feFlood flood-opacity="0" result="BackgroundImageFix"/>
<feGaussianBlur in="BackgroundImage" stdDeviation="7.5"/>
<feComposite in2="SourceAlpha" operator="in" result="effect1_backgroundBlur_1718_33153"/>
<feBlend mode="normal" in="SourceGraphic" in2="effect1_backgroundBlur_1718_33153" result="shape"/>
<feColorMatrix in="SourceAlpha" type="matrix" values="0 0 0 0 0 0 0 0 0 0 0 0 0 0 0 0 0 0 127 0" result="hardAlpha"/>
<feOffset dx="3" dy="3"/>
<feGaussianBlur stdDeviation="2.5"/>
<feComposite in2="hardAlpha" operator="arithmetic" k2="-1" k3="1"/>
<feColorMatrix type="matrix" values="0 0 0 0 1 0 0 0 0 1 0 0 0 0 1 0 0 0 1 0"/>
<feBlend mode="normal" in2="shape" result="effect2_innerShadow_1718_33153"/>
</filter>
<radialGradient id="paint0_radial_1718_33153" cx="0" cy="0" r="1" gradientUnits="userSpaceOnUse" gradientTransform="translate(15.6447 6.91655) rotate(90.6693) scale(25.5112 29.1116)">
<stop stop-color="white"/>
<stop offset="1" stop-color="#99CEFF"/>
</radialGradient>
</defs>
</svg>
