<svg width="104" height="94" viewBox="10 -15 104 94" fill="none" xmlns="http://www.w3.org/2000/svg">
<g filter="url(#filter0_i_1718_33024)">
<path d="M73.6604 21.7434C73.6604 29.0461 67.7404 34.966 60.4377 34.966C53.1351 34.966 47.2151 29.0461 47.2151 21.7434C47.2151 14.4407 53.1351 8.52075 60.4377 8.52075C67.7404 8.52075 73.6604 14.4407 73.6604 21.7434Z" fill="#FFAB0B"/>
</g>
<path fill-rule="evenodd" clip-rule="evenodd" d="M60.2381 2.0003C60.2744 2.0001 60.3108 2 60.3472 2C60.3836 2 60.4199 2.0001 60.4563 2.0003C61.2565 2.00465 61.9018 2.65694 61.8974 3.45722C61.8931 4.2575 61.2408 4.90272 60.4405 4.89837C60.4094 4.8982 60.3783 4.89811 60.3472 4.89811C60.316 4.89811 60.2849 4.8982 60.2538 4.89837C59.4536 4.90272 58.8013 4.2575 58.7969 3.45722C58.7926 2.65694 59.4378 2.00465 60.2381 2.0003ZM48.5768 7.69083C49.1396 8.25982 49.1345 9.1773 48.5655 9.74007C48.5216 9.78354 48.4779 9.82725 48.4344 9.8712C47.8716 10.4402 46.9542 10.4452 46.3852 9.88247C45.8162 9.31969 45.8111 8.40222 46.3739 7.83322C46.4248 7.78172 46.4761 7.7305 46.5276 7.67956C47.0966 7.11679 48.014 7.12183 48.5768 7.69083ZM72.1175 7.69083C72.6803 7.12183 73.5978 7.11679 74.1668 7.67956C74.2183 7.7305 74.2695 7.78172 74.3204 7.83322C74.8832 8.40222 74.8782 9.31969 74.3092 9.88247C73.7402 10.4452 72.8227 10.4402 72.2599 9.8712C72.2165 9.82725 72.1727 9.78354 72.1288 9.74007C71.5598 9.1773 71.5548 8.25982 72.1175 7.69083ZM78.5428 20.1026C79.3431 20.0982 79.9953 20.7435 79.9997 21.5437C79.9999 21.5801 80 21.6164 80 21.6528C80 21.6892 79.9999 21.7256 79.9997 21.7619C79.9953 22.5622 79.3431 23.2074 78.5428 23.2031C77.7425 23.1987 77.0973 22.5464 77.1016 21.7462C77.1018 21.7151 77.1019 21.684 77.1019 21.6528C77.1019 21.6217 77.1018 21.5906 77.1016 21.5595C77.0973 20.7592 77.7425 20.1069 78.5428 20.1026ZM42.1516 20.1026C42.9518 20.1069 43.5971 20.7592 43.5927 21.5595C43.5925 21.5906 43.5924 21.6217 43.5924 21.6528C43.5924 21.684 43.5925 21.7151 43.5927 21.7462C43.5971 22.5464 42.9518 23.1987 42.1516 23.2031C41.3513 23.2074 40.699 22.5622 40.6946 21.7619C40.6944 21.7256 40.6943 21.6892 40.6943 21.6528C40.6943 21.6164 40.6944 21.5801 40.6946 21.5437C40.699 20.7435 41.3513 20.0982 42.1516 20.1026ZM46.3852 33.4232C46.9542 32.8604 47.8716 32.8655 48.4344 33.4345C48.4779 33.4784 48.5216 33.5221 48.5655 33.5656C49.1345 34.1284 49.1396 35.0458 48.5768 35.6148C48.014 36.1838 47.0966 36.1889 46.5276 35.6261C46.4761 35.5752 46.4248 35.5239 46.3739 35.4724C45.8111 34.9034 45.8162 33.986 46.3852 33.4232ZM74.3092 33.4232C74.8782 33.986 74.8832 34.9034 74.3204 35.4724C74.2695 35.5239 74.2183 35.5752 74.1668 35.6261C73.5978 36.1889 72.6803 36.1838 72.1175 35.6148C71.5548 35.0458 71.5598 34.1284 72.1288 33.5656C72.1727 33.5221 72.2165 33.4784 72.2599 33.4345C72.8227 32.8655 73.7402 32.8604 74.3092 33.4232ZM58.7969 39.8484C58.8013 39.0482 59.4536 38.4029 60.2538 38.4073C60.2849 38.4075 60.316 38.4075 60.3472 38.4075C60.3783 38.4075 60.4094 38.4075 60.4405 38.4073C61.2408 38.4029 61.8931 39.0482 61.8974 39.8484C61.9018 40.6487 61.2565 41.301 60.4563 41.3054C60.4387 41.3055 60.4212 41.3055 60.4036 41.3056C60.3848 41.3056 60.366 41.3057 60.3472 41.3057C60.3108 41.3057 60.2744 41.3056 60.2381 41.3054C59.4378 41.301 58.7926 40.6487 58.7969 39.8484Z" fill="#FFE200"/>
<g filter="url(#filter1_bdi_1718_33024)">
<path fill-rule="evenodd" clip-rule="evenodd" d="M40.3321 45.1075C40.2719 45.1088 40.2115 45.1094 40.1509 45.1094C35.6493 45.1094 32 41.4601 32 36.9585C32 33.9035 33.6807 31.2411 36.1678 29.8454C36.1666 29.7713 36.166 29.697 36.166 29.6226C36.166 22.1699 42.2077 16.1283 49.6604 16.1283C56.089 16.1283 61.4676 20.6236 62.8245 26.6422C67.7434 26.8488 71.6679 30.9019 71.6679 35.8717C71.6679 40.9736 67.532 45.1094 62.4302 45.1094C62.3089 45.1094 62.1881 45.1071 62.0679 45.1025V45.1094H40.3321V45.1075Z" fill="url(#paint0_radial_1718_33024)" fill-opacity="0.77"/>
</g>
<g style="mix-blend-mode:soft-light" filter="url(#filter2_di_1718_33024)">
<path d="M48.3019 36.9584C48.3019 41.4601 44.6526 45.1094 40.1509 45.1094C35.6493 45.1094 32 41.4601 32 36.9584C32 32.4568 35.6493 28.8075 40.1509 28.8075C44.6526 28.8075 48.3019 32.4568 48.3019 36.9584Z" fill="#848484"/>
</g>
<defs>
<filter id="filter0_i_1718_33024" x="37.2151" y="8.52075" width="36.4453" height="39.4453" filterUnits="userSpaceOnUse" color-interpolation-filters="sRGB">
<feFlood flood-opacity="0" result="BackgroundImageFix"/>
<feBlend mode="normal" in="SourceGraphic" in2="BackgroundImageFix" result="shape"/>
<feColorMatrix in="SourceAlpha" type="matrix" values="0 0 0 0 0 0 0 0 0 0 0 0 0 0 0 0 0 0 127 0" result="hardAlpha"/>
<feOffset dx="-10" dy="13"/>
<feGaussianBlur stdDeviation="12"/>
<feComposite in2="hardAlpha" operator="arithmetic" k2="-1" k3="1"/>
<feColorMatrix type="matrix" values="0 0 0 0 1 0 0 0 0 0.886275 0 0 0 0 0 0 0 0 0.9 0"/>
<feBlend mode="normal" in2="shape" result="effect1_innerShadow_1718_33024"/>
</filter>
<filter id="filter1_bdi_1718_33024" x="0" y="0.128296" width="103.668" height="92.9811" filterUnits="userSpaceOnUse" color-interpolation-filters="sRGB">
<feFlood flood-opacity="0" result="BackgroundImageFix"/>
<feGaussianBlur in="BackgroundImage" stdDeviation="7.5"/>
<feComposite in2="SourceAlpha" operator="in" result="effect1_backgroundBlur_1718_33024"/>
<feColorMatrix in="SourceAlpha" type="matrix" values="0 0 0 0 0 0 0 0 0 0 0 0 0 0 0 0 0 0 127 0" result="hardAlpha"/>
<feOffset dy="16"/>
<feGaussianBlur stdDeviation="16"/>
<feColorMatrix type="matrix" values="0 0 0 0 0 0 0 0 0 0.2015 0 0 0 0 0.3875 0 0 0 0.2 0"/>
<feBlend mode="normal" in2="effect1_backgroundBlur_1718_33024" result="effect2_dropShadow_1718_33024"/>
<feBlend mode="normal" in="SourceGraphic" in2="effect2_dropShadow_1718_33024" result="shape"/>
<feColorMatrix in="SourceAlpha" type="matrix" values="0 0 0 0 0 0 0 0 0 0 0 0 0 0 0 0 0 0 127 0" result="hardAlpha"/>
<feOffset dx="3" dy="3"/>
<feGaussianBlur stdDeviation="2.5"/>
<feComposite in2="hardAlpha" operator="arithmetic" k2="-1" k3="1"/>
<feColorMatrix type="matrix" values="0 0 0 0 1 0 0 0 0 1 0 0 0 0 1 0 0 0 1 0"/>
<feBlend mode="normal" in2="shape" result="effect3_innerShadow_1718_33024"/>
</filter>
<filter id="filter2_di_1718_33024" x="24" y="12.8075" width="28.302" height="34.3019" filterUnits="userSpaceOnUse" color-interpolation-filters="sRGB">
<feFlood flood-opacity="0" result="BackgroundImageFix"/>
<feColorMatrix in="SourceAlpha" type="matrix" values="0 0 0 0 0 0 0 0 0 0 0 0 0 0 0 0 0 0 127 0" result="hardAlpha"/>
<feOffset dx="-2" dy="-10"/>
<feGaussianBlur stdDeviation="3"/>
<feColorMatrix type="matrix" values="0 0 0 0 0 0 0 0 0 0 0 0 0 0 0 0 0 0 0.22 0"/>
<feBlend mode="normal" in2="BackgroundImageFix" result="effect1_dropShadow_1718_33024"/>
<feBlend mode="normal" in="SourceGraphic" in2="effect1_dropShadow_1718_33024" result="shape"/>
<feColorMatrix in="SourceAlpha" type="matrix" values="0 0 0 0 0 0 0 0 0 0 0 0 0 0 0 0 0 0 127 0" result="hardAlpha"/>
<feOffset dx="4" dy="2"/>
<feGaussianBlur stdDeviation="2.5"/>
<feComposite in2="hardAlpha" operator="arithmetic" k2="-1" k3="1"/>
<feColorMatrix type="matrix" values="0 0 0 0 1 0 0 0 0 1 0 0 0 0 1 0 0 0 0.74 0"/>
<feBlend mode="normal" in2="shape" result="effect2_innerShadow_1718_33024"/>
</filter>
<radialGradient id="paint0_radial_1718_33024" cx="0" cy="0" r="1" gradientUnits="userSpaceOnUse" gradientTransform="translate(45.977 22.3075) rotate(90.6693) scale(22.7916 26.0082)">
<stop stop-color="white"/>
<stop offset="1" stop-color="#99CEFF"/>
</radialGradient>
</defs>
</svg>
