<svg width="30" height="48" viewBox="0 5 45 48" fill="none" xmlns="http://www.w3.org/2000/svg">
<path d="M18.2567 38.2287L19.1597 32.2689H24.8068L23.7758 36.5647C23.6845 36.9452 23.9728 37.3109 24.3641 37.3109H24.8922C25.3743 37.3109 25.6628 37.8471 25.3971 38.2494L18.958 48L21.1753 39.6853C21.2777 39.3012 20.9882 38.9244 20.5907 38.9244H18.8549C18.4847 38.9244 18.2012 38.5948 18.2567 38.2287Z" fill="url(#paint0_linear_1718_33136)"/>
<g filter="url(#filter0_bi_1718_33136)">
<path fill-rule="evenodd" clip-rule="evenodd" d="M33.8824 32.2689H9.27731V32.2667C9.21026 32.2682 9.14303 32.2689 9.07563 32.2689C4.0633 32.2689 0 28.2056 0 23.1933C0 19.7917 1.87133 16.8273 4.64066 15.2732C4.63933 15.1907 4.63866 15.108 4.63866 15.0252C4.63866 6.72702 11.3657 0 19.6639 0C26.8218 0 32.8106 5.00524 34.3214 11.7067C39.7984 11.9367 44.1681 16.4496 44.1681 21.9832C44.1681 27.3923 39.9927 31.8263 34.6891 32.2377V32.2689H33.8824Z" fill="url(#paint1_radial_1718_33136)" fill-opacity="0.77"/>
</g>
<mask id="mask0_1718_33136" style="mask-type:alpha" maskUnits="userSpaceOnUse" x="0" y="0" width="45" height="33">
<path fill-rule="evenodd" clip-rule="evenodd" d="M9.27731 32.2667C9.21026 32.2682 9.14303 32.2689 9.07563 32.2689C4.0633 32.2689 0 28.2056 0 23.1933C0 19.7917 1.87133 16.8273 4.64066 15.2732C4.63933 15.1907 4.63866 15.108 4.63866 15.0252C4.63866 6.72702 11.3657 0 19.6639 0C26.8218 0 32.8106 5.00524 34.3214 11.7067C39.7984 11.9367 44.1681 16.4496 44.1681 21.9832C44.1681 27.6638 39.563 32.2689 33.8824 32.2689C33.6109 32.2689 33.3418 32.2584 33.0756 32.2377V32.2689H9.27731V32.2667Z" fill="url(#paint2_radial_1718_33136)" fill-opacity="0.77"/>
</mask>
<g mask="url(#mask0_1718_33136)">
<g filter="url(#filter1_f_1718_33136)">
<path d="M21.5797 24.6051C16.2441 28.5337 11.3977 31.2616 8.2688 32.269H35.8991C32.5396 32.269 25.4497 26.9345 21.5797 24.6051Z" fill="url(#paint3_radial_1718_33136)"/>
</g>
<g style="mix-blend-mode:screen" filter="url(#filter2_f_1718_33136)">
<path d="M22.9916 21.1765C19.4518 23.1073 14.3783 32.1772 12.3025 32.6723H33.479C31.2502 32.6723 25.559 22.3214 22.9916 21.1765Z" fill="url(#paint4_linear_1718_33136)"/>
</g>
<g style="mix-blend-mode:screen" filter="url(#filter3_f_1718_33136)">
<path d="M21.9831 23.5967C19.7205 24.8879 16.4528 32.3412 15.126 32.6723L28.6386 32.2689C27.214 32.2689 23.6242 24.3623 21.9831 23.5967Z" fill="url(#paint5_linear_1718_33136)"/>
</g>
</g>
<defs>
<filter id="filter0_bi_1718_33136" x="-15" y="-15" width="74.168" height="62.2689" filterUnits="userSpaceOnUse" color-interpolation-filters="sRGB">
<feFlood flood-opacity="0" result="BackgroundImageFix"/>
<feGaussianBlur in="BackgroundImage" stdDeviation="7.5"/>
<feComposite in2="SourceAlpha" operator="in" result="effect1_backgroundBlur_1718_33136"/>
<feBlend mode="normal" in="SourceGraphic" in2="effect1_backgroundBlur_1718_33136" result="shape"/>
<feColorMatrix in="SourceAlpha" type="matrix" values="0 0 0 0 0 0 0 0 0 0 0 0 0 0 0 0 0 0 127 0" result="hardAlpha"/>
<feOffset dx="3" dy="3"/>
<feGaussianBlur stdDeviation="2.5"/>
<feComposite in2="hardAlpha" operator="arithmetic" k2="-1" k3="1"/>
<feColorMatrix type="matrix" values="0 0 0 0 1 0 0 0 0 1 0 0 0 0 1 0 0 0 1 0"/>
<feBlend mode="normal" in2="shape" result="effect2_innerShadow_1718_33136"/>
</filter>
<filter id="filter1_f_1718_33136" x="0.268799" y="16.6051" width="43.6304" height="23.6638" filterUnits="userSpaceOnUse" color-interpolation-filters="sRGB">
<feFlood flood-opacity="0" result="BackgroundImageFix"/>
<feBlend mode="normal" in="SourceGraphic" in2="BackgroundImageFix" result="shape"/>
<feGaussianBlur stdDeviation="4" result="effect1_foregroundBlur_1718_33136"/>
</filter>
<filter id="filter2_f_1718_33136" x="8.30249" y="17.1765" width="29.1765" height="19.4958" filterUnits="userSpaceOnUse" color-interpolation-filters="sRGB">
<feFlood flood-opacity="0" result="BackgroundImageFix"/>
<feBlend mode="normal" in="SourceGraphic" in2="BackgroundImageFix" result="shape"/>
<feGaussianBlur stdDeviation="2" result="effect1_foregroundBlur_1718_33136"/>
</filter>
<filter id="filter3_f_1718_33136" x="11.126" y="19.5967" width="21.5127" height="17.0757" filterUnits="userSpaceOnUse" color-interpolation-filters="sRGB">
<feFlood flood-opacity="0" result="BackgroundImageFix"/>
<feBlend mode="normal" in="SourceGraphic" in2="BackgroundImageFix" result="shape"/>
<feGaussianBlur stdDeviation="2" result="effect1_foregroundBlur_1718_33136"/>
</filter>
<linearGradient id="paint0_linear_1718_33136" x1="22.6018" y1="32.2689" x2="22.6018" y2="42.7563" gradientUnits="userSpaceOnUse">
<stop stop-color="#E2BC38"/>
<stop offset="1" stop-color="#FFE244"/>
</linearGradient>
<radialGradient id="paint1_radial_1718_33136" cx="0" cy="0" r="1" gradientUnits="userSpaceOnUse" gradientTransform="translate(15.5626 6.88023) rotate(90.6693) scale(25.3772 28.9588)">
<stop stop-color="white"/>
<stop offset="1" stop-color="#99CEFF"/>
</radialGradient>
<radialGradient id="paint2_radial_1718_33136" cx="0" cy="0" r="1" gradientUnits="userSpaceOnUse" gradientTransform="translate(15.5626 6.88023) rotate(90.6693) scale(25.3772 28.9588)">
<stop stop-color="white"/>
<stop offset="1" stop-color="#99CEFF"/>
</radialGradient>
<radialGradient id="paint3_radial_1718_33136" cx="0" cy="0" r="1" gradientUnits="userSpaceOnUse" gradientTransform="translate(24.1792 31.419) rotate(-90) scale(4.34407 22.4418)">
<stop stop-color="#FFDE41"/>
<stop offset="1" stop-color="#FFD200" stop-opacity="0"/>
</radialGradient>
<linearGradient id="paint4_linear_1718_33136" x1="23.46" y1="32.448" x2="23.46" y2="30.9665" gradientUnits="userSpaceOnUse">
<stop stop-color="#FFDE41"/>
<stop offset="1" stop-color="#FFD200" stop-opacity="0"/>
</linearGradient>
<linearGradient id="paint5_linear_1718_33136" x1="22.2576" y1="32.5159" x2="22.2576" y2="30.4694" gradientUnits="userSpaceOnUse">
<stop stop-color="#FFDE41"/>
<stop offset="1" stop-color="#FFD200" stop-opacity="0"/>
</linearGradient>
</defs>
</svg>
