<svg width="20" height="33" viewBox="0 5 45 33" fill="none" xmlns="http://www.w3.org/2000/svg">
<g filter="url(#filter0_bi_2317_45208)">
<path fill-rule="evenodd" clip-rule="evenodd" d="M34.0612 32.4393H9.32629V32.4371C9.25889 32.4385 9.1913 32.4393 9.12355 32.4393C4.08475 32.4393 0 28.3545 0 23.3157C0 19.8962 1.88121 16.9161 4.66516 15.3538C4.66382 15.2709 4.66315 15.1878 4.66315 15.1045C4.66315 6.76253 11.4257 0 19.7677 0C26.9634 0 32.9838 5.03167 34.5026 11.7685C40.0085 11.9997 44.4013 16.5365 44.4013 22.0993C44.4013 27.6057 40.097 32.1068 34.6695 32.4217V32.4393H34.0612Z" fill="url(#paint0_radial_2317_45208)" fill-opacity="0.77"/>
</g>
<defs>
<filter id="filter0_bi_2317_45208" x="-15" y="-15" width="74.4014" height="62.4393" filterUnits="userSpaceOnUse" color-interpolation-filters="sRGB">
<feFlood flood-opacity="0" result="BackgroundImageFix"/>
<feGaussianBlur in="BackgroundImage" stdDeviation="7.5"/>
<feComposite in2="SourceAlpha" operator="in" result="effect1_backgroundBlur_2317_45208"/>
<feBlend mode="normal" in="SourceGraphic" in2="effect1_backgroundBlur_2317_45208" result="shape"/>
<feColorMatrix in="SourceAlpha" type="matrix" values="0 0 0 0 0 0 0 0 0 0 0 0 0 0 0 0 0 0 127 0" result="hardAlpha"/>
<feOffset dx="3" dy="3"/>
<feGaussianBlur stdDeviation="2.5"/>
<feComposite in2="hardAlpha" operator="arithmetic" k2="-1" k3="1"/>
<feColorMatrix type="matrix" values="0 0 0 0 1 0 0 0 0 1 0 0 0 0 1 0 0 0 1 0"/>
<feBlend mode="normal" in2="shape" result="effect2_innerShadow_2317_45208"/>
</filter>
<radialGradient id="paint0_radial_2317_45208" cx="0" cy="0" r="1" gradientUnits="userSpaceOnUse" gradientTransform="translate(15.6447 6.91655) rotate(90.6693) scale(25.5112 29.1116)">
<stop stop-color="white"/>
<stop offset="1" stop-color="#99CEFF"/>
</radialGradient>
</defs>
</svg>
