<svg width="20" height="20" viewBox="0 0 20 20" fill="none" xmlns="http://www.w3.org/2000/svg">
<path d="M20 10C20 15.5228 15.5228 20 10 20C4.47715 20 0 15.5228 0 10C0 4.47715 4.47715 0 10 0C15.5228 0 20 4.47715 20 10Z" fill="#0AAF42"/>
<path fill-rule="evenodd" clip-rule="evenodd" d="M15.5821 6.2381C15.8754 6.5454 15.8641 7.03232 15.5568 7.32566L8.74359 13.8292C8.05001 14.4912 6.95854 14.4912 6.26496 13.8292L4.2381 11.8944C3.93079 11.6011 3.91947 11.1142 4.2128 10.8069C4.50614 10.4996 4.99306 10.4882 5.30037 10.7816L7.32723 12.7163C7.42631 12.8109 7.58224 12.8109 7.68132 12.7163L14.4945 6.2128C14.8018 5.91947 15.2887 5.93079 15.5821 6.2381Z" fill="white"/>
</svg>
