<svg width="178" height="30" viewBox="0 0 178 30" fill="none" xmlns="http://www.w3.org/2000/svg">
<path d="M14.9975 29.64C12.3308 29.64 9.90417 29.0133 7.7175 27.76C5.5575 26.48 3.8375 24.7467 2.5575 22.56C1.30417 20.3467 0.6775 17.9067 0.6775 15.24C0.6775 12.52 1.29083 10.0667 2.5175 7.88C3.74417 5.69333 5.42417 3.98667 7.5575 2.76C9.69083 1.50667 12.0908 0.88 14.7575 0.88C16.1975 0.88 17.6108 1.05333 18.9975 1.4C20.3842 1.74666 21.5708 2.24 22.5575 2.88L21.4775 9.08C19.5575 8.36 17.8242 8 16.2775 8C14.1442 8 12.5042 8.62667 11.3575 9.88C10.2108 11.1067 9.6375 12.88 9.6375 15.2C9.6375 17.4667 10.2375 19.24 11.4375 20.52C12.6642 21.7733 14.3575 22.4 16.5175 22.4C17.3442 22.4 18.1175 22.32 18.8375 22.16C19.5575 22 20.4375 21.7067 21.4775 21.28L22.5975 27.6C20.2775 28.96 17.7442 29.64 14.9975 29.64ZM26.1781 1.48H35.1781V12.44H43.6981V1.48H52.7381V29H43.6981V18.2H35.1781V29H26.1781V1.48ZM71.2959 29.64C68.4159 29.64 65.8559 29.0267 63.6159 27.8C61.4026 26.5733 59.6693 24.88 58.4159 22.72C57.1893 20.5333 56.5759 18.0533 56.5759 15.28C56.5759 12.48 57.1893 9.98667 58.4159 7.8C59.6693 5.61333 61.4026 3.92 63.6159 2.72C65.8559 1.49333 68.4159 0.88 71.2959 0.88C74.1759 0.88 76.7226 1.49333 78.9359 2.72C81.1759 3.92 82.9093 5.61333 84.1359 7.8C85.3893 9.96 86.0159 12.4533 86.0159 15.28C86.0159 18.0533 85.3893 20.5333 84.1359 22.72C82.9093 24.88 81.1759 26.5733 78.9359 27.8C76.6959 29.0267 74.1493 29.64 71.2959 29.64ZM71.2959 22.36C72.9759 22.36 74.3493 21.7067 75.4159 20.4C76.5093 19.0933 77.0559 17.3733 77.0559 15.24C77.0559 13.8267 76.8026 12.5733 76.2959 11.48C75.8159 10.36 75.1359 9.49333 74.2559 8.88C73.3759 8.24 72.3759 7.92 71.2559 7.92C70.1626 7.92 69.1759 8.24 68.2959 8.88C67.4159 9.49333 66.7359 10.36 66.2559 11.48C65.7759 12.5733 65.5359 13.8267 65.5359 15.24C65.5359 17.3733 66.0693 19.0933 67.1359 20.4C68.2026 21.7067 69.5893 22.36 71.2959 22.36ZM110.69 29.64C105.677 29.64 102.61 27.32 101.49 22.68L100.49 18.56H98.61V29H89.85V1.48H101.97C104.263 1.48 106.277 1.82667 108.01 2.52C109.77 3.18667 111.13 4.13333 112.09 5.36C113.05 6.58667 113.53 8 113.53 9.6C113.53 11.3867 113.09 12.8933 112.21 14.12C111.357 15.32 110.023 16.3067 108.21 17.08C108.397 18.0933 108.61 19.0133 108.85 19.84C109.17 20.8533 109.61 21.56 110.17 21.96C110.73 22.36 111.543 22.56 112.61 22.56C112.983 22.56 113.57 22.5067 114.37 22.4V28.92C113.117 29.4 111.89 29.64 110.69 29.64ZM100.13 12.96C102.103 12.96 103.49 12.7467 104.29 12.32C105.117 11.8667 105.53 11.1067 105.53 10.04C105.53 9.13333 105.197 8.48 104.53 8.08C103.863 7.65333 102.81 7.44 101.37 7.44H98.61V12.96H100.13ZM130.944 29.64C128.064 29.64 125.504 29.0267 123.264 27.8C121.051 26.5733 119.318 24.88 118.064 22.72C116.838 20.5333 116.224 18.0533 116.224 15.28C116.224 12.48 116.838 9.98667 118.064 7.8C119.318 5.61333 121.051 3.92 123.264 2.72C125.504 1.49333 128.064 0.88 130.944 0.88C133.824 0.88 136.371 1.49333 138.584 2.72C140.824 3.92 142.558 5.61333 143.784 7.8C145.038 9.96 145.664 12.4533 145.664 15.28C145.664 18.0533 145.038 20.5333 143.784 22.72C142.558 24.88 140.824 26.5733 138.584 27.8C136.344 29.0267 133.798 29.64 130.944 29.64ZM130.944 22.36C132.624 22.36 133.998 21.7067 135.064 20.4C136.158 19.0933 136.704 17.3733 136.704 15.24C136.704 13.8267 136.451 12.5733 135.944 11.48C135.464 10.36 134.784 9.49333 133.904 8.88C133.024 8.24 132.024 7.92 130.904 7.92C129.811 7.92 128.824 8.24 127.944 8.88C127.064 9.49333 126.384 10.36 125.904 11.48C125.424 12.5733 125.184 13.8267 125.184 15.24C125.184 17.3733 125.718 19.0933 126.784 20.4C127.851 21.7067 129.238 22.36 130.944 22.36ZM149.498 1.48H158.778V12.72H161.658L166.978 1.48H176.218V3.28L169.898 15.12L177.138 27.2V29H167.418L161.498 18.08H158.778V29H149.498V1.48Z" fill="#0AAF42"/>
</svg>
