<svg width="1920" height="937" viewBox="0 0 1920 937" fill="none" xmlns="http://www.w3.org/2000/svg">
<g clip-path="url(#clip0_2149_44968)">
<rect width="1920" height="937" fill="url(#paint0_linear_2149_44968)"/>
<g filter="url(#filter0_d_2149_44968)">
<path fill-rule="evenodd" clip-rule="evenodd" d="M362.634 702.606C351.178 701.98 338.805 701.303 323.029 701.303C284.235 701.303 236.132 715.268 207.268 747.48C183.093 776.601 168.558 814.011 168.558 854.817C168.558 904.955 190.502 949.967 225.309 980.774C332.07 945.281 409.062 844.583 409.062 725.902C409.062 718.255 408.742 710.683 408.116 703.198C390.869 704.151 377.527 703.421 362.634 702.606Z" fill="#A7F0BA"/>
</g>
<g filter="url(#filter1_d_2149_44968)">
<path fill-rule="evenodd" clip-rule="evenodd" d="M-8.43229 653.942C17.1122 657.144 40.6688 660.097 53.511 662.8C101.383 672.879 136.383 689.308 165.35 714.136C191.018 736.137 202.302 752.015 213.019 774.639C220.929 791.337 226.486 805.262 230.575 816.969C237.304 840.484 240.908 865.318 240.908 890.994C240.908 922.448 235.5 952.64 225.563 980.689C198.84 989.603 170.248 994.431 140.529 994.431C-7.77554 994.431 -128 874.207 -128 725.902C-128 694.448 -122.592 664.257 -112.655 636.208C-112.447 636.138 -112.238 636.069 -112.03 636C-98.4133 642.663 -50.7013 648.643 -8.43229 653.942Z" fill="url(#paint1_linear_2149_44968)"/>
</g>
<path d="M215.004 331.191C204.858 331.191 197.084 334.306 191.681 340.536C186.279 346.766 183.578 355.58 183.578 366.979C183.578 378.511 186.542 387.392 192.472 393.622C198.533 399.851 206.637 402.966 216.783 402.966C222.186 402.966 226.732 402.237 230.421 400.779C234.243 399.321 237.866 397.664 241.292 395.809C243.532 397.664 245.245 399.918 246.431 402.568C247.749 405.087 248.408 408.069 248.408 411.515C248.408 416.95 245.377 421.589 239.316 425.433C233.386 429.144 224.294 431 212.04 431C203.211 431 194.91 429.741 187.135 427.222C179.361 424.704 172.575 420.86 166.777 415.691C160.979 410.389 156.367 403.761 152.941 395.809C149.647 387.723 148 378.113 148 366.979C148 356.641 149.581 347.561 152.744 339.741C156.038 331.788 160.452 325.094 165.986 319.66C171.652 314.225 178.241 310.116 185.752 307.333C193.263 304.549 201.3 303.158 209.865 303.158C221.988 303.158 231.344 305.146 237.932 309.122C244.652 313.099 248.012 318.202 248.012 324.432C248.012 327.878 247.156 330.86 245.443 333.378C243.73 335.897 241.753 337.885 239.513 339.343C236.087 337.09 232.398 335.168 228.445 333.577C224.623 331.987 220.143 331.191 215.004 331.191Z" fill="white"/>
<path d="M359.15 427.222C357.833 427.62 355.724 428.018 352.826 428.415C350.058 428.813 347.159 429.012 344.129 429.012C341.23 429.012 338.594 428.813 336.223 428.415C333.983 428.018 332.072 427.222 330.491 426.029C328.91 424.837 327.658 423.246 326.735 421.258C325.945 419.137 325.549 416.42 325.549 413.106V368.968C325.549 363.533 324.166 359.756 321.399 357.635C318.763 355.381 315.469 354.255 311.516 354.255C308.881 354.255 306.377 354.586 304.005 355.249C301.633 355.912 299.723 356.707 298.273 357.635V427.222C296.956 427.62 294.847 428.018 291.948 428.415C289.181 428.813 286.282 429.012 283.252 429.012C280.353 429.012 277.717 428.813 275.346 428.415C273.106 428.018 271.195 427.222 269.614 426.029C268.032 424.837 266.781 423.246 265.858 421.258C265.068 419.137 264.672 416.42 264.672 413.106V297.789C266.122 297.524 268.23 297.193 270.997 296.795C273.896 296.265 276.795 296 279.694 296C282.593 296 285.162 296.199 287.402 296.596C289.774 296.994 291.751 297.789 293.332 298.982C294.913 300.175 296.099 301.832 296.89 303.953C297.812 305.941 298.273 308.592 298.273 311.906V331.39C299.986 330.728 302.556 329.999 305.982 329.203C309.54 328.275 313.427 327.811 317.643 327.811C330.688 327.811 340.835 331.125 348.082 337.753C355.461 344.247 359.15 353.99 359.15 366.979V427.222Z" fill="white"/>
<path d="M479.316 379.108C479.316 387.325 478.064 394.682 475.56 401.177C473.057 407.539 469.499 412.907 464.887 417.281C460.407 421.655 455.004 424.969 448.679 427.222C442.355 429.476 435.305 430.602 427.531 430.602C419.756 430.602 412.707 429.409 406.382 427.024C400.057 424.638 394.588 421.258 389.977 416.884C385.496 412.377 382.005 406.943 379.501 400.58C376.997 394.218 375.746 387.06 375.746 379.108C375.746 371.287 376.997 364.196 379.501 357.834C382.005 351.471 385.496 346.103 389.977 341.729C394.588 337.222 400.057 333.776 406.382 331.39C412.707 329.004 419.756 327.811 427.531 327.811C435.305 327.811 442.355 329.071 448.679 331.589C455.004 333.975 460.407 337.421 464.887 341.928C469.499 346.302 473.057 351.67 475.56 358.032C478.064 364.395 479.316 371.42 479.316 379.108ZM410.137 379.108C410.137 387.193 411.652 393.423 414.683 397.797C417.846 402.038 422.194 404.159 427.728 404.159C433.262 404.159 437.479 401.972 440.378 397.598C443.409 393.224 444.924 387.06 444.924 379.108C444.924 371.155 443.409 365.057 440.378 360.816C437.347 356.442 433.065 354.255 427.531 354.255C421.996 354.255 417.714 356.442 414.683 360.816C411.652 365.057 410.137 371.155 410.137 379.108Z" fill="white"/>
<path d="M529.309 427.222C527.992 427.62 525.883 428.018 522.985 428.415C520.217 428.813 517.318 429.012 514.288 429.012C511.389 429.012 508.754 428.813 506.382 428.415C504.142 428.018 502.231 427.222 500.65 426.029C499.069 424.837 497.817 423.246 496.894 421.258C496.104 419.137 495.708 416.42 495.708 413.106V353.459C495.708 350.411 496.236 347.826 497.29 345.705C498.476 343.452 500.123 341.464 502.231 339.741C504.339 338.018 506.909 336.493 509.939 335.168C513.102 333.71 516.462 332.451 520.02 331.39C523.577 330.33 527.267 329.535 531.088 329.004C534.91 328.342 538.731 328.01 542.552 328.01C548.877 328.01 553.884 329.27 557.574 331.788C561.263 334.174 563.108 338.15 563.108 343.717C563.108 345.573 562.845 347.429 562.317 349.284C561.79 351.007 561.132 352.598 560.341 354.056C557.574 354.056 554.741 354.189 551.842 354.454C548.943 354.719 546.11 355.116 543.343 355.647C540.576 356.177 537.94 356.773 535.437 357.436C533.065 357.966 531.022 358.629 529.309 359.424V427.222Z" fill="white"/>
<path d="M672.722 379.108C672.722 387.325 671.47 394.682 668.967 401.177C666.463 407.539 662.905 412.907 658.293 417.281C653.813 421.655 648.411 424.969 642.086 427.222C635.761 429.476 628.711 430.602 620.937 430.602C613.163 430.602 606.113 429.409 599.788 427.024C593.463 424.638 587.995 421.258 583.383 416.884C578.903 412.377 575.411 406.943 572.907 400.58C570.404 394.218 569.152 387.06 569.152 379.108C569.152 371.287 570.404 364.196 572.907 357.834C575.411 351.471 578.903 346.103 583.383 341.729C587.995 337.222 593.463 333.776 599.788 331.39C606.113 329.004 613.163 327.811 620.937 327.811C628.711 327.811 635.761 329.071 642.086 331.589C648.411 333.975 653.813 337.421 658.293 341.928C662.905 346.302 666.463 351.67 668.967 358.032C671.47 364.395 672.722 371.42 672.722 379.108ZM603.544 379.108C603.544 387.193 605.059 393.423 608.09 397.797C611.252 402.038 615.6 404.159 621.135 404.159C626.669 404.159 630.886 401.972 633.784 397.598C636.815 393.224 638.33 387.06 638.33 379.108C638.33 371.155 636.815 365.057 633.784 360.816C630.754 356.442 626.471 354.255 620.937 354.255C615.403 354.255 611.12 356.442 608.09 360.816C605.059 365.057 603.544 371.155 603.544 379.108Z" fill="white"/>
<path d="M783 409.925C782.341 416.155 780.496 420.926 777.466 424.24C774.567 427.554 770.284 429.211 764.618 429.211C760.402 429.211 756.646 428.216 753.352 426.228C750.058 424.108 746.5 420.595 742.679 415.691L723.111 391.037V427.222C721.662 427.487 719.488 427.819 716.589 428.216C713.821 428.747 710.988 429.012 708.09 429.012C705.191 429.012 702.555 428.813 700.183 428.415C697.943 428.018 696.033 427.222 694.451 426.029C692.87 424.837 691.618 423.246 690.696 421.258C689.906 419.137 689.51 416.42 689.51 413.106V297.988C690.96 297.591 693.068 297.193 695.835 296.795C698.734 296.265 701.633 296 704.532 296C707.431 296 710 296.199 712.24 296.596C714.612 296.994 716.589 297.789 718.17 298.982C719.751 300.175 720.937 301.832 721.728 303.953C722.65 305.941 723.111 308.592 723.111 311.906V364.395L757.107 329.402C763.959 329.402 769.428 330.926 773.513 333.975C777.729 337.024 779.838 340.867 779.838 345.507C779.838 347.495 779.508 349.351 778.849 351.074C778.19 352.664 777.136 354.321 775.687 356.044C774.369 357.767 772.59 359.623 770.35 361.611C768.242 363.467 765.738 365.654 762.839 368.172L751.376 378.113L783 409.925Z" fill="white"/>
<path d="M177.343 479.233V512.155H174.062V495.303H169.849V510.477H166.605V479.941H169.849V492.469H174.062V479.233H177.343ZM150.908 483.148H154.338V500.783C157.967 500.684 161.311 500.348 164.368 499.777L164.741 502.759C162.702 503.132 160.751 503.393 158.887 503.542C157.023 503.667 155.084 503.729 153.071 503.729H150.908V483.148ZM205.287 499.926C207.624 499.926 209.662 500.174 211.402 500.671C213.142 501.169 214.472 501.877 215.391 502.797C216.336 503.716 216.808 504.798 216.808 506.04C216.808 507.93 215.777 509.408 213.713 510.477C211.65 511.546 208.842 512.081 205.287 512.081C201.758 512.081 198.961 511.546 196.898 510.477C194.835 509.408 193.804 507.93 193.804 506.04C193.804 504.798 194.263 503.716 195.183 502.797C196.128 501.877 197.457 501.169 199.173 500.671C200.912 500.174 202.951 499.926 205.287 499.926ZM190.597 494.408H202.491V488.218H205.884V494.408H220.238V497.167H190.597V494.408ZM194.065 480.873H216.547V483.633C216.547 485.397 216.497 486.914 216.398 488.181C216.299 489.449 216.05 490.841 215.652 492.357L212.259 491.984C212.657 490.493 212.906 489.151 213.005 487.957C213.104 486.74 213.154 485.298 213.154 483.633V483.595H194.065V480.873ZM197.234 506.04C197.234 507.109 197.955 507.954 199.396 508.576C200.838 509.172 202.802 509.471 205.287 509.471C207.798 509.471 209.774 509.172 211.215 508.576C212.682 507.954 213.415 507.109 213.415 506.04C213.415 504.947 212.694 504.102 211.253 503.505C209.811 502.909 207.823 502.61 205.287 502.61C202.777 502.61 200.801 502.909 199.359 503.505C197.942 504.102 197.234 504.947 197.234 506.04ZM248.762 479.27V489.039H253.46V491.872H248.762V503.17H245.332V479.27H248.762ZM223.11 496.831C226.963 495.638 230.032 493.985 232.319 491.872C234.606 489.735 235.899 487.299 236.197 484.565H224.49V481.768H239.888C239.888 486.019 238.546 489.673 235.861 492.73C233.177 495.787 229.411 498.074 224.564 499.59L223.11 496.831ZM228.069 500.746H231.499V508.65H250.141V511.484H228.069V500.746ZM283.81 479.233V512.155H280.492V479.233H283.81ZM256.145 493.438C256.145 491.102 256.431 489.064 257.002 487.324C257.574 485.559 258.382 484.217 259.426 483.297C260.495 482.352 261.738 481.88 263.154 481.88C265.143 481.88 266.759 482.775 268.001 484.565C269.269 486.354 269.99 488.79 270.164 491.872H273.967V479.941H277.173V510.552H273.967V494.706H270.164C270.015 497.912 269.306 500.448 268.039 502.312C266.796 504.151 265.168 505.071 263.154 505.071C261.738 505.071 260.495 504.599 259.426 503.654C258.382 502.71 257.574 501.367 257.002 499.628C256.431 497.863 256.145 495.8 256.145 493.438ZM259.277 493.438C259.277 496.073 259.625 498.136 260.321 499.628C261.017 501.094 261.961 501.827 263.154 501.827C264.372 501.827 265.329 501.094 266.025 499.628C266.721 498.136 267.069 496.073 267.069 493.438C267.069 490.828 266.721 488.79 266.025 487.324C265.329 485.857 264.372 485.124 263.154 485.124C261.961 485.124 261.017 485.857 260.321 487.324C259.625 488.79 259.277 490.828 259.277 493.438ZM322.567 479.233V487.473H327.227V490.381H322.567V498.658H319.099V479.233H322.567ZM296.654 495.564C300.308 495.564 303.166 495.539 305.229 495.489V493.587C303.34 493.389 301.861 492.916 300.793 492.171C299.724 491.425 299.189 490.468 299.189 489.3C299.189 487.957 299.885 486.901 301.277 486.131C302.669 485.36 304.558 484.975 306.945 484.975C309.306 484.975 311.183 485.36 312.575 486.131C313.966 486.901 314.662 487.957 314.662 489.3C314.662 490.468 314.128 491.425 313.059 492.171C311.99 492.916 310.524 493.389 308.66 493.587V495.34C311.99 495.166 314.874 494.917 317.31 494.594L317.533 496.757C314.451 497.303 311.27 497.651 307.989 497.801C304.732 497.95 301.091 498.024 297.064 498.024L296.654 495.564ZM297.512 481.656H305.229V478.935H308.66V481.656H316.34V484.043H297.512V481.656ZM301.054 500.075H322.567V506.898H304.484V509.433H323.797V511.857H301.128V504.698H319.174V502.424H301.054V500.075ZM302.433 489.3C302.433 489.971 302.831 490.505 303.626 490.903C304.447 491.276 305.553 491.462 306.945 491.462C308.312 491.462 309.393 491.263 310.188 490.866C311.009 490.468 311.419 489.946 311.419 489.3C311.419 488.629 311.021 488.119 310.226 487.771C309.43 487.398 308.337 487.212 306.945 487.212C305.528 487.212 304.422 487.398 303.626 487.771C302.831 488.119 302.433 488.629 302.433 489.3ZM356.646 479.233V512.155H353.215V479.233H356.646ZM329.875 503.431C334.151 501.343 337.394 498.82 339.607 495.862C341.844 492.879 343.136 489.436 343.484 485.534H331.441V482.738H346.952C346.952 487.833 345.746 492.357 343.335 496.309C340.924 500.261 337.046 503.542 331.702 506.152L329.875 503.431ZM391.88 494.445V496.98H362.09V494.445H391.88ZM365.595 499.404H388.189V506.6H369.025V509.359H389.196V511.745H365.669V504.288H384.833V501.827H365.595V499.404ZM365.856 480.128H388.114V487.212H369.286V489.747H388.711V492.208H365.893V484.9H384.722V482.514H365.856V480.128ZM419.862 482.29V485.124H408.341V501.268C411.324 501.268 413.822 501.193 415.835 501.044C417.873 500.895 419.912 500.622 421.95 500.224L422.285 503.058C420.023 503.48 417.786 503.766 415.574 503.915C413.387 504.064 410.677 504.139 407.446 504.139H404.948V482.29H419.862ZM418.035 491.052H427.058V479.233H430.488V512.23H427.058V493.848H418.035V491.052ZM442.271 484.714V480.202H445.664V484.714H452.002V487.51H435.858V484.714H442.271ZM436.864 497.055C436.864 495.613 437.163 494.321 437.759 493.177C438.381 492.034 439.226 491.139 440.295 490.493C441.388 489.847 442.606 489.523 443.948 489.523C445.316 489.523 446.534 489.847 447.602 490.493C448.696 491.139 449.541 492.034 450.138 493.177C450.759 494.321 451.07 495.613 451.07 497.055C451.07 498.546 450.759 499.876 450.138 501.044C449.541 502.188 448.696 503.083 447.602 503.729C446.534 504.35 445.316 504.661 443.948 504.661C442.581 504.661 441.363 504.35 440.295 503.729C439.226 503.083 438.381 502.188 437.759 501.044C437.163 499.876 436.864 498.546 436.864 497.055ZM439.922 497.055C439.922 498.472 440.295 499.628 441.04 500.522C441.786 501.392 442.755 501.827 443.948 501.827C445.142 501.827 446.111 501.392 446.857 500.522C447.602 499.628 447.975 498.472 447.975 497.055C447.975 495.688 447.59 494.582 446.819 493.737C446.074 492.867 445.117 492.432 443.948 492.432C442.78 492.432 441.811 492.867 441.04 493.737C440.295 494.582 439.922 495.688 439.922 497.055ZM453.531 479.979H456.774V492.991H460.577V479.233H463.821V512.155H460.577V495.787H456.774V510.589H453.531V479.979ZM506.791 492.842V495.564H493.555V498.509H503.025V506.301H484.048V509.21H503.957V511.82H480.692V503.841H499.632V501.082H480.58V498.509H490.162V495.564H477.038V492.842H506.791ZM478.567 488.74C480.53 488.591 482.32 488.256 483.936 487.734C485.576 487.187 486.906 486.516 487.925 485.72C488.969 484.9 489.603 484.005 489.827 483.036H479.76V480.314H504.107V483.036H493.965C494.189 483.98 494.823 484.863 495.867 485.683C496.911 486.503 498.24 487.187 499.856 487.734C501.497 488.256 503.299 488.591 505.262 488.74L504.144 491.388C501.31 491.114 498.8 490.493 496.612 489.523C494.45 488.529 492.884 487.262 491.915 485.72C490.945 487.262 489.367 488.529 487.179 489.523C485.017 490.493 482.506 491.114 479.648 491.388L478.567 488.74ZM512.161 513.87H509.737L510.968 506.19H514.435L512.161 513.87ZM554.802 479.009V488.479H559.276V492.32H554.802V503.58H550.179V479.009H554.802ZM529.523 481.358H534.109V486.242H540.932V481.358H545.555V498.323H529.523V481.358ZM533.326 501.156H537.949V508.091H555.995V511.82H533.326V501.156ZM540.932 494.669V489.784H534.109V494.669H540.932ZM589.067 478.935V512.491H584.481V498.956H578.739V495.228H584.481V489.822H578.851V486.131H584.481V478.935H589.067ZM562.26 481.806H577.136V494.669H566.92V501.193C571.32 501.144 575.297 500.87 578.851 500.373L579.261 504.139C576.975 504.512 574.738 504.76 572.55 504.885C570.388 504.984 567.852 505.034 564.944 505.034H562.334V491.015H572.588V485.497H562.26V481.806ZM614.998 480.538V483.744C614.998 485.981 615.657 487.995 616.974 489.784C618.292 491.574 620.243 492.867 622.828 493.662L620.554 497.241C618.714 496.67 617.136 495.812 615.819 494.669C614.501 493.525 613.457 492.171 612.687 490.605C611.916 492.32 610.835 493.811 609.443 495.079C608.076 496.322 606.435 497.254 604.521 497.875L602.284 494.184C604.919 493.339 606.908 491.959 608.25 490.045C609.617 488.131 610.3 486.031 610.3 483.744V480.538H614.998ZM607.392 500.41H630.098V512.453H625.438V504.102H607.392V500.41ZM625.438 479.009H630.098V498.956H625.438V479.009ZM665.147 492.32V495.974H652.284V498.173H661.455V506.674H643V508.688H662.313V512.192H638.451V503.431H656.87V501.604H638.376V498.173H647.698V495.974H634.872V492.32H665.147ZM638.637 479.979H661.306V490.418H638.637V479.979ZM656.72 486.876V483.558H643.186V486.876H656.72ZM694.694 481.433V483.521C694.694 485.211 694.645 486.814 694.545 488.33C694.471 489.822 694.259 491.487 693.911 493.326L689.4 492.804C689.822 490.393 690.059 487.833 690.108 485.124H677.581V481.433H694.694ZM675.642 495.787C678.277 495.787 680.34 495.775 681.831 495.75V489.225H686.38V495.601C690.133 495.427 693.402 495.141 696.186 494.743L696.521 498.062C693.439 498.608 690.22 498.981 686.865 499.18C683.509 499.354 679.917 499.454 676.089 499.478L675.642 495.787ZM680.526 501.827H685.187V508.091H703.754V511.82H680.526V501.827ZM698.05 478.972H702.71V489.262H706.774V493.065H702.71V503.99H698.05V478.972ZM736.454 478.935V512.491H731.83V478.935H736.454ZM710.466 481.806H726.2V494.669H715.202V500.858C717.961 500.833 720.459 500.746 722.696 500.597C724.933 500.448 727.182 500.174 729.444 499.777L729.892 503.468C727.356 503.94 724.821 504.263 722.286 504.437C719.75 504.586 716.805 504.661 713.449 504.661H710.541V491.015H721.465V485.534H710.466V481.806ZM757.65 480.799C759.116 480.799 760.421 481.134 761.564 481.806C762.733 482.452 763.64 483.359 764.286 484.527C764.957 485.696 765.293 487.025 765.293 488.517C765.293 490.033 764.957 491.375 764.286 492.543C763.64 493.712 762.733 494.631 761.564 495.303C760.421 495.949 759.116 496.272 757.65 496.272C756.183 496.272 754.866 495.949 753.697 495.303C752.554 494.631 751.647 493.712 750.976 492.543C750.329 491.375 750.006 490.033 750.006 488.517C750.006 487.025 750.329 485.696 750.976 484.527C751.647 483.359 752.554 482.452 753.697 481.806C754.866 481.134 756.183 480.799 757.65 480.799ZM754.182 488.517C754.182 489.784 754.493 490.779 755.114 491.5C755.76 492.195 756.606 492.543 757.65 492.543C758.669 492.543 759.501 492.195 760.148 491.5C760.794 490.779 761.117 489.784 761.117 488.517C761.117 487.299 760.794 486.342 760.148 485.646C759.501 484.925 758.669 484.565 757.65 484.565C756.606 484.565 755.76 484.925 755.114 485.646C754.493 486.342 754.182 487.299 754.182 488.517ZM755.748 498.584H760.297V501.678H773.794V498.584H778.305V512.043H755.748V498.584ZM773.794 508.315V505.295H760.297V508.315H773.794ZM766.859 479.643H771.147V486.056H773.906V479.009H778.305V497.167H773.906V489.784H771.147V496.943H766.859V479.643Z" fill="white"/>
<g filter="url(#filter2_d_2149_44968)">
<path fill-rule="evenodd" clip-rule="evenodd" d="M1838.47 122.95C1836.13 129.931 1833.6 137.472 1830.91 147.234C1824.3 171.235 1824.73 203.376 1839.74 226.729C1853.63 246.657 1874.3 262.033 1899.55 268.993C1930.58 277.543 1962.17 271.642 1987.17 255.358C1983.42 183.247 1934.24 118.435 1860.8 98.1951C1856.07 96.891 1851.33 95.7974 1846.59 94.9087C1844.24 105.743 1841.52 113.874 1838.47 122.95Z" fill="#A7F0BA"/>
</g>
<g filter="url(#filter3_d_2149_44968)">
<path fill-rule="evenodd" clip-rule="evenodd" d="M1785.11 265.669C1797.44 254.662 1808.8 244.512 1815.53 239.44C1840.59 220.532 1863.3 210.53 1887.53 206.99C1909 203.852 1921.44 205.091 1936.91 209.449C1948.32 212.666 1957.41 215.851 1964.79 218.811C1979.01 225.474 1992.54 234.206 2004.96 245.035C2020.18 258.303 2032.5 273.654 2041.88 290.292C2034.92 306.979 2025.2 322.847 2012.66 337.224C1950.11 408.969 1841.24 416.419 1769.49 353.864C1754.27 340.597 1741.95 325.246 1732.57 308.608C1732.63 308.478 1732.68 308.348 1732.74 308.218C1741.7 304.441 1764.72 283.883 1785.11 265.669Z" fill="url(#paint2_linear_2149_44968)"/>
</g>
</g>
<defs>
<filter id="filter0_d_2149_44968" x="138.558" y="701.303" width="340.504" height="379.472" filterUnits="userSpaceOnUse" color-interpolation-filters="sRGB">
<feFlood flood-opacity="0" result="BackgroundImageFix"/>
<feColorMatrix in="SourceAlpha" type="matrix" values="0 0 0 0 0 0 0 0 0 0 0 0 0 0 0 0 0 0 127 0" result="hardAlpha"/>
<feOffset dx="20" dy="50"/>
<feGaussianBlur stdDeviation="25"/>
<feComposite in2="hardAlpha" operator="out"/>
<feColorMatrix type="matrix" values="0 0 0 0 0.0957118 0 0 0 0 0.620833 0 0 0 0 0.296213 0 0 0 0.48 0"/>
<feBlend mode="normal" in2="BackgroundImageFix" result="effect1_dropShadow_2149_44968"/>
<feBlend mode="normal" in="SourceGraphic" in2="effect1_dropShadow_2149_44968" result="shape"/>
</filter>
<filter id="filter1_d_2149_44968" x="-158" y="636" width="468.908" height="458.431" filterUnits="userSpaceOnUse" color-interpolation-filters="sRGB">
<feFlood flood-opacity="0" result="BackgroundImageFix"/>
<feColorMatrix in="SourceAlpha" type="matrix" values="0 0 0 0 0 0 0 0 0 0 0 0 0 0 0 0 0 0 127 0" result="hardAlpha"/>
<feOffset dx="20" dy="50"/>
<feGaussianBlur stdDeviation="25"/>
<feComposite in2="hardAlpha" operator="out"/>
<feColorMatrix type="matrix" values="0 0 0 0 0.0957118 0 0 0 0 0.620833 0 0 0 0 0.296213 0 0 0 0.48 0"/>
<feBlend mode="normal" in2="BackgroundImageFix" result="effect1_dropShadow_2149_44968"/>
<feBlend mode="normal" in="SourceGraphic" in2="effect1_dropShadow_2149_44968" result="shape"/>
</filter>
<filter id="filter2_d_2149_44968" x="1796.83" y="94.9087" width="260.336" height="277.991" filterUnits="userSpaceOnUse" color-interpolation-filters="sRGB">
<feFlood flood-opacity="0" result="BackgroundImageFix"/>
<feColorMatrix in="SourceAlpha" type="matrix" values="0 0 0 0 0 0 0 0 0 0 0 0 0 0 0 0 0 0 127 0" result="hardAlpha"/>
<feOffset dx="20" dy="50"/>
<feGaussianBlur stdDeviation="25"/>
<feComposite in2="hardAlpha" operator="out"/>
<feColorMatrix type="matrix" values="0 0 0 0 0.0957118 0 0 0 0 0.620833 0 0 0 0 0.296213 0 0 0 0.48 0"/>
<feBlend mode="normal" in2="BackgroundImageFix" result="effect1_dropShadow_2149_44968"/>
<feBlend mode="normal" in="SourceGraphic" in2="effect1_dropShadow_2149_44968" result="shape"/>
</filter>
<filter id="filter3_d_2149_44968" x="1702.57" y="205.24" width="409.306" height="291.071" filterUnits="userSpaceOnUse" color-interpolation-filters="sRGB">
<feFlood flood-opacity="0" result="BackgroundImageFix"/>
<feColorMatrix in="SourceAlpha" type="matrix" values="0 0 0 0 0 0 0 0 0 0 0 0 0 0 0 0 0 0 127 0" result="hardAlpha"/>
<feOffset dx="20" dy="50"/>
<feGaussianBlur stdDeviation="25"/>
<feComposite in2="hardAlpha" operator="out"/>
<feColorMatrix type="matrix" values="0 0 0 0 0.0957118 0 0 0 0 0.620833 0 0 0 0 0.296213 0 0 0 0.48 0"/>
<feBlend mode="normal" in2="BackgroundImageFix" result="effect1_dropShadow_2149_44968"/>
<feBlend mode="normal" in="SourceGraphic" in2="effect1_dropShadow_2149_44968" result="shape"/>
</filter>
<linearGradient id="paint0_linear_2149_44968" x1="960" y1="0" x2="960" y2="937" gradientUnits="userSpaceOnUse">
<stop offset="0.4375" stop-color="#42BE65"/>
<stop offset="1" stop-color="#0AAF42"/>
</linearGradient>
<linearGradient id="paint1_linear_2149_44968" x1="69.1195" y1="622.465" x2="69.1195" y2="994.617" gradientUnits="userSpaceOnUse">
<stop stop-color="white"/>
<stop offset="1" stop-color="#C8F6D4"/>
</linearGradient>
<linearGradient id="paint2_linear_2149_44968" x1="1802.6" y1="214.876" x2="1982.63" y2="371.848" gradientUnits="userSpaceOnUse">
<stop stop-color="white"/>
<stop offset="1" stop-color="#C8F6D4"/>
</linearGradient>
<clipPath id="clip0_2149_44968">
<rect width="1920" height="937" fill="white"/>
</clipPath>
</defs>
</svg>
