<svg width="18" height="16" viewBox="0 0 18 16" fill="none" xmlns="http://www.w3.org/2000/svg">
<path fill-rule="evenodd" clip-rule="evenodd" d="M3.41045 0.559802C3.1347 0.250714 2.6606 0.223687 2.35151 0.499436C2.04242 0.775185 2.0154 1.24929 2.29115 1.55838L4.29386 3.80323C2.29207 4.97085 0.844164 6.62508 0.186588 7.46542C-0.0621963 7.78336 -0.0621956 8.21694 0.186588 8.53487C1.26802 9.91689 4.48702 13.5001 8.79186 13.5001C10.0479 13.5001 11.2115 13.1951 12.2566 12.7287L14.5738 15.326C14.8495 15.6351 15.3236 15.6621 15.6327 15.3864C15.9418 15.1106 15.9688 14.6365 15.6931 14.3274L3.41045 0.559802ZM9.65017 9.80713L7.09426 6.9422C6.90261 7.24908 6.79185 7.61168 6.79185 8.00015C6.79185 9.10472 7.68729 10.0001 8.79185 10.0001C9.09906 10.0001 9.39008 9.93089 9.65017 9.80713ZM14.4913 11.3973L10.4024 6.8141C10.3284 6.71376 10.2452 6.62059 10.1541 6.53582L6.78465 2.75896C7.42207 2.59468 8.09264 2.50015 8.79186 2.50015C13.0967 2.50015 16.3157 6.0834 17.3971 7.46542C17.6459 7.78335 17.6459 8.21694 17.3971 8.53487C16.8796 9.19624 15.8726 10.3617 14.4913 11.3973Z" fill="#A8A8A8"/>
</svg>
