<svg width="19" height="18" viewBox="0 0 19 18" fill="none" xmlns="http://www.w3.org/2000/svg">
<path fill-rule="evenodd" clip-rule="evenodd" d="M18.5 8.74165C18.5 8.13788 18.4403 7.55733 18.3295 7H9.5V10.2937H14.5455C14.3281 11.358 13.6676 12.2598 12.6747 12.8636V15H15.7045C17.4773 13.5177 18.5 11.3348 18.5 8.74165Z" fill="#4285F4"/>
<path fill-rule="evenodd" clip-rule="evenodd" d="M9.54325 18C11.9734 18 14.0108 17.2262 15.5 15.9063L12.5912 13.7379C11.7852 14.2565 10.7542 14.5629 9.54325 14.5629C7.19901 14.5629 5.21479 13.0426 4.50701 11H1.5V13.2391C2.98101 16.0634 6.02484 18 9.54325 18Z" fill="#34A853"/>
<path fill-rule="evenodd" clip-rule="evenodd" d="M4.5 10.6923C4.31837 10.1579 4.21517 9.58704 4.21517 9C4.21517 8.41296 4.31837 7.8421 4.5 7.30769V5H1.46594C0.850877 6.20243 0.5 7.56275 0.5 9C0.5 10.4372 0.850877 11.7976 1.46594 13L4.5 10.6923Z" fill="#FBBC05"/>
<path fill-rule="evenodd" clip-rule="evenodd" d="M9.50582 3.43715C10.8211 3.43715 12.002 3.87318 12.9305 4.72952L15.5 2.25084C13.9485 0.856341 11.9206 0 9.50582 0C6.00378 0 2.97411 1.93659 1.5 4.76094L4.49302 7C5.1975 4.95735 7.17248 3.43715 9.50582 3.43715Z" fill="#EA4335"/>
</svg>
