<svg width="256" height="257" viewBox="0 0 256 257" fill="none" xmlns="http://www.w3.org/2000/svg">
<rect y="0.369141" width="256" height="256" rx="56" fill="white"/>
<path fill-rule="evenodd" clip-rule="evenodd" d="M175.963 104.051C173.49 103.916 170.817 103.77 167.411 103.77C159.036 103.77 148.651 106.783 142.417 113.735C137.193 120.025 134.052 128.106 134.052 136.922C134.052 147.749 138.791 157.47 146.308 164.123C169.363 156.458 185.99 134.711 185.99 109.082C185.99 107.431 185.921 105.795 185.786 104.179C182.061 104.385 179.18 104.227 175.963 104.051Z" fill="url(#paint0_linear_1890_42356)"/>
<path fill-rule="evenodd" clip-rule="evenodd" d="M95.8309 93.5416C101.347 94.233 106.434 94.8707 109.208 95.4546C119.546 97.631 127.104 101.179 133.36 106.541C138.903 111.292 141.34 114.721 143.654 119.607C145.364 123.216 146.565 126.225 147.448 128.755C148.9 133.831 149.677 139.191 149.677 144.734C149.677 151.526 148.509 158.046 146.363 164.103C140.592 166.029 134.418 167.071 128 167.071C95.9731 167.071 70.0103 141.108 70.0103 109.082C70.0103 102.289 71.1782 95.769 73.3241 89.7117C73.369 89.6968 73.4138 89.6819 73.4588 89.667C76.3993 91.1059 86.7028 92.3974 95.8309 93.5416Z" fill="url(#paint1_linear_1890_42356)"/>
<defs>
<linearGradient id="paint0_linear_1890_42356" x1="160.021" y1="100.609" x2="160.021" y2="164.123" gradientUnits="userSpaceOnUse">
<stop stop-color="#6FDC8C"/>
<stop offset="1" stop-color="#5DE180"/>
</linearGradient>
<linearGradient id="paint1_linear_1890_42356" x1="112.579" y1="86.7441" x2="112.579" y2="167.111" gradientUnits="userSpaceOnUse">
<stop stop-color="#A7F0BA"/>
<stop offset="1" stop-color="#15AE41"/>
</linearGradient>
</defs>
</svg>
