<svg width="80" height="80" viewBox="0 0 80 80" fill="none" xmlns="http://www.w3.org/2000/svg">
<path fill-rule="evenodd" clip-rule="evenodd" d="M17.3347 64.4419C19.8283 54.2391 29.0308 46.6675 40.0018 46.6675C50.9714 46.6675 60.1731 54.2373 62.668 64.4382C69.2278 58.3507 73.3327 49.6544 73.3327 39.9994C73.3327 21.5899 58.4088 6.66602 39.9994 6.66602C21.5899 6.66602 6.66602 21.5899 6.66602 39.9994C6.66602 49.6563 10.7726 58.3542 17.3347 64.4419ZM53.3334 30.0018C53.3334 37.3656 47.3639 43.3351 40.0001 43.3351C32.6363 43.3351 26.6667 37.3656 26.6667 30.0018C26.6667 22.638 32.6363 16.6685 40.0001 16.6685C47.3639 16.6685 53.3334 22.638 53.3334 30.0018Z" fill="#C6C6C6"/>
<circle cx="39.9994" cy="39.9994" r="30.3333" stroke="#C6C6C6" stroke-width="6"/>
</svg>
