<svg width="20" height="20" viewBox="0 0 20 20" fill="none" xmlns="http://www.w3.org/2000/svg">
<path fill-rule="evenodd" clip-rule="evenodd" d="M3.19993 17.3321C3.94807 14.2714 6.70878 12 10 12C13.2912 12 16.0519 14.2714 16.8001 17.3321C18.7683 15.5058 20 12.8968 20 10C20 4.47715 15.5228 0 10 0C4.47715 0 0 4.47715 0 10C0 12.8968 1.23169 15.5058 3.19993 17.3321ZM14 7C14 9.20914 12.2091 11 10 11C7.79086 11 6 9.20914 6 7C6 4.79086 7.79086 3 10 3C12.2091 3 14 4.79086 14 7Z" fill="#C6C6C6"/>
<circle cx="10" cy="10" r="9" stroke="#C6C6C6" stroke-width="2"/>
</svg>
