<svg width="134" height="134" viewBox="0 0 134 134" fill="none" xmlns="http://www.w3.org/2000/svg">
<circle cx="67" cy="67" r="67" fill="#E0E0E0"/>
<path d="M58 71.9999L63.23 65.8983C63.6327 65.4284 64.3613 65.4335 64.7575 65.9089L68.299 70.1587C68.6754 70.6104 69.3585 70.6414 69.7743 70.2256L71.21 68.79C71.6314 68.3685 72.3256 68.407 72.698 68.8724L76 72.9999" stroke="white" stroke-width="2" stroke-linecap="round" stroke-linejoin="round"/>
<path d="M75 58H59C58.4477 58 58 58.4477 58 59V75C58 75.5523 58.4477 76 59 76H75C75.5523 76 76 75.5523 76 75V59C76 58.4477 75.5523 58 75 58Z" stroke="white" stroke-width="2" stroke-linecap="round" stroke-linejoin="round"/>
<path d="M69 63C69 62.4477 69.4477 62 70 62C70.5523 62 71 62.4477 71 63C71 63.5523 70.5523 64 70 64C69.4477 64 69 63.5523 69 63Z" stroke="white" stroke-width="2" stroke-linecap="round" stroke-linejoin="round"/>
</svg>
