<svg width="1920" height="1080" viewBox="0 0 1920 1080" fill="none" xmlns="http://www.w3.org/2000/svg">
<g clip-path="url(#clip0_2317_45101)">
<rect width="1920" height="1080" fill="url(#paint0_linear_2317_45101)"/>
<g filter="url(#filter0_d_2317_45101)">
<path fill-rule="evenodd" clip-rule="evenodd" d="M362.634 849.606C351.178 848.98 338.805 848.303 323.029 848.303C284.235 848.303 236.132 862.268 207.268 894.48C183.093 923.601 168.558 961.011 168.558 1001.82C168.558 1051.95 190.502 1096.97 225.309 1127.77C332.07 1092.28 409.062 991.583 409.062 872.902C409.062 865.255 408.742 857.683 408.116 850.198C390.869 851.151 377.527 850.421 362.634 849.606Z" fill="#A7F0BA"/>
</g>
<g filter="url(#filter1_d_2317_45101)">
<path fill-rule="evenodd" clip-rule="evenodd" d="M-8.43229 800.942C17.1122 804.144 40.6688 807.097 53.511 809.8C101.383 819.879 136.383 836.308 165.35 861.136C191.018 883.137 202.302 899.015 213.019 921.639C220.929 938.337 226.486 952.262 230.575 963.969C237.304 987.484 240.908 1012.32 240.908 1037.99C240.908 1069.45 235.5 1099.64 225.563 1127.69C198.84 1136.6 170.248 1141.43 140.529 1141.43C-7.77554 1141.43 -128 1021.21 -128 872.902C-128 841.448 -122.592 811.257 -112.655 783.208C-112.447 783.138 -112.238 783.069 -112.03 783C-98.4133 789.663 -50.7013 795.643 -8.43229 800.942Z" fill="url(#paint1_linear_2317_45101)"/>
</g>
<g filter="url(#filter2_d_2317_45101)">
<path fill-rule="evenodd" clip-rule="evenodd" d="M1838.47 122.95C1836.13 129.931 1833.6 137.472 1830.91 147.234C1824.3 171.235 1824.73 203.376 1839.74 226.729C1853.63 246.657 1874.3 262.033 1899.55 268.993C1930.58 277.543 1962.17 271.642 1987.17 255.358C1983.42 183.247 1934.24 118.435 1860.8 98.1951C1856.07 96.891 1851.33 95.7974 1846.59 94.9087C1844.24 105.743 1841.52 113.874 1838.47 122.95Z" fill="#A7F0BA"/>
</g>
<g filter="url(#filter3_d_2317_45101)">
<path fill-rule="evenodd" clip-rule="evenodd" d="M1785.11 265.669C1797.44 254.662 1808.8 244.512 1815.53 239.44C1840.59 220.532 1863.3 210.53 1887.53 206.99C1909 203.852 1921.44 205.091 1936.91 209.449C1948.32 212.666 1957.41 215.851 1964.79 218.811C1979.01 225.474 1992.54 234.206 2004.96 245.035C2020.18 258.303 2032.5 273.654 2041.88 290.292C2034.92 306.979 2025.2 322.847 2012.66 337.224C1950.11 408.969 1841.24 416.419 1769.49 353.864C1754.27 340.597 1741.95 325.246 1732.57 308.608C1732.63 308.478 1732.68 308.348 1732.74 308.218C1741.7 304.441 1764.72 283.883 1785.11 265.669Z" fill="url(#paint2_linear_2317_45101)"/>
</g>
<path d="M216.715 412.061C209.49 412.061 203.954 414.279 200.106 418.715C196.259 423.151 194.335 429.428 194.335 437.546C194.335 445.758 196.447 452.082 200.669 456.518C204.986 460.954 210.757 463.173 217.982 463.173C221.829 463.173 225.066 462.653 227.694 461.615C230.415 460.577 232.995 459.397 235.435 458.076C237.03 459.397 238.25 461.002 239.095 462.889C240.033 464.683 240.502 466.807 240.502 469.261C240.502 473.131 238.344 476.434 234.028 479.172C229.805 481.815 223.33 483.136 214.604 483.136C208.317 483.136 202.405 482.239 196.869 480.446C191.333 478.653 186.5 475.915 182.371 472.234C178.243 468.458 174.959 463.739 172.519 458.076C170.173 452.318 169 445.475 169 437.546C169 430.183 170.126 423.718 172.378 418.149C174.724 412.485 177.867 407.719 181.808 403.849C185.843 399.979 190.535 397.053 195.884 395.07C201.232 393.088 206.956 392.097 213.055 392.097C221.688 392.097 228.351 393.513 233.042 396.345C237.828 399.176 240.221 402.81 240.221 407.247C240.221 409.701 239.611 411.825 238.391 413.618C237.171 415.411 235.764 416.827 234.168 417.865C231.729 416.261 229.101 414.892 226.286 413.76C223.565 412.627 220.375 412.061 216.715 412.061Z" fill="white"/>
<path d="M319.364 480.446C318.426 480.729 316.924 481.012 314.86 481.295C312.89 481.579 310.825 481.72 308.667 481.72C306.603 481.72 304.726 481.579 303.037 481.295C301.442 481.012 300.081 480.446 298.955 479.596C297.829 478.747 296.938 477.614 296.281 476.198C295.718 474.688 295.436 472.753 295.436 470.393V438.962C295.436 435.092 294.451 432.402 292.48 430.891C290.604 429.287 288.258 428.484 285.443 428.484C283.566 428.484 281.783 428.72 280.094 429.192C278.405 429.664 277.045 430.231 276.012 430.891V480.446C275.074 480.729 273.573 481.012 271.508 481.295C269.538 481.579 267.473 481.72 265.315 481.72C263.251 481.72 261.374 481.579 259.685 481.295C258.09 481.012 256.729 480.446 255.603 479.596C254.477 478.747 253.586 477.614 252.929 476.198C252.366 474.688 252.085 472.753 252.085 470.393V388.274C253.117 388.085 254.618 387.85 256.589 387.566C258.653 387.189 260.717 387 262.782 387C264.846 387 266.676 387.142 268.271 387.425C269.96 387.708 271.368 388.274 272.494 389.124C273.62 389.973 274.464 391.153 275.027 392.663C275.684 394.079 276.012 395.967 276.012 398.327V412.202C277.232 411.73 279.062 411.211 281.502 410.645C284.035 409.984 286.803 409.654 289.806 409.654C299.096 409.654 306.321 412.013 311.482 416.733C316.737 421.358 319.364 428.296 319.364 437.546V480.446Z" fill="white"/>
<path d="M404.936 446.182C404.936 452.035 404.045 457.273 402.262 461.898C400.479 466.429 397.945 470.252 394.661 473.367C391.471 476.482 387.624 478.841 383.119 480.446C378.615 482.051 373.595 482.853 368.059 482.853C362.523 482.853 357.503 482.003 352.999 480.304C348.494 478.605 344.6 476.198 341.316 473.084C338.126 469.874 335.639 466.004 333.856 461.474C332.073 456.943 331.182 451.846 331.182 446.182C331.182 440.613 332.073 435.564 333.856 431.033C335.639 426.502 338.126 422.679 341.316 419.564C344.6 416.355 348.494 413.901 352.999 412.202C357.503 410.503 362.523 409.654 368.059 409.654C373.595 409.654 378.615 410.55 383.119 412.344C387.624 414.043 391.471 416.497 394.661 419.706C397.945 422.821 400.479 426.644 402.262 431.174C404.045 435.705 404.936 440.708 404.936 446.182ZM355.673 446.182C355.673 451.94 356.752 456.377 358.91 459.491C361.162 462.512 364.259 464.022 368.2 464.022C372.141 464.022 375.144 462.465 377.208 459.35C379.366 456.235 380.445 451.846 380.445 446.182C380.445 440.519 379.366 436.177 377.208 433.157C375.05 430.042 372 428.484 368.059 428.484C364.118 428.484 361.068 430.042 358.91 433.157C356.752 436.177 355.673 440.519 355.673 446.182Z" fill="white"/>
<path d="M440.538 480.446C439.599 480.729 438.098 481.012 436.034 481.295C434.063 481.579 431.999 481.72 429.84 481.72C427.776 481.72 425.899 481.579 424.21 481.295C422.615 481.012 421.255 480.446 420.129 479.596C419.003 478.747 418.111 477.614 417.454 476.198C416.891 474.688 416.61 472.753 416.61 470.393V427.918C416.61 425.747 416.985 423.906 417.736 422.396C418.58 420.792 419.753 419.376 421.255 418.149C422.756 416.922 424.586 415.836 426.744 414.892C428.996 413.854 431.389 412.957 433.922 412.202C436.456 411.447 439.083 410.881 441.804 410.503C444.526 410.031 447.247 409.795 449.968 409.795C454.472 409.795 458.038 410.692 460.665 412.485C463.293 414.184 464.606 417.016 464.606 420.98C464.606 422.302 464.419 423.623 464.043 424.945C463.668 426.172 463.199 427.304 462.636 428.343C460.665 428.343 458.648 428.437 456.583 428.626C454.519 428.815 452.502 429.098 450.531 429.475C448.561 429.853 446.684 430.278 444.901 430.75C443.212 431.127 441.758 431.599 440.538 432.166V480.446Z" fill="white"/>
<path d="M542.664 446.182C542.664 452.035 541.773 457.273 539.99 461.898C538.207 466.429 535.674 470.252 532.39 473.367C529.199 476.482 525.352 478.841 520.848 480.446C516.344 482.051 511.324 482.853 505.787 482.853C500.251 482.853 495.231 482.003 490.727 480.304C486.223 478.605 482.329 476.198 479.044 473.084C475.854 469.874 473.367 466.004 471.585 461.474C469.802 456.943 468.91 451.846 468.91 446.182C468.91 440.613 469.802 435.564 471.585 431.033C473.367 426.502 475.854 422.679 479.044 419.564C482.329 416.355 486.223 413.901 490.727 412.202C495.231 410.503 500.251 409.654 505.787 409.654C511.324 409.654 516.344 410.55 520.848 412.344C525.352 414.043 529.199 416.497 532.39 419.706C535.674 422.821 538.207 426.644 539.99 431.174C541.773 435.705 542.664 440.708 542.664 446.182ZM493.401 446.182C493.401 451.94 494.48 456.377 496.638 459.491C498.891 462.512 501.987 464.022 505.928 464.022C509.869 464.022 512.872 462.465 514.936 459.35C517.094 456.235 518.174 451.846 518.174 446.182C518.174 440.519 517.094 436.177 514.936 433.157C512.778 430.042 509.728 428.484 505.787 428.484C501.846 428.484 498.797 430.042 496.638 433.157C494.48 436.177 493.401 440.519 493.401 446.182Z" fill="white"/>
<path d="M621.195 468.128C620.726 472.564 619.413 475.962 617.254 478.322C615.19 480.682 612.14 481.862 608.106 481.862C605.103 481.862 602.429 481.154 600.083 479.738C597.737 478.228 595.203 475.726 592.482 472.234L578.548 454.678V480.446C577.515 480.635 575.967 480.871 573.903 481.154C571.932 481.531 569.915 481.72 567.85 481.72C565.786 481.72 563.909 481.579 562.22 481.295C560.625 481.012 559.264 480.446 558.138 479.596C557.012 478.747 556.121 477.614 555.464 476.198C554.901 474.688 554.62 472.753 554.62 470.393V388.416C555.652 388.133 557.153 387.85 559.124 387.566C561.188 387.189 563.252 387 565.317 387C567.381 387 569.211 387.142 570.806 387.425C572.495 387.708 573.903 388.274 575.029 389.124C576.155 389.973 576.999 391.153 577.562 392.663C578.219 394.079 578.548 395.967 578.548 398.327V435.705L602.757 410.786C607.636 410.786 611.531 411.872 614.439 414.043C617.442 416.214 618.943 418.951 618.943 422.255C618.943 423.67 618.709 424.992 618.24 426.219C617.771 427.352 617.02 428.532 615.988 429.759C615.049 430.986 613.783 432.307 612.187 433.723C610.686 435.044 608.903 436.602 606.839 438.395L598.675 445.475L621.195 468.128Z" fill="white"/>
<path d="M187.559 516.999V526.425H184.559V517.504H182.249V539.249H184.559V528.443H187.559V540.444H189.896V516.999H187.559ZM171.071 534.443H172.611C175.08 534.443 177.762 534.337 180.921 533.753L180.656 531.629C178.001 532.133 175.638 532.293 173.514 532.346V519.787H171.071V534.443ZM209.795 531.735C204.804 531.735 201.618 533.381 201.618 536.089C201.618 538.798 204.804 540.391 209.795 540.391C214.813 540.391 218 538.798 218 536.089C218 533.381 214.813 531.735 209.795 531.735ZM199.334 529.77H220.442V527.806H210.22V523.398H207.804V527.806H199.334V529.77ZM201.803 520.106H215.398V520.132C215.398 521.938 215.398 523.69 214.76 526.08L217.176 526.345C217.814 523.929 217.814 522.017 217.814 520.132V518.168H201.803V520.106ZM204.06 536.089C204.06 534.523 206.264 533.647 209.795 533.647C213.353 533.647 215.583 534.523 215.583 536.089C215.583 537.603 213.353 538.532 209.795 538.532C206.264 538.532 204.06 537.603 204.06 536.089ZM238.312 517.026V534.045H240.754V526H244.1V523.982H240.754V517.026H238.312ZM222.487 529.531L223.523 531.496C230.293 529.372 234.435 524.965 234.435 518.805H223.47V520.796H231.807C231.382 524.699 227.93 527.859 222.487 529.531ZM226.019 539.966H241.737V537.948H228.461V532.319H226.019V539.966ZM263.35 516.999V540.444H265.713V516.999H263.35ZM246.012 527.115C246.012 532.213 247.977 535.399 251.004 535.399C253.871 535.399 255.783 532.585 255.995 528.018H258.703V539.302H260.987V517.504H258.703V526H255.995C255.73 521.593 253.818 518.884 251.004 518.884C247.977 518.884 246.012 522.044 246.012 527.115ZM248.242 527.115C248.242 523.398 249.304 521.194 251.004 521.194C252.729 521.194 253.791 523.398 253.791 527.115C253.791 530.886 252.729 533.089 251.004 533.089C249.304 533.089 248.242 530.886 248.242 527.115ZM290.843 516.999V530.832H293.312V524.938H296.631V522.867H293.312V516.999H290.843ZM274.859 528.629L275.151 530.381C279.214 530.381 284.763 530.354 289.728 529.478L289.569 527.938C287.604 528.204 285.506 528.363 283.409 528.469V527.221C286.037 526.956 287.683 525.867 287.683 524.168C287.683 522.256 285.533 521.088 282.187 521.088C278.815 521.088 276.665 522.256 276.665 524.168C276.665 525.867 278.311 526.956 280.966 527.221V528.576C278.762 528.629 276.665 528.629 274.859 528.629ZM275.47 520.424H288.878V518.725H283.409V516.787H280.966V518.725H275.47V520.424ZM277.992 533.514H290.896V535.134H278.045V540.231H294.188V538.506H280.435V536.7H293.312V531.841H277.992V533.514ZM278.975 524.168C278.975 523.212 280.17 522.681 282.187 522.681C284.152 522.681 285.374 523.212 285.374 524.168C285.374 525.097 284.152 525.708 282.187 525.708C280.17 525.708 278.975 525.097 278.975 524.168ZM315.138 516.999V540.444H317.58V516.999H315.138ZM298.517 534.231L299.818 536.169C307.757 532.293 310.677 526.372 310.677 519.495H299.632V521.486H308.208C307.73 526.983 304.703 531.231 298.517 534.231ZM321.458 527.832V529.638H342.672V527.832H321.458ZM323.953 533.089H337.654V534.842H324.006V540.152H340.76V538.453H326.396V536.488H340.043V531.363H323.953V533.089ZM324.139 519.336H337.574V521.035H324.166V526.239H340.415V524.487H326.582V522.681H339.99V517.637H324.139V519.336ZM351.978 519.177V534.735H353.757C358.164 534.735 361.005 534.576 364.324 533.965L364.085 531.948C361.031 532.558 358.376 532.691 354.394 532.691V521.194H362.598V519.177H351.978ZM361.297 527.407H367.722V540.497H370.165V516.999H367.722V525.416H361.297V527.407ZM373.989 520.902V522.894H385.485V520.902H380.972V517.69H378.556V520.902H373.989ZM374.706 529.691C374.706 532.93 376.83 535.107 379.75 535.107C382.698 535.107 384.822 532.93 384.822 529.691C384.822 526.558 382.698 524.327 379.75 524.327C376.83 524.327 374.706 526.558 374.706 529.691ZM376.883 529.691C376.883 527.752 378.078 526.398 379.75 526.398C381.423 526.398 382.618 527.752 382.618 529.691C382.618 531.735 381.423 533.089 379.75 533.089C378.078 533.089 376.883 531.735 376.883 529.691ZM386.574 539.329H388.884V528.788H391.592V540.444H393.902V516.999H391.592V526.797H388.884V517.53H386.574V539.329ZM403.314 526.69V528.629H412.66V530.726H405.837V532.558H419.404V534.523H405.916V540.205H422.484V538.346H408.306V536.275H421.82V530.726H415.076V528.629H424.502V526.69H403.314ZM404.403 523.77L405.173 525.655C409.182 525.283 412.501 523.85 413.908 521.619C415.315 523.85 418.661 525.283 422.617 525.655L423.413 523.77C419.192 523.451 415.846 521.779 415.368 519.708H422.59V517.769H405.252V519.708H412.421C411.943 521.779 408.624 523.451 404.403 523.77ZM429.945 536.196H427.476L426.6 541.665H428.326L429.945 536.196ZM455.399 516.84V534.337H458.691V526.319H461.877V523.584H458.691V516.84H455.399ZM440.69 530.593H452.107V518.513H448.814V521.991H443.956V518.513H440.69V530.593ZM443.398 540.205H459.541V537.55H446.69V532.611H443.398V540.205ZM443.956 527.991V524.513H448.814V527.991H443.956ZM479.827 516.787V521.911H475.817V524.54H479.827V528.39H475.738V531.045H479.827V540.683H483.092V516.787H479.827ZM464.002 521.46H471.357V525.389H464.055V535.373H465.914C469.551 535.373 472.578 535.293 476.109 534.735L475.817 532.054C472.844 532.479 470.268 532.611 467.321 532.638V527.991H474.596V518.831H464.002V521.46ZM498.213 517.929V520.212C498.213 523.265 496.434 526.372 492.504 527.646L494.097 530.275C496.912 529.372 498.85 527.46 499.912 525.097C500.974 527.275 502.833 528.974 505.514 529.823L507.134 527.275C503.284 526.08 501.558 523.212 501.558 520.212V517.929H498.213ZM496.142 534.709H508.993V540.656H512.311V532.08H496.142V534.709ZM508.993 531.045H512.311V516.84H508.993V531.045ZM515.711 526.319V528.921H524.844V530.487H518.206V532.93H531.376V534.231H518.259V540.47H535.252V537.975H521.499V536.541H534.641V530.487H528.11V528.921H537.27V526.319H515.711ZM518.392 524.965H534.535V517.53H518.392V524.965ZM521.631 522.442V520.079H531.269V522.442H521.631ZM546.124 518.566V521.194H555.046C555.019 522.628 554.939 524.381 554.541 526.664L557.754 527.036C558.311 524.062 558.311 521.672 558.311 520.053V518.566H546.124ZM544.744 528.788L545.062 531.417C549.125 531.39 554.674 531.284 559.612 530.408L559.373 528.045C557.17 528.363 554.753 528.549 552.39 528.655V524.115H549.151V528.761C547.558 528.788 546.071 528.788 544.744 528.788ZM548.222 540.205H564.763V537.55H551.541V533.089H548.222V540.205ZM560.701 534.629H564.02V526.85H566.914V524.142H564.02V516.814H560.701V534.629ZM584.757 516.787V540.683H588.049V516.787H584.757ZM569.543 521.486H577.375V525.389H569.596V535.107H571.667C575.968 535.107 579.5 534.974 583.376 534.257L583.057 531.629C579.632 532.213 576.552 532.372 572.915 532.399V527.991H580.747V518.831H569.543V521.486ZM603.143 518.115C599.983 518.115 597.7 520.398 597.7 523.611C597.7 526.876 599.983 529.133 603.143 529.133C606.303 529.133 608.586 526.876 608.586 523.611C608.586 520.398 606.303 518.115 603.143 518.115ZM600.674 523.611C600.674 521.832 601.683 520.796 603.143 520.796C604.577 520.796 605.612 521.832 605.612 523.611C605.612 525.443 604.577 526.478 603.143 526.478C601.683 526.478 600.674 525.443 600.674 523.611ZM601.789 540.364H617.852V530.779H614.64V532.983H605.028V530.779H601.789V540.364ZM605.028 537.709V535.558H614.64V537.709H605.028ZM609.701 529.611H612.754V524.513H614.719V529.77H617.852V516.84H614.719V521.858H612.754V517.291H609.701V529.611Z" fill="white"/>
</g>
<defs>
<filter id="filter0_d_2317_45101" x="138.558" y="848.303" width="340.504" height="379.472" filterUnits="userSpaceOnUse" color-interpolation-filters="sRGB">
<feFlood flood-opacity="0" result="BackgroundImageFix"/>
<feColorMatrix in="SourceAlpha" type="matrix" values="0 0 0 0 0 0 0 0 0 0 0 0 0 0 0 0 0 0 127 0" result="hardAlpha"/>
<feOffset dx="20" dy="50"/>
<feGaussianBlur stdDeviation="25"/>
<feComposite in2="hardAlpha" operator="out"/>
<feColorMatrix type="matrix" values="0 0 0 0 0.0957118 0 0 0 0 0.620833 0 0 0 0 0.296213 0 0 0 0.48 0"/>
<feBlend mode="normal" in2="BackgroundImageFix" result="effect1_dropShadow_2317_45101"/>
<feBlend mode="normal" in="SourceGraphic" in2="effect1_dropShadow_2317_45101" result="shape"/>
</filter>
<filter id="filter1_d_2317_45101" x="-158" y="783" width="468.908" height="458.431" filterUnits="userSpaceOnUse" color-interpolation-filters="sRGB">
<feFlood flood-opacity="0" result="BackgroundImageFix"/>
<feColorMatrix in="SourceAlpha" type="matrix" values="0 0 0 0 0 0 0 0 0 0 0 0 0 0 0 0 0 0 127 0" result="hardAlpha"/>
<feOffset dx="20" dy="50"/>
<feGaussianBlur stdDeviation="25"/>
<feComposite in2="hardAlpha" operator="out"/>
<feColorMatrix type="matrix" values="0 0 0 0 0.0957118 0 0 0 0 0.620833 0 0 0 0 0.296213 0 0 0 0.48 0"/>
<feBlend mode="normal" in2="BackgroundImageFix" result="effect1_dropShadow_2317_45101"/>
<feBlend mode="normal" in="SourceGraphic" in2="effect1_dropShadow_2317_45101" result="shape"/>
</filter>
<filter id="filter2_d_2317_45101" x="1796.83" y="94.9087" width="260.335" height="277.991" filterUnits="userSpaceOnUse" color-interpolation-filters="sRGB">
<feFlood flood-opacity="0" result="BackgroundImageFix"/>
<feColorMatrix in="SourceAlpha" type="matrix" values="0 0 0 0 0 0 0 0 0 0 0 0 0 0 0 0 0 0 127 0" result="hardAlpha"/>
<feOffset dx="20" dy="50"/>
<feGaussianBlur stdDeviation="25"/>
<feComposite in2="hardAlpha" operator="out"/>
<feColorMatrix type="matrix" values="0 0 0 0 0.0957118 0 0 0 0 0.620833 0 0 0 0 0.296213 0 0 0 0.48 0"/>
<feBlend mode="normal" in2="BackgroundImageFix" result="effect1_dropShadow_2317_45101"/>
<feBlend mode="normal" in="SourceGraphic" in2="effect1_dropShadow_2317_45101" result="shape"/>
</filter>
<filter id="filter3_d_2317_45101" x="1702.57" y="205.24" width="409.306" height="291.071" filterUnits="userSpaceOnUse" color-interpolation-filters="sRGB">
<feFlood flood-opacity="0" result="BackgroundImageFix"/>
<feColorMatrix in="SourceAlpha" type="matrix" values="0 0 0 0 0 0 0 0 0 0 0 0 0 0 0 0 0 0 127 0" result="hardAlpha"/>
<feOffset dx="20" dy="50"/>
<feGaussianBlur stdDeviation="25"/>
<feComposite in2="hardAlpha" operator="out"/>
<feColorMatrix type="matrix" values="0 0 0 0 0.0957118 0 0 0 0 0.620833 0 0 0 0 0.296213 0 0 0 0.48 0"/>
<feBlend mode="normal" in2="BackgroundImageFix" result="effect1_dropShadow_2317_45101"/>
<feBlend mode="normal" in="SourceGraphic" in2="effect1_dropShadow_2317_45101" result="shape"/>
</filter>
<linearGradient id="paint0_linear_2317_45101" x1="960" y1="0" x2="960" y2="1080" gradientUnits="userSpaceOnUse">
<stop offset="0.4375" stop-color="#42BE65"/>
<stop offset="1" stop-color="#0AAF42"/>
</linearGradient>
<linearGradient id="paint1_linear_2317_45101" x1="69.1195" y1="769.465" x2="69.1195" y2="1141.62" gradientUnits="userSpaceOnUse">
<stop stop-color="white"/>
<stop offset="1" stop-color="#C8F6D4"/>
</linearGradient>
<linearGradient id="paint2_linear_2317_45101" x1="1802.6" y1="214.876" x2="1982.63" y2="371.848" gradientUnits="userSpaceOnUse">
<stop stop-color="white"/>
<stop offset="1" stop-color="#C8F6D4"/>
</linearGradient>
<clipPath id="clip0_2317_45101">
<rect width="1920" height="1080" fill="white"/>
</clipPath>
</defs>
</svg>
