<svg width="1280" height="720" viewBox="0 0 1280 720" fill="none" xmlns="http://www.w3.org/2000/svg">
<g clip-path="url(#clip0_2317_45124)">
<rect width="1280" height="720" fill="url(#paint0_linear_2317_45124)"/>
<g filter="url(#filter0_d_2317_45124)">
<path fill-rule="evenodd" clip-rule="evenodd" d="M241.756 566.404C234.119 565.986 225.87 565.535 215.352 565.535C189.49 565.535 157.422 574.845 138.179 596.319C122.062 615.733 112.372 640.674 112.372 667.878C112.372 701.303 127.001 731.312 150.206 751.85C221.38 728.187 272.708 661.055 272.708 581.935C272.708 576.837 272.495 571.789 272.077 566.799C260.579 567.434 251.685 566.948 241.756 566.404Z" fill="#A7F0BA"/>
</g>
<g filter="url(#filter1_d_2317_45124)">
<path fill-rule="evenodd" clip-rule="evenodd" d="M-5.62171 533.961C11.408 536.096 27.1124 538.064 35.6738 539.867C67.5888 546.586 90.9221 557.538 110.233 574.091C127.345 588.758 134.868 599.343 142.013 614.426C147.286 625.559 150.991 634.842 153.717 642.647C158.203 658.323 160.605 674.879 160.605 691.996C160.605 712.966 157 733.093 150.375 751.792C132.56 757.735 113.499 760.954 93.6857 760.954C-5.18385 760.954 -85.3335 680.804 -85.3335 581.935C-85.3335 560.965 -81.7281 540.838 -75.1034 522.138C-74.9645 522.092 -74.8256 522.046 -74.6866 522C-65.6092 526.442 -33.8011 530.429 -5.62171 533.961Z" fill="url(#paint1_linear_2317_45124)"/>
</g>
<path d="M151.077 257.524C145.16 257.524 140.626 259.34 137.475 262.974C134.324 266.607 132.749 271.747 132.749 278.395C132.749 285.121 134.478 290.3 137.936 293.933C141.471 297.566 146.197 299.383 152.114 299.383C155.265 299.383 157.916 298.958 160.068 298.107C162.297 297.257 164.41 296.291 166.408 295.208C167.715 296.291 168.714 297.605 169.405 299.151C170.174 300.62 170.558 302.359 170.558 304.369C170.558 307.538 168.79 310.244 165.255 312.486C161.797 314.65 156.495 315.732 149.348 315.732C144.199 315.732 139.358 314.998 134.824 313.529C130.29 312.06 126.332 309.819 122.951 306.804C119.569 303.712 116.88 299.847 114.882 295.208C112.961 290.493 112 284.889 112 278.395C112 272.366 112.922 267.071 114.767 262.51C116.688 257.872 119.262 253.968 122.49 250.798C125.794 247.629 129.637 245.233 134.017 243.609C138.397 241.986 143.085 241.174 148.08 241.174C155.15 241.174 160.606 242.334 164.449 244.653C168.368 246.972 170.327 249.948 170.327 253.581C170.327 255.591 169.828 257.33 168.829 258.799C167.83 260.268 166.677 261.427 165.371 262.278C163.373 260.964 161.221 259.843 158.915 258.915C156.687 257.988 154.074 257.524 151.077 257.524Z" fill="white"/>
<path d="M235.143 313.529C234.375 313.761 233.145 313.993 231.455 314.225C229.841 314.457 228.15 314.573 226.383 314.573C224.692 314.573 223.155 314.457 221.772 314.225C220.465 313.993 219.351 313.529 218.429 312.833C217.507 312.138 216.777 311.21 216.239 310.051C215.778 308.814 215.547 307.229 215.547 305.296V279.555C215.547 276.385 214.74 274.182 213.126 272.945C211.589 271.631 209.668 270.974 207.363 270.974C205.826 270.974 204.366 271.168 202.983 271.554C201.599 271.941 200.485 272.404 199.64 272.945V313.529C198.871 313.761 197.642 313.993 195.951 314.225C194.337 314.457 192.646 314.573 190.879 314.573C189.188 314.573 187.651 314.457 186.268 314.225C184.962 313.993 183.847 313.529 182.925 312.833C182.003 312.138 181.273 311.21 180.735 310.051C180.274 308.814 180.043 307.229 180.043 305.296V238.044C180.889 237.889 182.118 237.696 183.732 237.464C185.423 237.155 187.113 237 188.804 237C190.495 237 191.993 237.116 193.3 237.348C194.683 237.58 195.836 238.044 196.758 238.739C197.68 239.435 198.372 240.401 198.833 241.638C199.371 242.798 199.64 244.344 199.64 246.276V257.64C200.639 257.253 202.137 256.828 204.135 256.364C206.21 255.823 208.477 255.553 210.936 255.553C218.544 255.553 224.461 257.485 228.688 261.35C232.992 265.138 235.143 270.82 235.143 278.395V313.529Z" fill="white"/>
<path d="M305.224 285.468C305.224 290.261 304.494 294.551 303.034 298.339C301.574 302.05 299.499 305.18 296.809 307.731C294.196 310.282 291.045 312.215 287.357 313.529C283.668 314.843 279.557 315.5 275.023 315.5C270.489 315.5 266.377 314.805 262.689 313.413C259 312.022 255.811 310.051 253.121 307.5C250.508 304.871 248.472 301.702 247.012 297.991C245.552 294.281 244.822 290.107 244.822 285.468C244.822 280.908 245.552 276.772 247.012 273.061C248.472 269.351 250.508 266.22 253.121 263.669C255.811 261.041 259 259.031 262.689 257.64C266.377 256.248 270.489 255.553 275.023 255.553C279.557 255.553 283.668 256.287 287.357 257.756C291.045 259.147 294.196 261.157 296.809 263.785C299.499 266.336 301.574 269.467 303.034 273.177C304.494 276.888 305.224 280.985 305.224 285.468ZM264.879 285.468C264.879 290.184 265.763 293.817 267.53 296.368C269.374 298.842 271.91 300.079 275.138 300.079C278.366 300.079 280.825 298.803 282.515 296.252C284.283 293.701 285.167 290.107 285.167 285.468C285.167 280.83 284.283 277.274 282.515 274.801C280.748 272.25 278.25 270.974 275.023 270.974C271.795 270.974 269.298 272.25 267.53 274.801C265.763 277.274 264.879 280.83 264.879 285.468Z" fill="white"/>
<path d="M334.38 313.529C333.612 313.761 332.382 313.993 330.692 314.225C329.078 314.457 327.387 314.573 325.62 314.573C323.929 314.573 322.392 314.457 321.009 314.225C319.702 313.993 318.588 313.529 317.666 312.833C316.744 312.138 316.014 311.21 315.476 310.051C315.015 308.814 314.784 307.229 314.784 305.296V270.51C314.784 268.733 315.091 267.225 315.706 265.988C316.398 264.674 317.359 263.515 318.588 262.51C319.818 261.505 321.316 260.616 323.084 259.843C324.928 258.992 326.888 258.258 328.962 257.64C331.037 257.021 333.189 256.557 335.418 256.248C337.646 255.862 339.875 255.668 342.103 255.668C345.792 255.668 348.712 256.403 350.864 257.872C353.016 259.263 354.092 261.582 354.092 264.829C354.092 265.911 353.938 266.993 353.631 268.075C353.323 269.08 352.939 270.008 352.478 270.858C350.864 270.858 349.212 270.936 347.521 271.09C345.831 271.245 344.178 271.477 342.565 271.786C340.951 272.095 339.414 272.443 337.954 272.83C336.57 273.139 335.379 273.525 334.38 273.989V313.529Z" fill="white"/>
<path d="M418.019 285.468C418.019 290.261 417.289 294.551 415.829 298.339C414.368 302.05 412.294 305.18 409.604 307.731C406.991 310.282 403.84 312.215 400.152 313.529C396.463 314.843 392.352 315.5 387.818 315.5C383.284 315.5 379.172 314.805 375.484 313.413C371.795 312.022 368.606 310.051 365.916 307.5C363.303 304.871 361.267 301.702 359.807 297.991C358.347 294.281 357.616 290.107 357.616 285.468C357.616 280.908 358.347 276.772 359.807 273.061C361.267 269.351 363.303 266.22 365.916 263.669C368.606 261.041 371.795 259.031 375.484 257.64C379.172 256.248 383.284 255.553 387.818 255.553C392.352 255.553 396.463 256.287 400.152 257.756C403.84 259.147 406.991 261.157 409.604 263.785C412.294 266.336 414.368 269.467 415.829 273.177C417.289 276.888 418.019 280.985 418.019 285.468ZM377.674 285.468C377.674 290.184 378.557 293.817 380.325 296.368C382.169 298.842 384.705 300.079 387.933 300.079C391.16 300.079 393.62 298.803 395.31 296.252C397.078 293.701 397.962 290.107 397.962 285.468C397.962 280.83 397.078 277.274 395.31 274.801C393.543 272.25 391.045 270.974 387.818 270.974C384.59 270.974 382.092 272.25 380.325 274.801C378.557 277.274 377.674 280.83 377.674 285.468Z" fill="white"/>
<path d="M482.333 303.441C481.949 307.074 480.873 309.857 479.105 311.79C477.415 313.722 474.917 314.689 471.613 314.689C469.154 314.689 466.963 314.109 465.042 312.949C463.121 311.713 461.046 309.664 458.818 306.804L447.406 292.426V313.529C446.56 313.684 445.292 313.877 443.602 314.109C441.988 314.418 440.336 314.573 438.645 314.573C436.954 314.573 435.418 314.457 434.034 314.225C432.728 313.993 431.614 313.529 430.691 312.833C429.769 312.138 429.039 311.21 428.501 310.051C428.04 308.814 427.81 307.229 427.81 305.296V238.16C428.655 237.928 429.884 237.696 431.498 237.464C433.189 237.155 434.88 237 436.57 237C438.261 237 439.759 237.116 441.066 237.348C442.449 237.58 443.602 238.044 444.524 238.739C445.446 239.435 446.138 240.401 446.599 241.638C447.137 242.798 447.406 244.344 447.406 246.276V276.888L467.232 256.48C471.229 256.48 474.418 257.369 476.8 259.147C479.259 260.925 480.489 263.167 480.489 265.872C480.489 267.032 480.297 268.114 479.912 269.119C479.528 270.047 478.913 271.013 478.068 272.018C477.299 273.023 476.262 274.105 474.956 275.265C473.726 276.347 472.266 277.622 470.575 279.091L463.89 284.889L482.333 303.441Z" fill="white"/>
<path d="M129.352 335.381V354.886H126.786V345.123H124.938V353.951H122.416V335.751H124.938V342.948H126.786V335.381H129.352ZM113.457 337.578H116.153V347.776C118.023 347.718 119.741 347.537 121.307 347.232L121.568 349.537C119.567 349.914 117.313 350.102 114.805 350.102H113.457V337.578ZM145.388 347.537C146.794 347.537 148.012 347.689 149.041 347.993C150.085 348.283 150.89 348.711 151.455 349.276C152.02 349.827 152.303 350.479 152.303 351.233C152.303 351.972 152.02 352.617 151.455 353.168C150.89 353.719 150.085 354.14 149.041 354.429C147.998 354.734 146.78 354.886 145.388 354.886C144.011 354.886 142.801 354.734 141.757 354.429C140.728 354.14 139.93 353.719 139.365 353.168C138.8 352.617 138.517 351.972 138.517 351.233C138.517 350.479 138.8 349.827 139.365 349.276C139.93 348.711 140.728 348.283 141.757 347.993C142.786 347.689 143.997 347.537 145.388 347.537ZM136.734 344.123H143.301V340.709H145.997V344.123H154.282V346.275H136.734V344.123ZM138.713 336.273H152.172V337.882C152.172 338.926 152.143 339.832 152.085 340.6C152.028 341.354 151.883 342.18 151.651 343.079L148.976 342.818C149.179 342.006 149.317 341.267 149.389 340.6C149.462 339.919 149.498 339.187 149.498 338.404H138.713V336.273ZM141.213 351.233C141.213 351.755 141.568 352.154 142.279 352.429C143.004 352.704 144.04 352.842 145.388 352.842C146.736 352.842 147.78 352.704 148.519 352.429C149.259 352.154 149.628 351.755 149.628 351.233C149.628 350.682 149.259 350.269 148.519 349.994C147.795 349.718 146.751 349.58 145.388 349.58C144.04 349.58 143.004 349.718 142.279 349.994C141.568 350.269 141.213 350.682 141.213 351.233ZM171.004 335.403V340.883H173.613V343.101H171.004V349.385H168.307V335.403H171.004ZM155.565 345.34C157.711 344.731 159.399 343.876 160.632 342.775C161.878 341.673 162.603 340.419 162.806 339.013H156.413V336.86H165.741C165.741 339.484 164.959 341.695 163.393 343.492C161.842 345.29 159.61 346.616 156.696 347.471L155.565 345.34ZM158.457 347.95H161.153V352.364H171.678V354.538H158.457V347.95ZM191.444 335.381V354.886H188.856V335.381H191.444ZM174.875 343.84C174.875 342.405 175.049 341.158 175.396 340.1C175.744 339.027 176.23 338.208 176.853 337.643C177.491 337.077 178.238 336.795 179.093 336.795C180.267 336.795 181.217 337.309 181.941 338.339C182.681 339.368 183.123 340.796 183.268 342.622H184.92V335.708H187.443V353.995H184.92V344.797H183.29C183.188 346.71 182.761 348.211 182.007 349.298C181.267 350.371 180.296 350.907 179.093 350.907C178.238 350.907 177.491 350.624 176.853 350.059C176.23 349.494 175.744 348.682 175.396 347.623C175.049 346.551 174.875 345.29 174.875 343.84ZM177.332 343.84C177.332 345.319 177.484 346.442 177.788 347.21C178.093 347.964 178.528 348.341 179.093 348.341C179.658 348.341 180.093 347.964 180.398 347.21C180.702 346.442 180.854 345.319 180.854 343.84C180.854 342.361 180.702 341.245 180.398 340.491C180.093 339.723 179.658 339.339 179.093 339.339C178.528 339.339 178.093 339.723 177.788 340.491C177.484 341.245 177.332 342.361 177.332 343.84ZM214.134 335.381V340.013H216.634V342.253H214.134V346.862H211.437V335.381H214.134ZM198.5 344.818C200.515 344.818 202.08 344.804 203.196 344.775V343.862C202.138 343.731 201.305 343.449 200.696 343.014C200.101 342.579 199.804 342.035 199.804 341.383C199.804 340.586 200.232 339.962 201.087 339.513C201.942 339.049 203.095 338.817 204.545 338.817C205.994 338.817 207.139 339.049 207.98 339.513C208.835 339.962 209.263 340.586 209.263 341.383C209.263 342.035 208.966 342.579 208.372 343.014C207.777 343.449 206.951 343.731 205.893 343.862V344.688C207.632 344.587 209.191 344.449 210.568 344.275L210.742 345.927C208.93 346.232 207.052 346.435 205.11 346.536C203.167 346.623 201.058 346.667 198.782 346.667L198.5 344.818ZM199 336.643H203.196V335.207H205.893V336.643H210.068V338.447H199V336.643ZM201.087 347.58H214.134V351.951H203.762V352.951H214.83V354.756H201.109V350.276H211.481V349.385H201.087V347.58ZM202.37 341.383C202.37 341.673 202.559 341.897 202.935 342.057C203.312 342.216 203.849 342.296 204.545 342.296C205.226 342.296 205.755 342.216 206.132 342.057C206.509 341.897 206.697 341.673 206.697 341.383C206.697 340.803 205.98 340.513 204.545 340.513C203.095 340.513 202.37 340.803 202.37 341.383ZM233.965 335.381V354.886H231.269V335.381H233.965ZM217.831 349.428C220.281 348.254 222.1 346.87 223.289 345.275C224.492 343.681 225.202 341.782 225.42 339.578H218.831V337.404H228.181C228.181 340.593 227.507 343.354 226.159 345.688C224.811 348.022 222.506 349.979 219.244 351.559L217.831 349.428ZM254.384 344.166V346.123H236.727V344.166H254.384ZM238.728 347.189H252.274V351.733H241.424V352.907H252.818V354.734H238.749V350.037H249.622V348.993H238.728V347.189ZM238.902 335.751H252.231V340.296H241.598V341.383H252.579V343.209H238.923V338.6H249.556V337.556H238.902V335.751ZM270.485 337.121V339.295H264.375V348.015C265.911 348 267.216 347.957 268.289 347.884C269.376 347.797 270.456 347.652 271.529 347.45L271.79 349.624C270.543 349.856 269.289 350.015 268.028 350.102C266.781 350.175 265.187 350.211 263.244 350.211H261.7V337.121H270.485ZM269.55 342.144H274.377V335.381H277.074V354.93H274.377V344.34H269.55V342.144ZM283.119 338.36V335.925H285.794V338.36H289.099V340.513H279.749V338.36H283.119ZM280.184 346.036C280.184 345.152 280.365 344.362 280.727 343.666C281.104 342.956 281.611 342.405 282.249 342.013C282.902 341.622 283.634 341.426 284.445 341.426C285.272 341.426 286.011 341.622 286.663 342.013C287.316 342.405 287.823 342.956 288.185 343.666C288.548 344.362 288.729 345.152 288.729 346.036C288.729 346.935 288.548 347.739 288.185 348.45C287.823 349.146 287.316 349.689 286.663 350.081C286.011 350.457 285.272 350.646 284.445 350.646C283.634 350.646 282.902 350.45 282.249 350.059C281.611 349.667 281.104 349.124 280.727 348.428C280.365 347.732 280.184 346.935 280.184 346.036ZM282.575 346.036C282.575 346.775 282.749 347.363 283.097 347.797C283.445 348.218 283.895 348.428 284.445 348.428C285.011 348.428 285.46 348.218 285.794 347.797C286.141 347.377 286.315 346.79 286.315 346.036C286.315 345.311 286.141 344.739 285.794 344.318C285.46 343.898 285.011 343.688 284.445 343.688C283.895 343.688 283.445 343.898 283.097 344.318C282.749 344.739 282.575 345.311 282.575 346.036ZM289.816 335.773H292.339V343.34H293.926V335.381H296.47V354.886H293.926V345.514H292.339V354.038H289.816V335.773ZM321.4 343.188V345.297H313.898V346.58H319.247V351.559H308.484V352.733H319.747V354.756H305.831V349.689H316.572V348.558H305.787V346.58H311.223V345.297H303.743V343.188H321.4ZM304.548 340.557C306.258 340.441 307.636 340.151 308.679 339.687C309.738 339.223 310.433 338.672 310.767 338.034H305.374V335.925H319.791V338.034H314.376C314.71 338.672 315.398 339.223 316.442 339.687C317.5 340.151 318.885 340.441 320.595 340.557L319.747 342.601C318.008 342.485 316.522 342.158 315.29 341.622C314.072 341.086 313.166 340.397 312.572 339.556C311.977 340.397 311.064 341.086 309.832 341.622C308.614 342.158 307.135 342.485 305.396 342.601L304.548 340.557ZM324.705 356.321H322.792L323.662 350.929H326.336L324.705 356.321ZM349.694 335.403V340.926H352.303V343.166H349.694V349.733H346.997V335.403H349.694ZM334.951 336.773H337.625V339.622H341.605V336.773H344.301V346.667H334.951V336.773ZM337.169 348.319H339.865V352.364H350.389V354.538H337.169V348.319ZM341.605 344.536V341.687H337.625V344.536H341.605ZM369.677 335.36V354.93H367.002V347.036H363.654V344.862H367.002V341.709H363.719V339.556H367.002V335.36H369.677ZM354.043 337.034H362.719V344.536H356.761V348.341C359.327 348.312 361.646 348.153 363.719 347.863L363.958 350.059C362.625 350.276 361.32 350.421 360.044 350.494C358.783 350.552 357.305 350.581 355.608 350.581H354.086V342.405H360.066V339.187H354.043V337.034ZM384.8 336.295V338.165C384.8 339.469 385.184 340.644 385.953 341.687C386.721 342.731 387.859 343.485 389.366 343.949L388.04 346.036C386.967 345.703 386.047 345.203 385.278 344.536C384.51 343.869 383.901 343.079 383.452 342.166C383.003 343.166 382.372 344.036 381.56 344.775C380.763 345.5 379.806 346.043 378.69 346.406L377.385 344.253C378.922 343.76 380.082 342.956 380.864 341.839C381.662 340.723 382.06 339.498 382.06 338.165V336.295H384.8ZM380.364 347.884H393.607V354.908H390.888V350.037H380.364V347.884ZM390.888 335.403H393.607V347.036H390.888V335.403ZM414.047 343.166V345.297H406.545V346.58H411.894V351.537H401.131V352.712H412.394V354.756H398.478V349.646H409.219V348.58H398.434V346.58H403.87V345.297H396.39V343.166H414.047ZM398.586 335.969H411.807V342.057H398.586V335.969ZM409.132 339.991V338.056H401.239V339.991H409.132ZM431.279 336.817V338.034C431.279 339.02 431.25 339.955 431.192 340.839C431.148 341.709 431.025 342.68 430.822 343.753L428.191 343.449C428.438 342.042 428.575 340.549 428.604 338.969H421.298V336.817H431.279ZM420.168 345.188C421.704 345.188 422.907 345.181 423.777 345.166V341.361H426.43V345.079C428.619 344.978 430.525 344.811 432.149 344.579L432.344 346.515C430.547 346.833 428.67 347.051 426.713 347.167C424.756 347.268 422.661 347.326 420.428 347.341L420.168 345.188ZM423.016 348.711H425.734V352.364H436.563V354.538H423.016V348.711ZM433.236 335.381H435.954V341.383H438.324V343.601H435.954V349.972H433.236V335.381ZM455.633 335.36V354.93H452.937V335.36H455.633ZM440.477 337.034H449.653V344.536H443.239V348.145C444.848 348.131 446.305 348.08 447.609 347.993C448.914 347.906 450.226 347.747 451.545 347.515L451.806 349.667C450.327 349.943 448.849 350.131 447.37 350.233C445.892 350.32 444.174 350.363 442.217 350.363H440.521V342.405H446.892V339.208H440.477V337.034ZM467.995 336.447C468.85 336.447 469.611 336.643 470.278 337.034C470.959 337.411 471.488 337.94 471.865 338.621C472.256 339.303 472.452 340.078 472.452 340.948C472.452 341.832 472.256 342.615 471.865 343.296C471.488 343.978 470.959 344.514 470.278 344.905C469.611 345.282 468.85 345.471 467.995 345.471C467.139 345.471 466.371 345.282 465.69 344.905C465.023 344.514 464.494 343.978 464.102 343.296C463.725 342.615 463.537 341.832 463.537 340.948C463.537 340.078 463.725 339.303 464.102 338.621C464.494 337.94 465.023 337.411 465.69 337.034C466.371 336.643 467.139 336.447 467.995 336.447ZM465.972 340.948C465.972 341.687 466.154 342.267 466.516 342.688C466.893 343.093 467.386 343.296 467.995 343.296C468.589 343.296 469.075 343.093 469.451 342.688C469.828 342.267 470.017 341.687 470.017 340.948C470.017 340.238 469.828 339.68 469.451 339.274C469.075 338.853 468.589 338.643 467.995 338.643C467.386 338.643 466.893 338.853 466.516 339.274C466.154 339.68 465.972 340.238 465.972 340.948ZM466.886 346.819H469.538V348.624H477.41V346.819H480.041V354.669H466.886V346.819ZM477.41 352.494V350.733H469.538V352.494H477.41ZM473.365 335.773H475.866V339.513H477.475V335.403H480.041V345.993H477.475V341.687H475.866V345.862H473.365V335.773Z" fill="white"/>
<g filter="url(#filter2_d_2317_45124)">
<path fill-rule="evenodd" clip-rule="evenodd" d="M1225.65 81.9666C1224.09 86.6207 1222.4 91.6479 1220.61 98.1554C1216.2 114.156 1216.49 135.582 1226.49 151.151C1235.75 164.437 1249.53 174.688 1266.37 179.328C1287.05 185.029 1308.11 181.094 1324.78 170.239C1322.28 122.164 1289.49 78.9562 1240.54 65.4631C1237.38 64.5937 1234.22 63.8646 1231.06 63.2721C1229.49 70.4951 1227.68 75.9155 1225.65 81.9666Z" fill="#A7F0BA"/>
</g>
<g filter="url(#filter3_d_2317_45124)">
<path fill-rule="evenodd" clip-rule="evenodd" d="M1190.07 177.113C1198.29 169.775 1205.87 163.008 1210.35 159.626C1227.06 147.021 1242.2 140.353 1258.36 137.993C1272.67 135.901 1280.96 136.727 1291.27 139.632C1298.88 141.777 1304.94 143.901 1309.86 145.875C1319.34 150.317 1328.36 156.137 1336.64 163.357C1346.78 172.202 1355 182.435 1361.25 193.527C1356.61 204.652 1350.13 215.231 1341.77 224.816C1300.07 272.645 1227.49 277.612 1179.66 235.909C1169.52 227.064 1161.3 216.83 1155.05 205.738C1155.08 205.652 1155.12 205.565 1155.16 205.478C1161.14 202.96 1176.48 189.255 1190.07 177.113Z" fill="url(#paint2_linear_2317_45124)"/>
</g>
</g>
<defs>
<filter id="filter0_d_2317_45124" x="92.3716" y="565.535" width="227.003" height="252.981" filterUnits="userSpaceOnUse" color-interpolation-filters="sRGB">
<feFlood flood-opacity="0" result="BackgroundImageFix"/>
<feColorMatrix in="SourceAlpha" type="matrix" values="0 0 0 0 0 0 0 0 0 0 0 0 0 0 0 0 0 0 127 0" result="hardAlpha"/>
<feOffset dx="13.3333" dy="33.3333"/>
<feGaussianBlur stdDeviation="16.6667"/>
<feComposite in2="hardAlpha" operator="out"/>
<feColorMatrix type="matrix" values="0 0 0 0 0.0957118 0 0 0 0 0.620833 0 0 0 0 0.296213 0 0 0 0.48 0"/>
<feBlend mode="normal" in2="BackgroundImageFix" result="effect1_dropShadow_2317_45124"/>
<feBlend mode="normal" in="SourceGraphic" in2="effect1_dropShadow_2317_45124" result="shape"/>
</filter>
<filter id="filter1_d_2317_45124" x="-105.333" y="522" width="312.605" height="305.621" filterUnits="userSpaceOnUse" color-interpolation-filters="sRGB">
<feFlood flood-opacity="0" result="BackgroundImageFix"/>
<feColorMatrix in="SourceAlpha" type="matrix" values="0 0 0 0 0 0 0 0 0 0 0 0 0 0 0 0 0 0 127 0" result="hardAlpha"/>
<feOffset dx="13.3333" dy="33.3333"/>
<feGaussianBlur stdDeviation="16.6667"/>
<feComposite in2="hardAlpha" operator="out"/>
<feColorMatrix type="matrix" values="0 0 0 0 0.0957118 0 0 0 0 0.620833 0 0 0 0 0.296213 0 0 0 0.48 0"/>
<feBlend mode="normal" in2="BackgroundImageFix" result="effect1_dropShadow_2317_45124"/>
<feBlend mode="normal" in="SourceGraphic" in2="effect1_dropShadow_2317_45124" result="shape"/>
</filter>
<filter id="filter2_d_2317_45124" x="1197.89" y="63.272" width="173.557" height="185.327" filterUnits="userSpaceOnUse" color-interpolation-filters="sRGB">
<feFlood flood-opacity="0" result="BackgroundImageFix"/>
<feColorMatrix in="SourceAlpha" type="matrix" values="0 0 0 0 0 0 0 0 0 0 0 0 0 0 0 0 0 0 127 0" result="hardAlpha"/>
<feOffset dx="13.3333" dy="33.3333"/>
<feGaussianBlur stdDeviation="16.6667"/>
<feComposite in2="hardAlpha" operator="out"/>
<feColorMatrix type="matrix" values="0 0 0 0 0.0957118 0 0 0 0 0.620833 0 0 0 0 0.296213 0 0 0 0.48 0"/>
<feBlend mode="normal" in2="BackgroundImageFix" result="effect1_dropShadow_2317_45124"/>
<feBlend mode="normal" in="SourceGraphic" in2="effect1_dropShadow_2317_45124" result="shape"/>
</filter>
<filter id="filter3_d_2317_45124" x="1135.05" y="136.826" width="272.871" height="194.048" filterUnits="userSpaceOnUse" color-interpolation-filters="sRGB">
<feFlood flood-opacity="0" result="BackgroundImageFix"/>
<feColorMatrix in="SourceAlpha" type="matrix" values="0 0 0 0 0 0 0 0 0 0 0 0 0 0 0 0 0 0 127 0" result="hardAlpha"/>
<feOffset dx="13.3333" dy="33.3333"/>
<feGaussianBlur stdDeviation="16.6667"/>
<feComposite in2="hardAlpha" operator="out"/>
<feColorMatrix type="matrix" values="0 0 0 0 0.0957118 0 0 0 0 0.620833 0 0 0 0 0.296213 0 0 0 0.48 0"/>
<feBlend mode="normal" in2="BackgroundImageFix" result="effect1_dropShadow_2317_45124"/>
<feBlend mode="normal" in="SourceGraphic" in2="effect1_dropShadow_2317_45124" result="shape"/>
</filter>
<linearGradient id="paint0_linear_2317_45124" x1="640" y1="0" x2="640" y2="720" gradientUnits="userSpaceOnUse">
<stop offset="0.4375" stop-color="#42BE65"/>
<stop offset="1" stop-color="#0AAF42"/>
</linearGradient>
<linearGradient id="paint1_linear_2317_45124" x1="46.0795" y1="512.977" x2="46.0795" y2="761.078" gradientUnits="userSpaceOnUse">
<stop stop-color="white"/>
<stop offset="1" stop-color="#C8F6D4"/>
</linearGradient>
<linearGradient id="paint2_linear_2317_45124" x1="1201.73" y1="143.25" x2="1321.75" y2="247.899" gradientUnits="userSpaceOnUse">
<stop stop-color="white"/>
<stop offset="1" stop-color="#C8F6D4"/>
</linearGradient>
<clipPath id="clip0_2317_45124">
<rect width="1280" height="720" fill="white"/>
</clipPath>
</defs>
</svg>
