<svg width="768" height="432" viewBox="0 0 768 432" fill="none" xmlns="http://www.w3.org/2000/svg">
<g clip-path="url(#clip0_2317_45147)">
<rect width="768" height="432" fill="url(#paint0_linear_2317_45147)"/>
<g filter="url(#filter0_d_2317_45147)">
<path fill-rule="evenodd" clip-rule="evenodd" d="M144.864 340.4C140.288 340.15 135.345 339.879 129.043 339.879C113.546 339.879 94.3314 345.457 82.8005 358.324C73.1421 369.958 67.335 384.903 67.335 401.205C67.335 421.234 76.1011 439.216 90.006 451.522C132.655 437.343 163.411 397.117 163.411 349.706C163.411 346.651 163.284 343.627 163.033 340.636C156.143 341.017 150.814 340.726 144.864 340.4Z" fill="#A7F0BA"/>
</g>
<g filter="url(#filter1_d_2317_45147)">
<path fill-rule="evenodd" clip-rule="evenodd" d="M-3.36909 320.959C6.8354 322.238 16.2458 323.418 21.376 324.498C40.5 328.524 54.4818 335.087 66.0533 345.006C76.3071 353.795 80.815 360.138 85.0961 369.175C88.2563 375.847 90.4766 381.41 92.1101 386.087C94.7979 395.48 96.2373 405.4 96.2373 415.657C96.2373 428.222 94.0768 440.283 90.1072 451.488C79.432 455.049 68.0102 456.978 56.1379 456.978C-3.10662 456.978 -51.1338 408.95 -51.1338 349.706C-51.1338 337.141 -48.9734 325.08 -45.0037 313.875C-44.9205 313.847 -44.8373 313.82 -44.7541 313.792C-39.3146 316.454 -20.2547 318.843 -3.36909 320.959Z" fill="url(#paint1_linear_2317_45147)"/>
</g>
<path d="M559.781 325.914C556.634 325.914 554.223 326.881 552.548 328.813C550.872 330.745 550.034 333.479 550.034 337.014C550.034 340.59 550.954 343.345 552.793 345.277C554.673 347.209 557.186 348.175 560.333 348.175C562.008 348.175 563.418 347.949 564.563 347.497C565.748 347.045 566.872 346.531 567.934 345.955C568.629 346.531 569.16 347.23 569.528 348.052C569.937 348.833 570.141 349.758 570.141 350.827C570.141 352.512 569.201 353.951 567.321 355.143C565.482 356.294 562.662 356.87 558.862 356.87C556.123 356.87 553.549 356.479 551.138 355.698C548.726 354.917 546.622 353.725 544.824 352.122C543.025 350.477 541.595 348.422 540.533 345.955C539.511 343.448 539 340.467 539 337.014C539 333.807 539.49 330.991 540.471 328.566C541.493 326.099 542.862 324.023 544.578 322.338C546.336 320.653 548.379 319.378 550.709 318.515C553.038 317.652 555.531 317.22 558.187 317.22C561.947 317.22 564.849 317.837 566.892 319.07C568.976 320.303 570.018 321.886 570.018 323.818C570.018 324.887 569.753 325.812 569.221 326.593C568.69 327.374 568.077 327.99 567.382 328.443C566.32 327.744 565.176 327.148 563.95 326.654C562.764 326.161 561.375 325.914 559.781 325.914Z" fill="white"/>
<path d="M604.487 355.698C604.079 355.821 603.425 355.945 602.526 356.068C601.667 356.191 600.768 356.253 599.828 356.253C598.929 356.253 598.112 356.191 597.376 356.068C596.682 355.945 596.089 355.698 595.599 355.328C595.108 354.958 594.72 354.465 594.434 353.848C594.189 353.19 594.066 352.348 594.066 351.32V337.631C594.066 335.945 593.637 334.773 592.779 334.116C591.961 333.417 590.94 333.067 589.714 333.067C588.896 333.067 588.12 333.17 587.384 333.376C586.649 333.581 586.056 333.828 585.607 334.116V355.698C585.198 355.821 584.544 355.945 583.645 356.068C582.787 356.191 581.888 356.253 580.948 356.253C580.049 356.253 579.231 356.191 578.496 356.068C577.801 355.945 577.208 355.698 576.718 355.328C576.228 354.958 575.839 354.465 575.553 353.848C575.308 353.19 575.185 352.348 575.185 351.32V315.555C575.635 315.473 576.289 315.37 577.147 315.247C578.046 315.082 578.945 315 579.844 315C580.743 315 581.54 315.062 582.235 315.185C582.971 315.308 583.584 315.555 584.074 315.925C584.564 316.295 584.932 316.809 585.177 317.467C585.464 318.083 585.607 318.905 585.607 319.933V325.976C586.138 325.771 586.935 325.544 587.997 325.298C589.101 325.01 590.306 324.866 591.614 324.866C595.66 324.866 598.807 325.894 601.054 327.949C603.343 329.964 604.487 332.985 604.487 337.014V355.698Z" fill="white"/>
<path d="M641.756 340.775C641.756 343.324 641.368 345.606 640.591 347.62C639.815 349.593 638.711 351.258 637.281 352.615C635.892 353.971 634.216 354.999 632.254 355.698C630.293 356.397 628.106 356.746 625.695 356.746C623.284 356.746 621.098 356.376 619.136 355.636C617.174 354.896 615.478 353.848 614.048 352.492C612.658 351.094 611.575 349.408 610.799 347.435C610.022 345.462 609.634 343.242 609.634 340.775C609.634 338.35 610.022 336.151 610.799 334.177C611.575 332.204 612.658 330.539 614.048 329.183C615.478 327.785 617.174 326.716 619.136 325.976C621.098 325.236 623.284 324.866 625.695 324.866C628.106 324.866 630.293 325.257 632.254 326.038C634.216 326.778 635.892 327.847 637.281 329.244C638.711 330.601 639.815 332.266 640.591 334.239C641.368 336.212 641.756 338.391 641.756 340.775ZM620.301 340.775C620.301 343.283 620.771 345.215 621.711 346.572C622.691 347.887 624.04 348.545 625.756 348.545C627.473 348.545 628.781 347.867 629.68 346.51C630.62 345.154 631.09 343.242 631.09 340.775C631.09 338.309 630.62 336.418 629.68 335.102C628.74 333.746 627.412 333.067 625.695 333.067C623.979 333.067 622.651 333.746 621.711 335.102C620.771 336.418 620.301 338.309 620.301 340.775Z" fill="white"/>
<path d="M657.261 355.698C656.853 355.821 656.199 355.945 655.3 356.068C654.442 356.191 653.542 356.253 652.603 356.253C651.703 356.253 650.886 356.191 650.15 356.068C649.456 355.945 648.863 355.698 648.373 355.328C647.882 354.958 647.494 354.465 647.208 353.848C646.963 353.19 646.84 352.348 646.84 351.32V332.821C646.84 331.875 647.004 331.074 647.331 330.416C647.698 329.717 648.209 329.1 648.863 328.566C649.517 328.032 650.314 327.559 651.254 327.148C652.235 326.696 653.277 326.305 654.38 325.976C655.484 325.647 656.628 325.401 657.813 325.236C658.998 325.031 660.183 324.928 661.369 324.928C663.33 324.928 664.883 325.318 666.027 326.099C667.172 326.839 667.744 328.073 667.744 329.799C667.744 330.375 667.662 330.95 667.499 331.526C667.335 332.06 667.131 332.554 666.886 333.006C666.027 333.006 665.149 333.047 664.25 333.129C663.351 333.211 662.472 333.335 661.614 333.499C660.756 333.664 659.938 333.849 659.162 334.054C658.426 334.219 657.793 334.424 657.261 334.671V355.698Z" fill="white"/>
<path d="M701.74 340.775C701.74 343.324 701.352 345.606 700.575 347.62C699.799 349.593 698.696 351.258 697.265 352.615C695.876 353.971 694.2 354.999 692.238 355.698C690.277 356.397 688.09 356.746 685.679 356.746C683.268 356.746 681.082 356.376 679.12 355.636C677.158 354.896 675.462 353.848 674.032 352.492C672.643 351.094 671.56 349.408 670.783 347.435C670.007 345.462 669.618 343.242 669.618 340.775C669.618 338.35 670.007 336.151 670.783 334.177C671.56 332.204 672.643 330.539 674.032 329.183C675.462 327.785 677.158 326.716 679.12 325.976C681.082 325.236 683.268 324.866 685.679 324.866C688.09 324.866 690.277 325.257 692.238 326.038C694.2 326.778 695.876 327.847 697.265 329.244C698.696 330.601 699.799 332.266 700.575 334.239C701.352 336.212 701.74 338.391 701.74 340.775ZM680.285 340.775C680.285 343.283 680.755 345.215 681.695 346.572C682.676 347.887 684.024 348.545 685.741 348.545C687.457 348.545 688.765 347.867 689.664 346.51C690.604 345.154 691.074 343.242 691.074 340.775C691.074 338.309 690.604 336.418 689.664 335.102C688.724 333.746 687.396 333.067 685.679 333.067C683.963 333.067 682.635 333.746 681.695 335.102C680.755 336.418 680.285 338.309 680.285 340.775Z" fill="white"/>
<path d="M735.942 350.333C735.738 352.265 735.166 353.745 734.226 354.773C733.327 355.801 731.999 356.315 730.241 356.315C728.934 356.315 727.769 356.006 726.747 355.39C725.726 354.732 724.622 353.643 723.437 352.122L717.368 344.475V355.698C716.919 355.78 716.244 355.883 715.345 356.006C714.487 356.171 713.608 356.253 712.709 356.253C711.81 356.253 710.993 356.191 710.257 356.068C709.562 355.945 708.97 355.698 708.479 355.328C707.989 354.958 707.601 354.465 707.315 353.848C707.07 353.19 706.947 352.348 706.947 351.32V315.617C707.396 315.493 708.05 315.37 708.909 315.247C709.808 315.082 710.707 315 711.606 315C712.505 315 713.302 315.062 713.997 315.185C714.732 315.308 715.345 315.555 715.836 315.925C716.326 316.295 716.694 316.809 716.939 317.467C717.225 318.083 717.368 318.905 717.368 319.933V336.212L727.912 325.359C730.037 325.359 731.733 325.832 733 326.778C734.308 327.723 734.962 328.915 734.962 330.354C734.962 330.971 734.859 331.546 734.655 332.081C734.451 332.574 734.124 333.088 733.674 333.622C733.266 334.157 732.714 334.732 732.019 335.349C731.365 335.925 730.589 336.603 729.69 337.384L726.134 340.467L735.942 350.333Z" fill="white"/>
<path d="M548.228 371.342V381.715H546.863V376.523H545.88V381.218H544.539V371.539H545.88V375.367H546.863V371.342H548.228ZM539.775 372.51H541.209V377.934C542.203 377.903 543.117 377.806 543.949 377.645L544.088 378.87C543.024 379.071 541.825 379.171 540.492 379.171H539.775V372.51ZM556.756 377.806C557.504 377.806 558.151 377.887 558.698 378.049C559.254 378.204 559.681 378.431 559.982 378.732C560.283 379.025 560.433 379.371 560.433 379.772C560.433 380.165 560.283 380.509 559.982 380.801C559.681 381.094 559.254 381.318 558.698 381.472C558.143 381.634 557.496 381.715 556.756 381.715C556.023 381.715 555.38 381.634 554.825 381.472C554.277 381.318 553.853 381.094 553.553 380.801C553.252 380.509 553.102 380.165 553.102 379.772C553.102 379.371 553.252 379.025 553.553 378.732C553.853 378.431 554.277 378.204 554.825 378.049C555.372 377.887 556.016 377.806 556.756 377.806ZM552.153 375.991H555.646V374.176H557.08V375.991H561.485V377.136H552.153V375.991ZM553.206 371.817H560.364V372.672C560.364 373.227 560.348 373.709 560.317 374.118C560.287 374.519 560.209 374.958 560.086 375.436L558.664 375.297C558.772 374.865 558.845 374.472 558.884 374.118C558.922 373.755 558.941 373.366 558.941 372.95H553.206V371.817ZM554.536 379.772C554.536 380.05 554.724 380.262 555.102 380.408C555.488 380.555 556.039 380.628 556.756 380.628C557.473 380.628 558.028 380.555 558.421 380.408C558.814 380.262 559.011 380.05 559.011 379.772C559.011 379.479 558.814 379.26 558.421 379.113C558.036 378.967 557.48 378.893 556.756 378.893C556.039 378.893 555.488 378.967 555.102 379.113C554.724 379.26 554.536 379.479 554.536 379.772ZM570.378 371.354V374.268H571.766V375.448H570.378V378.789H568.944V371.354H570.378ZM562.168 376.639C563.309 376.315 564.207 375.86 564.862 375.274C565.525 374.688 565.911 374.021 566.019 373.274H562.619V372.129H567.58C567.58 373.524 567.163 374.7 566.331 375.656C565.506 376.612 564.319 377.317 562.769 377.772L562.168 376.639ZM563.706 378.026H565.14V380.374H570.736V381.53H563.706V378.026ZM581.248 371.342V381.715H579.872V371.342H581.248ZM572.437 375.841C572.437 375.077 572.529 374.415 572.714 373.852C572.899 373.281 573.157 372.846 573.489 372.545C573.828 372.244 574.225 372.094 574.68 372.094C575.304 372.094 575.809 372.368 576.195 372.915C576.588 373.462 576.823 374.222 576.9 375.193H577.779V371.516H579.12V381.241H577.779V376.349H576.912C576.858 377.367 576.63 378.165 576.229 378.743C575.836 379.314 575.32 379.599 574.68 379.599C574.225 379.599 573.828 379.449 573.489 379.148C573.157 378.847 572.899 378.416 572.714 377.853C572.529 377.282 572.437 376.612 572.437 375.841ZM573.743 375.841C573.743 376.627 573.824 377.224 573.986 377.633C574.148 378.034 574.379 378.234 574.68 378.234C574.981 378.234 575.212 378.034 575.374 377.633C575.536 377.224 575.617 376.627 575.617 375.841C575.617 375.054 575.536 374.461 575.374 374.06C575.212 373.651 574.981 373.447 574.68 373.447C574.379 373.447 574.148 373.651 573.986 374.06C573.824 374.461 573.743 375.054 573.743 375.841ZM593.315 371.342V373.805H594.644V374.997H593.315V377.448H591.881V371.342H593.315ZM585 376.361C586.072 376.361 586.904 376.353 587.498 376.338V375.852C586.935 375.783 586.492 375.633 586.168 375.401C585.852 375.17 585.694 374.881 585.694 374.534C585.694 374.11 585.922 373.779 586.376 373.54C586.831 373.293 587.444 373.169 588.215 373.169C588.986 373.169 589.595 373.293 590.042 373.54C590.497 373.779 590.724 374.11 590.724 374.534C590.724 374.881 590.566 375.17 590.25 375.401C589.934 375.633 589.495 375.783 588.932 375.852V376.292C589.857 376.238 590.686 376.164 591.418 376.072L591.511 376.951C590.547 377.113 589.549 377.221 588.516 377.275C587.483 377.321 586.361 377.344 585.151 377.344L585 376.361ZM585.266 372.013H587.498V371.25H588.932V372.013H591.152V372.973H585.266V372.013ZM586.376 377.83H593.315V380.154H587.799V380.686H593.685V381.646H586.388V379.264H591.904V378.789H586.376V377.83ZM587.059 374.534C587.059 374.688 587.159 374.808 587.359 374.892C587.56 374.977 587.845 375.02 588.215 375.02C588.577 375.02 588.859 374.977 589.059 374.892C589.26 374.808 589.36 374.688 589.36 374.534C589.36 374.226 588.978 374.071 588.215 374.071C587.444 374.071 587.059 374.226 587.059 374.534ZM603.861 371.342V381.715H602.427V371.342H603.861ZM595.281 378.813C596.583 378.188 597.551 377.452 598.183 376.604C598.823 375.756 599.201 374.746 599.316 373.574H595.813V372.418H600.785C600.785 374.114 600.426 375.582 599.709 376.824C598.993 378.065 597.767 379.105 596.032 379.946L595.281 378.813ZM614.719 376.014V377.055H605.33V376.014H614.719ZM606.394 377.621H613.598V380.038H607.827V380.663H613.887V381.634H606.405V379.136H612.187V378.581H606.394V377.621ZM606.486 371.539H613.575V373.956H607.92V374.534H613.76V375.505H606.498V373.054H612.152V372.499H606.486V371.539ZM623.282 372.268V373.424H620.033V378.061C620.85 378.053 621.544 378.03 622.114 377.992C622.692 377.945 623.267 377.868 623.837 377.76L623.976 378.917C623.313 379.04 622.646 379.125 621.975 379.171C621.312 379.21 620.464 379.229 619.431 379.229H618.61V372.268H623.282ZM622.785 374.939H625.352V371.342H626.786V381.738H625.352V376.107H622.785V374.939ZM630.001 372.927V371.632H631.423V372.927H633.181V374.071H628.208V372.927H630.001ZM628.44 377.009C628.44 376.538 628.536 376.118 628.729 375.748C628.929 375.37 629.199 375.077 629.538 374.869C629.885 374.661 630.274 374.557 630.706 374.557C631.146 374.557 631.539 374.661 631.886 374.869C632.233 375.077 632.502 375.37 632.695 375.748C632.888 376.118 632.984 376.538 632.984 377.009C632.984 377.487 632.888 377.914 632.695 378.292C632.502 378.662 632.233 378.951 631.886 379.159C631.539 379.36 631.146 379.46 630.706 379.46C630.274 379.46 629.885 379.356 629.538 379.148C629.199 378.94 628.929 378.651 628.729 378.281C628.536 377.911 628.44 377.487 628.44 377.009ZM629.712 377.009C629.712 377.402 629.804 377.714 629.989 377.945C630.174 378.169 630.413 378.281 630.706 378.281C631.007 378.281 631.246 378.169 631.423 377.945C631.608 377.722 631.701 377.409 631.701 377.009C631.701 376.623 631.608 376.319 631.423 376.095C631.246 375.872 631.007 375.76 630.706 375.76C630.413 375.76 630.174 375.872 629.989 376.095C629.804 376.319 629.712 376.623 629.712 377.009ZM633.562 371.551H634.904V375.575H635.748V371.342H637.101V381.715H635.748V376.731H634.904V381.264H633.562V371.551ZM650.358 375.494V376.615H646.369V377.298H649.214V379.946H643.49V380.57H649.48V381.646H642.079V378.951H647.791V378.35H642.056V377.298H644.947V376.615H640.969V375.494H650.358ZM641.397 374.095C642.306 374.033 643.039 373.879 643.594 373.632C644.156 373.385 644.526 373.092 644.704 372.753H641.836V371.632H649.503V372.753H646.623C646.801 373.092 647.167 373.385 647.722 373.632C648.285 373.879 649.021 374.033 649.931 374.095L649.48 375.182C648.554 375.12 647.764 374.946 647.109 374.661C646.461 374.376 645.98 374.01 645.664 373.563C645.347 374.01 644.862 374.376 644.207 374.661C643.559 374.946 642.773 375.12 641.848 375.182L641.397 374.095ZM652.116 382.478H651.099L651.561 379.61H652.984L652.116 382.478ZM665.405 371.354V374.291H666.793V375.482H665.405V378.974H663.971V371.354H665.405ZM657.565 372.083H658.987V373.597H661.103V372.083H662.537V377.344H657.565V372.083ZM658.744 378.223H660.178V380.374H665.775V381.53H658.744V378.223ZM661.103 376.211V374.696H658.987V376.211H661.103ZM676.032 371.331V381.738H674.61V377.541H672.829V376.384H674.61V374.707H672.864V373.563H674.61V371.331H676.032ZM667.718 372.221H672.332V376.211H669.163V378.234C670.528 378.219 671.761 378.134 672.864 377.98L672.991 379.148C672.282 379.264 671.588 379.341 670.91 379.379C670.239 379.41 669.452 379.425 668.551 379.425H667.741V375.077H670.921V373.366H667.718V372.221ZM684.075 371.828V372.823C684.075 373.516 684.279 374.141 684.687 374.696C685.096 375.251 685.701 375.652 686.503 375.899L685.798 377.009C685.227 376.831 684.738 376.565 684.329 376.211C683.92 375.856 683.597 375.436 683.358 374.95C683.119 375.482 682.783 375.945 682.352 376.338C681.928 376.723 681.419 377.012 680.825 377.205L680.131 376.06C680.949 375.798 681.565 375.37 681.982 374.777C682.406 374.183 682.618 373.532 682.618 372.823V371.828H684.075ZM681.716 377.992H688.758V381.727H687.312V379.136H681.716V377.992ZM687.312 371.354H688.758V377.541H687.312V371.354ZM699.628 375.482V376.615H695.638V377.298H698.483V379.934H692.759V380.559H698.749V381.646H691.348V378.928H697.061V378.362H691.325V377.298H694.216V376.615H690.238V375.482H699.628ZM691.406 371.655H698.437V374.892H691.406V371.655ZM697.015 373.794V372.765H692.817V373.794H697.015ZM708.792 372.106V372.753C708.792 373.277 708.777 373.775 708.746 374.245C708.723 374.707 708.657 375.224 708.549 375.794L707.15 375.633C707.281 374.885 707.354 374.091 707.37 373.25H703.484V372.106H708.792ZM702.883 376.558C703.7 376.558 704.34 376.554 704.802 376.546V374.522H706.213V376.5C707.377 376.446 708.391 376.357 709.254 376.234L709.359 377.263C708.403 377.433 707.404 377.548 706.364 377.61C705.323 377.664 704.209 377.695 703.022 377.702L702.883 376.558ZM704.398 378.431H705.843V380.374H711.602V381.53H704.398V378.431ZM709.833 371.342H711.278V374.534H712.539V375.713H711.278V379.102H709.833V371.342ZM721.743 371.331V381.738H720.31V371.331H721.743ZM713.684 372.221H718.563V376.211H715.152V378.13C716.008 378.123 716.783 378.096 717.476 378.049C718.17 378.003 718.868 377.918 719.569 377.795L719.708 378.94C718.922 379.086 718.136 379.186 717.349 379.24C716.563 379.287 715.649 379.31 714.609 379.31H713.707V375.077H717.095V373.378H713.684V372.221ZM728.317 371.909C728.772 371.909 729.177 372.013 729.531 372.221C729.894 372.422 730.175 372.703 730.376 373.065C730.584 373.428 730.688 373.84 730.688 374.303C730.688 374.773 730.584 375.189 730.376 375.552C730.175 375.914 729.894 376.199 729.531 376.407C729.177 376.608 728.772 376.708 728.317 376.708C727.862 376.708 727.454 376.608 727.091 376.407C726.737 376.199 726.456 375.914 726.247 375.552C726.047 375.189 725.947 374.773 725.947 374.303C725.947 373.84 726.047 373.428 726.247 373.065C726.456 372.703 726.737 372.422 727.091 372.221C727.454 372.013 727.862 371.909 728.317 371.909ZM727.242 374.303C727.242 374.696 727.338 375.004 727.531 375.228C727.731 375.444 727.993 375.552 728.317 375.552C728.633 375.552 728.892 375.444 729.092 375.228C729.292 375.004 729.393 374.696 729.393 374.303C729.393 373.925 729.292 373.628 729.092 373.412C728.892 373.189 728.633 373.077 728.317 373.077C727.993 373.077 727.731 373.189 727.531 373.412C727.338 373.628 727.242 373.925 727.242 374.303ZM727.727 377.425H729.138V378.385H733.324V377.425H734.723V381.599H727.727V377.425ZM733.324 380.443V379.506H729.138V380.443H733.324ZM731.173 371.551H732.503V373.54H733.359V371.354H734.723V376.985H733.359V374.696H732.503V376.916H731.173V371.551Z" fill="white"/>
<g filter="url(#filter2_d_2317_45147)">
<path fill-rule="evenodd" clip-rule="evenodd" d="M735.431 49.1164C734.496 51.9052 733.486 54.9176 732.411 58.8171C729.768 68.4047 729.943 81.244 735.936 90.5728C741.487 98.5341 749.745 104.677 759.833 107.457C772.226 110.873 784.847 108.516 794.833 102.011C793.333 73.2035 773.688 47.3125 744.352 39.2272C742.462 38.7062 740.569 38.2694 738.676 37.9143C737.737 42.2425 736.647 45.4905 735.431 49.1164Z" fill="#A7F0BA"/>
</g>
<g filter="url(#filter3_d_2317_45147)">
<path fill-rule="evenodd" clip-rule="evenodd" d="M714.115 106.13C719.038 101.733 723.578 97.6779 726.265 95.6516C736.279 88.0983 745.351 84.1027 755.03 82.6884C763.607 81.4352 768.577 81.9298 774.755 83.6709C779.315 84.9561 782.943 86.2286 785.894 87.4111C791.572 90.0728 796.978 93.5608 801.94 97.8869C808.019 103.187 812.942 109.319 816.688 115.966C813.908 122.632 810.023 128.971 805.016 134.715C780.027 163.375 736.535 166.351 707.875 141.362C701.796 136.062 696.873 129.929 693.127 123.283C693.148 123.231 693.17 123.179 693.192 123.127C696.774 121.618 705.969 113.406 714.115 106.13Z" fill="url(#paint2_linear_2317_45147)"/>
</g>
</g>
<defs>
<filter id="filter0_d_2317_45147" x="55.3506" y="339.879" width="136.025" height="151.591" filterUnits="userSpaceOnUse" color-interpolation-filters="sRGB">
<feFlood flood-opacity="0" result="BackgroundImageFix"/>
<feColorMatrix in="SourceAlpha" type="matrix" values="0 0 0 0 0 0 0 0 0 0 0 0 0 0 0 0 0 0 127 0" result="hardAlpha"/>
<feOffset dx="7.98958" dy="19.974"/>
<feGaussianBlur stdDeviation="9.98698"/>
<feComposite in2="hardAlpha" operator="out"/>
<feColorMatrix type="matrix" values="0 0 0 0 0.0957118 0 0 0 0 0.620833 0 0 0 0 0.296213 0 0 0 0.48 0"/>
<feBlend mode="normal" in2="BackgroundImageFix" result="effect1_dropShadow_2317_45147"/>
<feBlend mode="normal" in="SourceGraphic" in2="effect1_dropShadow_2317_45147" result="shape"/>
</filter>
<filter id="filter1_d_2317_45147" x="-63.1182" y="313.792" width="187.319" height="183.133" filterUnits="userSpaceOnUse" color-interpolation-filters="sRGB">
<feFlood flood-opacity="0" result="BackgroundImageFix"/>
<feColorMatrix in="SourceAlpha" type="matrix" values="0 0 0 0 0 0 0 0 0 0 0 0 0 0 0 0 0 0 127 0" result="hardAlpha"/>
<feOffset dx="7.98958" dy="19.974"/>
<feGaussianBlur stdDeviation="9.98698"/>
<feComposite in2="hardAlpha" operator="out"/>
<feColorMatrix type="matrix" values="0 0 0 0 0.0957118 0 0 0 0 0.620833 0 0 0 0 0.296213 0 0 0 0.48 0"/>
<feBlend mode="normal" in2="BackgroundImageFix" result="effect1_dropShadow_2317_45147"/>
<feBlend mode="normal" in="SourceGraphic" in2="effect1_dropShadow_2317_45147" result="shape"/>
</filter>
<filter id="filter2_d_2317_45147" x="718.798" y="37.9146" width="103.999" height="111.051" filterUnits="userSpaceOnUse" color-interpolation-filters="sRGB">
<feFlood flood-opacity="0" result="BackgroundImageFix"/>
<feColorMatrix in="SourceAlpha" type="matrix" values="0 0 0 0 0 0 0 0 0 0 0 0 0 0 0 0 0 0 127 0" result="hardAlpha"/>
<feOffset dx="7.98958" dy="19.974"/>
<feGaussianBlur stdDeviation="9.98698"/>
<feComposite in2="hardAlpha" operator="out"/>
<feColorMatrix type="matrix" values="0 0 0 0 0.0957118 0 0 0 0 0.620833 0 0 0 0 0.296213 0 0 0 0.48 0"/>
<feBlend mode="normal" in2="BackgroundImageFix" result="effect1_dropShadow_2317_45147"/>
<feBlend mode="normal" in="SourceGraphic" in2="effect1_dropShadow_2317_45147" result="shape"/>
</filter>
<filter id="filter3_d_2317_45147" x="681.143" y="81.9893" width="163.509" height="116.277" filterUnits="userSpaceOnUse" color-interpolation-filters="sRGB">
<feFlood flood-opacity="0" result="BackgroundImageFix"/>
<feColorMatrix in="SourceAlpha" type="matrix" values="0 0 0 0 0 0 0 0 0 0 0 0 0 0 0 0 0 0 127 0" result="hardAlpha"/>
<feOffset dx="7.98958" dy="19.974"/>
<feGaussianBlur stdDeviation="9.98698"/>
<feComposite in2="hardAlpha" operator="out"/>
<feColorMatrix type="matrix" values="0 0 0 0 0.0957118 0 0 0 0 0.620833 0 0 0 0 0.296213 0 0 0 0.48 0"/>
<feBlend mode="normal" in2="BackgroundImageFix" result="effect1_dropShadow_2317_45147"/>
<feBlend mode="normal" in="SourceGraphic" in2="effect1_dropShadow_2317_45147" result="shape"/>
</filter>
<linearGradient id="paint0_linear_2317_45147" x1="384" y1="0" x2="384" y2="432" gradientUnits="userSpaceOnUse">
<stop offset="0.4375" stop-color="#42BE65"/>
<stop offset="1" stop-color="#0AAF42"/>
</linearGradient>
<linearGradient id="paint1_linear_2317_45147" x1="27.6114" y1="308.385" x2="27.6114" y2="457.052" gradientUnits="userSpaceOnUse">
<stop stop-color="white"/>
<stop offset="1" stop-color="#C8F6D4"/>
</linearGradient>
<linearGradient id="paint2_linear_2317_45147" x1="721.1" y1="85.8387" x2="793.019" y2="148.546" gradientUnits="userSpaceOnUse">
<stop stop-color="white"/>
<stop offset="1" stop-color="#C8F6D4"/>
</linearGradient>
<clipPath id="clip0_2317_45147">
<rect width="768" height="432" fill="white"/>
</clipPath>
</defs>
</svg>
