<svg width="266" height="57" viewBox="0 0 266 65" fill="none" xmlns="http://www.w3.org/2000/svg">
<path d="M28.3754 15.1052C24.1307 15.1052 20.8783 16.4018 18.6181 18.9951C16.3579 21.5884 15.2278 25.2575 15.2278 30.0027C15.2278 34.8029 16.4682 38.4997 18.9488 41.093C21.4846 43.6862 24.8749 44.9829 29.1196 44.9829C31.3798 44.9829 33.2816 44.6794 34.8252 44.0725C36.4238 43.4655 37.9398 42.7758 39.3731 42.0034C40.3102 42.7758 41.0269 43.7138 41.523 44.8173C42.0743 45.8657 42.3499 47.1071 42.3499 48.5417C42.3499 50.8039 41.082 52.7351 38.5462 54.3352C36.0655 55.8801 32.2618 56.6525 27.1351 56.6525C23.4416 56.6525 19.9687 56.1284 16.7162 55.08C13.4638 54.0317 10.6248 52.4316 8.19923 50.2797C5.77368 48.0727 3.84426 45.3139 2.41098 42.0034C1.03283 38.6377 0.34375 34.6374 0.34375 30.0027C0.34375 25.699 1.00526 21.9194 2.32829 18.664C3.70645 15.3535 5.55318 12.5671 7.86848 10.3049C10.2389 8.04272 12.9952 6.33227 16.1374 5.17358C19.2796 4.01489 22.6423 3.43555 26.2255 3.43555C31.2971 3.43555 35.2111 4.26318 37.9674 5.91845C40.7788 7.57372 42.1845 9.69799 42.1845 12.2912C42.1845 13.7258 41.8262 14.9673 41.1096 16.0156C40.3929 17.064 39.566 17.8916 38.6289 18.4985C37.1956 17.5605 35.6521 16.7605 33.9983 16.0984C32.3996 15.4363 30.5253 15.1052 28.3754 15.1052Z" fill="#0AAF42"/>
<path d="M88.6798 55.08C88.1285 55.2456 87.2465 55.4111 86.0338 55.5766C84.8761 55.7421 83.6633 55.8249 82.3954 55.8249C81.1827 55.8249 80.0801 55.7421 79.0879 55.5766C78.1507 55.4111 77.3514 55.08 76.6899 54.5835C76.0284 54.0869 75.5047 53.4248 75.1188 52.5971C74.788 51.7143 74.6226 50.5832 74.6226 49.2038V30.8303C74.6226 28.5681 74.0438 26.9956 72.8862 26.1128C71.7836 25.1748 70.4055 24.7058 68.7517 24.7058C67.6492 24.7058 66.6018 24.8437 65.6095 25.1196C64.6172 25.3955 63.8179 25.7265 63.2115 26.1128V55.08C62.6603 55.2456 61.7782 55.4111 60.5655 55.5766C59.4078 55.7421 58.195 55.8249 56.9271 55.8249C55.7143 55.8249 54.6118 55.7421 53.6196 55.5766C52.6824 55.4111 51.8831 55.08 51.2216 54.5835C50.5601 54.0869 50.0364 53.4248 49.6505 52.5971C49.3197 51.7143 49.1543 50.5832 49.1543 49.2038V1.20093C49.7607 1.09057 50.6427 0.952634 51.8004 0.787109C53.0132 0.566406 54.2259 0.456055 55.4387 0.456055C56.6515 0.456055 57.7265 0.538818 58.6636 0.704343C59.6559 0.869871 60.4828 1.20092 61.1443 1.69751C61.8058 2.19409 62.3019 2.88378 62.6327 3.76659C63.0186 4.59423 63.2115 5.69775 63.2115 7.07714V15.188C63.9282 14.9121 65.0031 14.6086 66.4364 14.2776C67.9248 13.8913 69.551 13.6982 71.3151 13.6982C76.7726 13.6982 81.0173 15.0776 84.0492 17.8364C87.1363 20.54 88.6798 24.5954 88.6798 30.0027V55.08Z" fill="#0AAF42"/>
<path d="M138.952 35.0512C138.952 38.4721 138.428 41.5344 137.381 44.238C136.333 46.8864 134.845 49.1211 132.915 50.9419C131.041 52.7627 128.781 54.142 126.135 55.08C123.489 56.018 120.54 56.487 117.287 56.487C114.035 56.487 111.085 55.9904 108.439 54.9973C105.793 54.0041 103.506 52.5971 101.576 50.7763C99.7018 48.9003 98.241 46.6381 97.1936 43.9897C96.1462 41.3413 95.6225 38.3618 95.6225 35.0512C95.6225 31.7959 96.1462 28.844 97.1936 26.1955C98.241 23.5471 99.7018 21.3125 101.576 19.4917C103.506 17.6157 105.793 16.1811 108.439 15.188C111.085 14.1948 114.035 13.6982 117.287 13.6982C120.54 13.6982 123.489 14.2224 126.135 15.2707C128.781 16.2639 131.041 17.6985 132.915 19.5744C134.845 21.3952 136.333 23.6299 137.381 26.2783C138.428 28.9267 138.952 31.851 138.952 35.0512ZM110.01 35.0512C110.01 38.417 110.644 41.0102 111.912 42.831C113.235 44.5966 115.054 45.4795 117.37 45.4795C119.685 45.4795 121.449 44.5691 122.662 42.7483C123.93 40.9275 124.564 38.3618 124.564 35.0512C124.564 31.7407 123.93 29.2026 122.662 27.437C121.394 25.6162 119.602 24.7058 117.287 24.7058C114.972 24.7058 113.18 25.6162 111.912 27.437C110.644 29.2026 110.01 31.7407 110.01 35.0512Z" fill="#0AAF42"/>
<path d="M159.867 55.08C159.316 55.2456 158.434 55.4111 157.221 55.5766C156.063 55.7421 154.85 55.8249 153.583 55.8249C152.37 55.8249 151.267 55.7421 150.275 55.5766C149.338 55.4111 148.538 55.08 147.877 54.5835C147.215 54.0869 146.692 53.4248 146.306 52.5971C145.975 51.7143 145.81 50.5832 145.81 49.2038V24.3747C145.81 23.1057 146.03 22.0298 146.471 21.147C146.967 20.209 147.656 19.3813 148.538 18.664C149.42 17.9468 150.495 17.3122 151.763 16.7605C153.086 16.1536 154.492 15.6294 155.98 15.188C157.469 14.7466 159.012 14.4155 160.611 14.1948C162.21 13.9189 163.808 13.781 165.407 13.781C168.053 13.781 170.148 14.3052 171.691 15.3535C173.235 16.3467 174.007 18.0019 174.007 20.3193C174.007 21.0918 173.896 21.8642 173.676 22.6367C173.455 23.354 173.18 24.0161 172.849 24.623C171.691 24.623 170.506 24.6782 169.293 24.7886C168.081 24.8989 166.895 25.0644 165.738 25.2851C164.58 25.5058 163.478 25.7541 162.43 26.03C161.438 26.2507 160.584 26.5266 159.867 26.8576V55.08Z" fill="#0AAF42"/>
<path d="M219.864 35.0512C219.864 38.4721 219.341 41.5344 218.293 44.238C217.246 46.8864 215.758 49.1211 213.828 50.9419C211.954 52.7627 209.694 54.142 207.048 55.08C204.402 56.018 201.452 56.487 198.2 56.487C194.947 56.487 191.998 55.9904 189.352 54.9973C186.706 54.0041 184.418 52.5971 182.489 50.7763C180.615 48.9003 179.154 46.6381 178.106 43.9897C177.059 41.3413 176.535 38.3618 176.535 35.0512C176.535 31.7959 177.059 28.844 178.106 26.1955C179.154 23.5471 180.615 21.3125 182.489 19.4917C184.418 17.6157 186.706 16.1811 189.352 15.188C191.998 14.1948 194.947 13.6982 198.2 13.6982C201.452 13.6982 204.402 14.2224 207.048 15.2707C209.694 16.2639 211.954 17.6985 213.828 19.5744C215.758 21.3952 217.246 23.6299 218.293 26.2783C219.341 28.9267 219.864 31.851 219.864 35.0512ZM190.923 35.0512C190.923 38.417 191.557 41.0102 192.825 42.831C194.148 44.5966 195.967 45.4795 198.283 45.4795C200.598 45.4795 202.362 44.5691 203.575 42.7483C204.843 40.9275 205.477 38.3618 205.477 35.0512C205.477 31.7407 204.843 29.2026 203.575 27.437C202.307 25.6162 200.515 24.7058 198.2 24.7058C195.885 24.7058 194.093 25.6162 192.825 27.437C191.557 29.2026 190.923 31.7407 190.923 35.0512Z" fill="#0AAF42"/>
<path d="M266 47.8796C265.724 50.4729 264.953 52.4592 263.685 53.8386C262.472 55.218 260.68 55.9077 258.31 55.9077C256.546 55.9077 254.975 55.4939 253.596 54.6662C252.218 53.7834 250.73 52.3212 249.131 50.2797L240.945 40.0171V55.08C240.339 55.1904 239.429 55.3283 238.216 55.4939C237.059 55.7146 235.873 55.8249 234.661 55.8249C233.448 55.8249 232.345 55.7421 231.353 55.5766C230.416 55.4111 229.617 55.08 228.955 54.5835C228.294 54.0869 227.77 53.4248 227.384 52.5971C227.053 51.7143 226.888 50.5832 226.888 49.2038V1.28369C227.494 1.11816 228.376 0.952634 229.534 0.787109C230.747 0.566406 231.959 0.456055 233.172 0.456055C234.385 0.456055 235.46 0.538818 236.397 0.704343C237.389 0.869871 238.216 1.20092 238.878 1.69751C239.539 2.19409 240.035 2.88378 240.366 3.76659C240.752 4.59423 240.945 5.69775 240.945 7.07714V28.9267L255.168 14.3603C258.034 14.3603 260.322 14.9949 262.031 16.2639C263.795 17.5329 264.677 19.133 264.677 21.0642C264.677 21.8918 264.539 22.6643 264.263 23.3816C263.988 24.0437 263.547 24.7334 262.94 25.4507C262.389 26.1679 261.645 26.9404 260.708 27.768C259.826 28.5405 258.778 29.4509 257.566 30.4992L252.77 34.6374L266 47.8796Z" fill="#0AAF42"/>
</svg>
