<svg width="300" height="57" viewBox="82 -15 200 80" fill="none" xmlns="http://www.w3.org/2000/svg">
<path fill-rule="evenodd" clip-rule="evenodd" d="M76.8999 10.4392C75.1044 10.341 73.165 10.2349 70.6924 10.2349C64.6085 10.2349 57.0637 12.4262 52.5405 17.4814C48.7557 22.0444 46.4805 27.9046 46.4805 34.2962C46.4805 42.1546 49.9199 49.2097 55.3754 54.0383C72.1087 48.4752 84.1761 32.6922 84.1761 14.0907C84.1761 12.8921 84.1259 11.7052 84.0277 10.532C81.3249 10.6813 79.234 10.5669 76.8999 10.4392Z" fill="url(#paint0_linear_2437_46333)"/>
<path fill-rule="evenodd" clip-rule="evenodd" d="M18.7405 2.81219C22.7442 3.31405 26.4364 3.77686 28.4492 4.20061C35.9525 5.78026 41.4383 8.35528 45.9783 12.2468C50.0014 15.6951 51.7701 18.1838 53.4498 21.7297C54.6896 24.3472 55.5608 26.5299 56.2017 28.3649C57.2562 32.0503 57.821 35.9425 57.821 39.9666C57.821 44.8966 56.9733 49.6286 55.4158 54.0249C51.2274 55.4221 46.7461 56.1788 42.088 56.1788C18.8434 56.1788 0 37.3354 0 14.0908C0 9.1608 0.847643 4.42877 2.40514 0.0325073C2.43774 0.0216327 2.47035 0.0107969 2.50299 0C4.63694 1.04434 12.1153 1.98174 18.7405 2.81219Z" fill="url(#paint1_linear_2437_46333)"/>
<path d="M126.375 15.1052C122.131 15.1052 118.878 16.4018 116.618 18.9951C114.358 21.5884 113.228 25.2575 113.228 30.0027C113.228 34.8029 114.468 38.4997 116.949 41.093C119.485 43.6862 122.875 44.9829 127.12 44.9829C129.38 44.9829 131.282 44.6794 132.825 44.0725C134.424 43.4655 135.94 42.7758 137.373 42.0034C138.31 42.7758 139.027 43.7138 139.523 44.8173C140.074 45.8657 140.35 47.1071 140.35 48.5417C140.35 50.8039 139.082 52.7351 136.546 54.3352C134.066 55.8801 130.262 56.6525 125.135 56.6525C121.442 56.6525 117.969 56.1284 114.716 55.08C111.464 54.0317 108.625 52.4316 106.199 50.2797C103.774 48.0727 101.844 45.3139 100.411 42.0034C99.0328 38.6377 98.3438 34.6374 98.3438 30.0027C98.3438 25.699 99.0053 21.9194 100.328 18.664C101.706 15.3535 103.553 12.5671 105.868 10.3049C108.239 8.04272 110.995 6.33227 114.137 5.17358C117.28 4.01489 120.642 3.43555 124.225 3.43555C129.297 3.43555 133.211 4.26318 135.967 5.91845C138.779 7.57372 140.185 9.69799 140.185 12.2912C140.185 13.7258 139.826 14.9673 139.11 16.0156C138.393 17.064 137.566 17.8916 136.629 18.4985C135.196 17.5605 133.652 16.7605 131.998 16.0984C130.4 15.4363 128.525 15.1052 126.375 15.1052Z" fill="#0AAF42"/>
<path d="M186.68 55.08C186.129 55.2456 185.247 55.4111 184.034 55.5766C182.876 55.7421 181.663 55.8249 180.395 55.8249C179.183 55.8249 178.08 55.7421 177.088 55.5766C176.151 55.4111 175.351 55.08 174.69 54.5835C174.028 54.0869 173.505 53.4248 173.119 52.5971C172.788 51.7143 172.623 50.5832 172.623 49.2038V30.8303C172.623 28.5681 172.044 26.9956 170.886 26.1128C169.784 25.1748 168.405 24.7058 166.752 24.7058C165.649 24.7058 164.602 24.8437 163.61 25.1196C162.617 25.3955 161.818 25.7265 161.212 26.1128V55.08C160.66 55.2456 159.778 55.4111 158.565 55.5766C157.408 55.7421 156.195 55.8249 154.927 55.8249C153.714 55.8249 152.612 55.7421 151.62 55.5766C150.682 55.4111 149.883 55.08 149.222 54.5835C148.56 54.0869 148.036 53.4248 147.65 52.5971C147.32 51.7143 147.154 50.5832 147.154 49.2038V1.20093C147.761 1.09057 148.643 0.952634 149.8 0.787109C151.013 0.566406 152.226 0.456055 153.439 0.456055C154.651 0.456055 155.726 0.538818 156.664 0.704343C157.656 0.869871 158.483 1.20092 159.144 1.69751C159.806 2.19409 160.302 2.88378 160.633 3.76659C161.019 4.59423 161.212 5.69775 161.212 7.07714V15.188C161.928 14.9121 163.003 14.6086 164.436 14.2776C165.925 13.8913 167.551 13.6982 169.315 13.6982C174.773 13.6982 179.017 15.0776 182.049 17.8364C185.136 20.54 186.68 24.5954 186.68 30.0027V55.08Z" fill="#0AAF42"/>
<path d="M236.952 35.0512C236.952 38.4721 236.428 41.5344 235.381 44.238C234.333 46.8864 232.845 49.1211 230.915 50.9419C229.041 52.7627 226.781 54.142 224.135 55.08C221.489 56.018 218.54 56.487 215.287 56.487C212.035 56.487 209.085 55.9904 206.439 54.9973C203.793 54.0041 201.506 52.5971 199.576 50.7763C197.702 48.9003 196.241 46.6381 195.194 43.9897C194.146 41.3413 193.622 38.3618 193.622 35.0512C193.622 31.7959 194.146 28.844 195.194 26.1955C196.241 23.5471 197.702 21.3125 199.576 19.4917C201.506 17.6157 203.793 16.1811 206.439 15.188C209.085 14.1948 212.035 13.6982 215.287 13.6982C218.54 13.6982 221.489 14.2224 224.135 15.2707C226.781 16.2639 229.041 17.6985 230.915 19.5744C232.845 21.3952 234.333 23.6299 235.381 26.2783C236.428 28.9267 236.952 31.851 236.952 35.0512ZM208.01 35.0512C208.01 38.417 208.644 41.0102 209.912 42.831C211.235 44.5966 213.054 45.4795 215.37 45.4795C217.685 45.4795 219.449 44.5691 220.662 42.7483C221.93 40.9275 222.564 38.3618 222.564 35.0512C222.564 31.7407 221.93 29.2026 220.662 27.437C219.394 25.6162 217.602 24.7058 215.287 24.7058C212.972 24.7058 211.18 25.6162 209.912 27.437C208.644 29.2026 208.01 31.7407 208.01 35.0512Z" fill="#0AAF42"/>
<path d="M257.867 55.08C257.316 55.2456 256.434 55.4111 255.221 55.5766C254.063 55.7421 252.85 55.8249 251.583 55.8249C250.37 55.8249 249.267 55.7421 248.275 55.5766C247.338 55.4111 246.538 55.08 245.877 54.5835C245.215 54.0869 244.692 53.4248 244.306 52.5971C243.975 51.7143 243.81 50.5832 243.81 49.2038V24.3747C243.81 23.1057 244.03 22.0298 244.471 21.147C244.967 20.209 245.656 19.3813 246.538 18.664C247.42 17.9468 248.495 17.3122 249.763 16.7605C251.086 16.1536 252.492 15.6294 253.98 15.188C255.469 14.7466 257.012 14.4155 258.611 14.1948C260.21 13.9189 261.808 13.781 263.407 13.781C266.053 13.781 268.148 14.3052 269.691 15.3535C271.235 16.3467 272.007 18.0019 272.007 20.3193C272.007 21.0918 271.896 21.8642 271.676 22.6367C271.455 23.354 271.18 24.0161 270.849 24.623C269.691 24.623 268.506 24.6782 267.293 24.7886C266.081 24.8989 264.895 25.0644 263.738 25.2851C262.58 25.5058 261.478 25.7541 260.43 26.03C259.438 26.2507 258.584 26.5266 257.867 26.8576V55.08Z" fill="#0AAF42"/>
<path d="M317.864 35.0512C317.864 38.4721 317.341 41.5344 316.293 44.238C315.246 46.8864 313.758 49.1211 311.828 50.9419C309.954 52.7627 307.694 54.142 305.048 55.08C302.402 56.018 299.452 56.487 296.2 56.487C292.947 56.487 289.998 55.9904 287.352 54.9973C284.706 54.0041 282.418 52.5971 280.489 50.7763C278.615 48.9003 277.154 46.6381 276.106 43.9897C275.059 41.3413 274.535 38.3618 274.535 35.0512C274.535 31.7959 275.059 28.844 276.106 26.1955C277.154 23.5471 278.615 21.3125 280.489 19.4917C282.418 17.6157 284.706 16.1811 287.352 15.188C289.998 14.1948 292.947 13.6982 296.2 13.6982C299.452 13.6982 302.402 14.2224 305.048 15.2707C307.694 16.2639 309.954 17.6985 311.828 19.5744C313.758 21.3952 315.246 23.6299 316.293 26.2783C317.341 28.9267 317.864 31.851 317.864 35.0512ZM288.923 35.0512C288.923 38.417 289.557 41.0102 290.825 42.831C292.148 44.5966 293.967 45.4795 296.283 45.4795C298.598 45.4795 300.362 44.5691 301.575 42.7483C302.843 40.9275 303.477 38.3618 303.477 35.0512C303.477 31.7407 302.843 29.2026 301.575 27.437C300.307 25.6162 298.515 24.7058 296.2 24.7058C293.885 24.7058 292.093 25.6162 290.825 27.437C289.557 29.2026 288.923 31.7407 288.923 35.0512Z" fill="#0AAF42"/>
<path d="M364 47.8796C363.724 50.4729 362.953 52.4592 361.685 53.8386C360.472 55.218 358.68 55.9077 356.31 55.9077C354.546 55.9077 352.975 55.4939 351.596 54.6662C350.218 53.7834 348.73 52.3212 347.131 50.2797L338.945 40.0171V55.08C338.339 55.1904 337.429 55.3283 336.216 55.4939C335.059 55.7146 333.873 55.8249 332.661 55.8249C331.448 55.8249 330.345 55.7421 329.353 55.5766C328.416 55.4111 327.617 55.08 326.955 54.5835C326.294 54.0869 325.77 53.4248 325.384 52.5971C325.053 51.7143 324.888 50.5832 324.888 49.2038V1.28369C325.494 1.11816 326.376 0.952634 327.534 0.787109C328.747 0.566406 329.959 0.456055 331.172 0.456055C332.385 0.456055 333.46 0.538818 334.397 0.704343C335.389 0.869871 336.216 1.20092 336.878 1.69751C337.539 2.19409 338.035 2.88378 338.366 3.76659C338.752 4.59423 338.945 5.69775 338.945 7.07714V28.9267L353.168 14.3603C356.034 14.3603 358.322 14.9949 360.031 16.2639C361.795 17.5329 362.677 19.133 362.677 21.0642C362.677 21.8918 362.539 22.6643 362.263 23.3816C361.988 24.0437 361.547 24.7334 360.94 25.4507C360.389 26.1679 359.645 26.9404 358.708 27.768C357.826 28.5405 356.778 29.4509 355.566 30.4992L350.77 34.6374L364 47.8796Z" fill="#0AAF42"/>
<defs>
<linearGradient id="paint0_linear_2437_46333" x1="65.3282" y1="7.941" x2="65.3282" y2="54.0381" gradientUnits="userSpaceOnUse">
<stop stop-color="#6FDC8C"/>
<stop offset="1" stop-color="#5DE180"/>
</linearGradient>
<linearGradient id="paint1_linear_2437_46333" x1="30.8956" y1="-2.1214" x2="30.8956" y2="56.208" gradientUnits="userSpaceOnUse">
<stop stop-color="#A7F0BA"/>
<stop offset="1" stop-color="#15AE41"/>
</linearGradient>
</defs>
</svg>
