<svg width="108" height="16" viewBox="0 0 108 16" fill="none" xmlns="http://www.w3.org/2000/svg">
<path fill-rule="evenodd" clip-rule="evenodd" d="M21.8986 2.9703C21.3873 2.94233 20.8349 2.91211 20.1308 2.91211C18.3899 2.91211 16.2291 3.54214 14.9431 4.99645C13.8767 6.29257 13.2363 7.95249 13.2363 9.76195C13.2363 11.9999 14.2158 14.0091 15.7695 15.3841C20.5348 13.7999 23.9714 9.30515 23.9714 4.00778C23.9714 3.66724 23.9572 3.33001 23.9293 2.99667C23.1592 3.03927 22.5635 3.00668 21.8986 2.9703Z" fill="url(#paint0_linear_2603_51286)"/>
<path fill-rule="evenodd" clip-rule="evenodd" d="M5.33765 0.801087C6.47784 0.944008 7.5293 1.07581 8.10252 1.19648C10.2393 1.64634 11.8016 2.37966 13.0945 3.48789C14.2402 4.46992 14.7439 5.17864 15.2222 6.18848C15.5731 6.92908 15.8202 7.54746 16.0024 8.06793C16.3046 9.12041 16.4664 10.2322 16.4664 11.3819C16.4664 12.7858 16.225 14.1334 15.7815 15.3854C14.5887 15.7833 13.3125 15.9988 11.9859 15.9988C5.36628 15.9988 0 10.6325 0 4.01289C0 2.60891 0.241394 1.26131 0.684941 0.00933246C0.6943 0.0062104 0.703664 0.00309958 0.713034 0C1.32014 0.297499 3.45044 0.564528 5.33765 0.801087Z" fill="url(#paint1_linear_2603_51286)"/>
<path d="M39.6006 4.17051C38.3911 4.17051 37.4643 4.53965 36.8203 5.27793C36.1763 6.01621 35.8543 7.0608 35.8543 8.4117C35.8543 9.77831 36.2077 10.8307 36.9146 11.569C37.6371 12.3073 38.6031 12.6765 39.8126 12.6765C40.4566 12.6765 40.9985 12.5901 41.4383 12.4173C41.8939 12.2445 42.3258 12.0481 42.7342 11.8282C43.0012 12.0481 43.2054 12.3152 43.3468 12.6293C43.5039 12.9278 43.5824 13.2812 43.5824 13.6896C43.5824 14.3337 43.2211 14.8834 42.4986 15.339C41.7918 15.7788 40.7079 15.9987 39.2471 15.9987C38.1947 15.9987 37.2052 15.8495 36.2784 15.551C35.3517 15.2526 34.5427 14.7971 33.8516 14.1844C33.1605 13.5561 32.6107 12.7707 32.2023 11.8282C31.8096 10.87 31.6133 9.73118 31.6133 8.4117C31.6133 7.18646 31.8018 6.11046 32.1788 5.18368C32.5714 4.24119 33.0976 3.44793 33.7574 2.8039C34.4328 2.15987 35.2182 1.67291 36.1135 1.34304C37.0088 1.01317 37.967 0.848239 38.988 0.848239C40.4331 0.848239 41.5483 1.08386 42.3337 1.5551C43.1348 2.02635 43.5353 2.63111 43.5353 3.36939C43.5353 3.7778 43.4332 4.13124 43.229 4.42969C43.0248 4.72814 42.7892 4.96377 42.5222 5.13655C42.1138 4.86952 41.674 4.64175 41.2027 4.45325C40.7472 4.26475 40.2132 4.17051 39.6006 4.17051Z" fill="#0AAF42"/>
<path d="M56.7836 15.551C56.6265 15.5982 56.3752 15.6453 56.0296 15.6924C55.6997 15.7395 55.3542 15.7631 54.9929 15.7631C54.6473 15.7631 54.3332 15.7395 54.0504 15.6924C53.7834 15.6453 53.5557 15.551 53.3672 15.4097C53.1787 15.2683 53.0295 15.0798 52.9195 14.8442C52.8253 14.5928 52.7781 14.2708 52.7781 13.8781V8.64732C52.7781 8.00329 52.6132 7.55561 52.2833 7.30428C51.9692 7.03724 51.5765 6.90372 51.1053 6.90372C50.7911 6.90372 50.4927 6.94299 50.21 7.02153C49.9272 7.10007 49.6995 7.19432 49.5267 7.30428V15.551C49.3696 15.5982 49.1183 15.6453 48.7727 15.6924C48.4429 15.7395 48.0973 15.7631 47.736 15.7631C47.3904 15.7631 47.0763 15.7395 46.7936 15.6924C46.5265 15.6453 46.2988 15.551 46.1103 15.4097C45.9218 15.2683 45.7726 15.0798 45.6626 14.8442C45.5684 14.5928 45.5213 14.2708 45.5213 13.8781V0.21206C45.694 0.180643 45.9454 0.141373 46.2752 0.0942487C46.6208 0.0314161 46.9663 0 47.3119 0C47.6575 0 47.9638 0.023562 48.2308 0.0706858C48.5135 0.11781 48.7492 0.212059 48.9376 0.353432C49.1261 0.494805 49.2675 0.691156 49.3617 0.942486C49.4717 1.17811 49.5267 1.49227 49.5267 1.88497V4.19407C49.7309 4.11553 50.0372 4.02913 50.4456 3.93488C50.8697 3.82493 51.333 3.76995 51.8357 3.76995C53.3907 3.76995 54.6002 4.16265 55.4641 4.94806C56.3437 5.71776 56.7836 6.8723 56.7836 8.4117V15.551Z" fill="#0AAF42"/>
<path d="M71.1079 9.84899C71.1079 10.8229 70.9587 11.6947 70.6602 12.4644C70.3618 13.2184 69.9377 13.8546 69.3879 14.3729C68.8539 14.8913 68.2099 15.284 67.4559 15.551C66.7019 15.8181 65.8616 15.9516 64.9348 15.9516C64.0081 15.9516 63.1677 15.8102 62.4138 15.5275C61.6598 15.2447 61.008 14.8442 60.4582 14.3258C59.9241 13.7917 59.5079 13.1477 59.2094 12.3937C58.911 11.6397 58.7618 10.7915 58.7618 9.84899C58.7618 8.92221 58.911 8.08183 59.2094 7.32784C59.5079 6.57385 59.9241 5.93767 60.4582 5.4193C61.008 4.88522 61.6598 4.47681 62.4138 4.19407C63.1677 3.91132 64.0081 3.76995 64.9348 3.76995C65.8616 3.76995 66.7019 3.91918 67.4559 4.21763C68.2099 4.50038 68.8539 4.90879 69.3879 5.44286C69.9377 5.96123 70.3618 6.59741 70.6602 7.3514C70.9587 8.10539 71.1079 8.93792 71.1079 9.84899ZM62.8614 9.84899C62.8614 10.8072 63.0421 11.5455 63.4034 12.0638C63.7803 12.5665 64.2987 12.8178 64.9584 12.8178C65.6181 12.8178 66.1208 12.5586 66.4663 12.0403C66.8276 11.5219 67.0082 10.7915 67.0082 9.84899C67.0082 8.9065 66.8276 8.18393 66.4663 7.68127C66.105 7.1629 65.5946 6.90372 64.9348 6.90372C64.2751 6.90372 63.7646 7.1629 63.4034 7.68127C63.0421 8.18393 62.8614 8.9065 62.8614 9.84899Z" fill="#0AAF42"/>
<path d="M77.0674 15.551C76.9104 15.5982 76.659 15.6453 76.3135 15.6924C75.9836 15.7395 75.638 15.7631 75.2768 15.7631C74.9312 15.7631 74.6171 15.7395 74.3343 15.6924C74.0673 15.6453 73.8395 15.551 73.651 15.4097C73.4626 15.2683 73.3133 15.0798 73.2034 14.8442C73.1091 14.5928 73.062 14.2708 73.062 13.8781V6.80947C73.062 6.44818 73.1248 6.14187 73.2505 5.89054C73.3919 5.62351 73.5882 5.38789 73.8395 5.18368C74.0909 4.97947 74.3972 4.79883 74.7584 4.64175C75.1354 4.46896 75.5359 4.31973 75.96 4.19407C76.3842 4.0684 76.824 3.97415 77.2795 3.91132C77.735 3.83278 78.1905 3.79351 78.646 3.79351C79.4 3.79351 79.9969 3.94274 80.4367 4.24119C80.8765 4.52394 81.0964 4.99518 81.0964 5.65492C81.0964 5.87484 81.065 6.09475 81.0022 6.31466C80.9393 6.51887 80.8608 6.70737 80.7666 6.88016C80.4367 6.88016 80.099 6.89586 79.7534 6.92728C79.4079 6.9587 79.0701 7.00582 78.7403 7.06865C78.4104 7.13149 78.0963 7.20217 77.7978 7.28071C77.5151 7.34355 77.2716 7.42209 77.0674 7.51634V15.551Z" fill="#0AAF42"/>
<path d="M94.163 9.84899C94.163 10.8229 94.0138 11.6947 93.7153 12.4644C93.4169 13.2184 92.9928 13.8546 92.443 14.3729C91.909 14.8913 91.265 15.284 90.511 15.551C89.757 15.8181 88.9167 15.9516 87.9899 15.9516C87.0632 15.9516 86.2228 15.8102 85.4689 15.5275C84.7149 15.2447 84.0631 14.8442 83.5133 14.3258C82.9792 13.7917 82.563 13.1477 82.2645 12.3937C81.9661 11.6397 81.8169 10.7915 81.8169 9.84899C81.8169 8.92221 81.9661 8.08183 82.2645 7.32784C82.563 6.57385 82.9792 5.93767 83.5133 5.4193C84.0631 4.88522 84.7149 4.47681 85.4689 4.19407C86.2228 3.91132 87.0632 3.76995 87.9899 3.76995C88.9167 3.76995 89.757 3.91918 90.511 4.21763C91.265 4.50038 91.909 4.90879 92.443 5.44286C92.9928 5.96123 93.4169 6.59741 93.7153 7.3514C94.0138 8.10539 94.163 8.93792 94.163 9.84899ZM85.9165 9.84899C85.9165 10.8072 86.0972 11.5455 86.4585 12.0638C86.8354 12.5665 87.3538 12.8178 88.0135 12.8178C88.6732 12.8178 89.1759 12.5586 89.5214 12.0403C89.8827 11.5219 90.0633 10.7915 90.0633 9.84899C90.0633 8.9065 89.8827 8.18393 89.5214 7.68127C89.1601 7.1629 88.6497 6.90372 87.9899 6.90372C87.3302 6.90372 86.8197 7.1629 86.4585 7.68127C86.0972 8.18393 85.9165 8.9065 85.9165 9.84899Z" fill="#0AAF42"/>
<path d="M107.309 13.5011C107.23 14.2394 107.01 14.8049 106.649 15.1976C106.303 15.5903 105.793 15.7867 105.118 15.7867C104.615 15.7867 104.167 15.6689 103.775 15.4332C103.382 15.1819 102.958 14.7656 102.502 14.1844L100.17 11.2627V15.551C99.9969 15.5825 99.7377 15.6217 99.3921 15.6689C99.0623 15.7317 98.7246 15.7631 98.379 15.7631C98.0334 15.7631 97.7193 15.7395 97.4365 15.6924C97.1695 15.6453 96.9417 15.551 96.7533 15.4097C96.5648 15.2683 96.4156 15.0798 96.3056 14.8442C96.2114 14.5928 96.1642 14.2708 96.1642 13.8781V0.235621C96.337 0.188496 96.5883 0.141373 96.9182 0.0942487C97.2638 0.0314161 97.6093 0 97.9549 0C98.3005 0 98.6068 0.023562 98.8738 0.0706858C99.1565 0.11781 99.3921 0.212059 99.5806 0.353432C99.7691 0.494805 99.9105 0.691156 100.005 0.942486C100.115 1.17811 100.17 1.49227 100.17 1.88497V8.10539L104.222 3.95845C105.039 3.95845 105.691 4.13909 106.178 4.50038C106.68 4.86166 106.932 5.3172 106.932 5.86698C106.932 6.1026 106.892 6.32252 106.814 6.52672C106.735 6.71522 106.61 6.91157 106.437 7.11578C106.28 7.31998 106.068 7.5399 105.801 7.77552C105.549 7.99543 105.251 8.25462 104.905 8.55307L103.539 9.73118L107.309 13.5011Z" fill="#0AAF42"/>
<defs>
<linearGradient id="paint0_linear_2603_51286" x1="18.6038" y1="2.25899" x2="18.6038" y2="15.3841" gradientUnits="userSpaceOnUse">
<stop stop-color="#6FDC8C"/>
<stop offset="1" stop-color="#5DE180"/>
</linearGradient>
<linearGradient id="paint1_linear_2603_51286" x1="8.79854" y1="-0.604141" x2="8.79854" y2="16.0071" gradientUnits="userSpaceOnUse">
<stop stop-color="#A7F0BA"/>
<stop offset="1" stop-color="#15AE41"/>
</linearGradient>
</defs>
</svg>
