<svg width="56" height="56" viewBox="0 0 56 56" fill="none" xmlns="http://www.w3.org/2000/svg">
<circle cx="28" cy="28" r="28" fill="#C4EAFF"/>
<path d="M18.25 31.2501C18.25 36.6668 22.5834 41.0002 28.0001 41.0002C33.4168 41.0002 37.7501 36.6668 37.7501 31.2501C37.7501 24.4251 31.0334 15 28.0001 15C25.6167 15 22.5834 19.6584 21.9334 20.6334C20.85 22.3667 18.25 26.9167 18.25 31.2501Z" fill="#47BDFF"/>
<path d="M28 36.6668H27.8916C25.1833 36.5585 22.7999 34.0668 22.5833 31.3584V31.2501C22.5833 30.6001 23.0166 30.1667 23.6666 30.1667C24.2083 30.1667 24.7499 30.6001 24.7499 31.2501C24.7499 32.8751 26.3749 34.5001 28 34.5001C28.5416 34.5001 29.0833 35.0418 29.0833 35.5834C29.0833 36.1251 28.65 36.6668 28 36.6668Z" fill="white"/>
</svg>
