<svg width="24" height="24" viewBox="0 0 24 24" fill="none" xmlns="http://www.w3.org/2000/svg">
<path d="M14 14.759V3.49981C14 2.83682 13.7366 2.20098 13.2678 1.73218C12.7989 1.26337 12.163 1 11.5 1C10.837 1 10.2011 1.26337 9.73223 1.73218C9.26339 2.20098 9 2.83682 9 3.49981V14.759C8.19728 15.2953 7.58832 16.0755 7.26307 16.9844C6.93782 17.8933 6.91352 18.8827 7.19376 19.8065C7.47399 20.7303 8.04391 21.5394 8.81934 22.1145C9.59476 22.6895 10.5346 23 11.5 23C12.4654 23 13.4052 22.6895 14.1807 22.1145C14.9561 21.5394 15.526 20.7303 15.8062 19.8065C16.0865 18.8827 16.0622 17.8933 15.7369 16.9844C15.4117 16.0755 14.8027 15.2953 14 14.759Z" stroke="#42BE65" stroke-width="1.5" stroke-linecap="round" stroke-linejoin="round"/>
<path d="M10 11H12" stroke="#42BE65" stroke-linecap="round"/>
<path d="M10 9H12" stroke="#42BE65" stroke-linecap="round"/>
<path d="M10 7H12" stroke="#42BE65" stroke-linecap="round"/>
<circle cx="10.5" cy="19.5" r="1.5" fill="#A7F0BA"/>
</svg>
