<svg width="24" height="24" viewBox="0 0 24 24" fill="none" xmlns="http://www.w3.org/2000/svg">
<path d="M18.7335 7.72999C19.0244 7.43988 19.3824 7.2259 19.7757 7.107C20.169 6.9881 20.5855 6.96793 20.9885 7.04828C21.3915 7.12862 21.7684 7.30701 22.086 7.56766C22.4036 7.82831 22.6521 8.16319 22.8094 8.54268C22.9667 8.92218 23.0281 9.33459 22.9881 9.74344C22.9481 10.1523 22.8079 10.545 22.58 10.8868C22.3521 11.2286 22.0434 11.509 21.6813 11.7031C21.3192 11.8973 20.9148 11.9993 20.5039 12H3M10.5917 4.58998C10.8241 4.3563 11.1106 4.18363 11.4258 4.08732C11.7409 3.99102 12.0751 3.97407 12.3984 4.03797C12.7217 4.10188 13.0242 4.24466 13.2791 4.45363C13.5339 4.6626 13.7331 4.93127 13.8591 5.23578C13.985 5.54028 14.0337 5.87118 14.0009 6.19905C13.9681 6.52692 13.8548 6.84161 13.671 7.11515C13.4873 7.38868 13.2388 7.61259 12.9476 7.76696C12.6564 7.92132 12.3316 8.00137 12.002 7.99999H3L10.5917 4.58998ZM13.5924 19.41C13.8247 19.6437 14.1112 19.8164 14.4264 19.9127C14.7416 20.009 15.0757 20.0259 15.3991 19.962C15.7224 19.8981 16.0249 19.7553 16.2797 19.5464C16.5346 19.3374 16.7338 19.0687 16.8597 18.7642C16.9857 18.4597 17.0344 18.1288 17.0016 17.8009C16.9688 17.4731 16.8555 17.1584 16.6717 16.8849C16.4879 16.6113 16.2394 16.3874 15.9483 16.233C15.6571 16.0787 15.3323 15.9986 15.0027 16H3L13.5924 19.41Z" stroke="#42BE65" stroke-width="1.5" stroke-linecap="round" stroke-linejoin="round"/>
</svg>
