<svg width="56" height="56" viewBox="0 0 56 56" fill="none" xmlns="http://www.w3.org/2000/svg">
<circle cx="28" cy="28" r="28" fill="#DEFBE6"/>
<g opacity="0.8">
<path fill-rule="evenodd" clip-rule="evenodd" d="M39.872 23.544C39.2625 23.5106 38.6041 23.4746 37.7648 23.4746C35.7049 23.4746 33.1516 24.2146 31.6148 25.9212C30.3231 27.4722 29.5461 29.4669 29.5461 31.6431C29.5461 34.3107 30.7137 36.7057 32.5657 38.3448C38.246 36.4563 42.3424 31.0986 42.3424 24.784C42.3424 24.377 42.3254 23.9739 42.292 23.5754C41.3743 23.6262 40.6644 23.5873 39.872 23.544Z" fill="url(#paint0_linear_2513_48870)"/>
<path fill-rule="evenodd" clip-rule="evenodd" d="M20.3614 20.9541C21.7206 21.1245 22.9739 21.2816 23.6572 21.4254C26.2043 21.9617 28.0665 22.8358 29.6077 24.1568C30.9734 25.3274 31.5738 26.1722 32.144 27.3759C32.5651 28.2649 32.8609 29.0061 33.0784 29.6291C33.4364 30.8802 33.6281 32.2015 33.6281 33.5675C33.6281 35.2411 33.3404 36.8474 32.8117 38.3398C31.3899 38.8141 29.8686 39.071 28.2874 39.071C20.3967 39.071 14 32.6743 14 24.7836C14 23.11 14.2877 21.5037 14.8165 20.0113C14.8278 20.0075 14.8391 20.0038 14.8505 20C15.5764 20.3543 18.1136 20.6723 20.3614 20.9541Z" fill="url(#paint1_linear_2513_48870)"/>
</g>
<defs>
<linearGradient id="paint0_linear_2513_48870" x1="35.9443" y1="22.6959" x2="35.9443" y2="38.3449" gradientUnits="userSpaceOnUse">
<stop stop-color="#6FDC8C"/>
<stop offset="1" stop-color="#5DE180"/>
</linearGradient>
<linearGradient id="paint1_linear_2513_48870" x1="24.488" y1="19.2799" x2="24.488" y2="39.0809" gradientUnits="userSpaceOnUse">
<stop stop-color="#A7F0BA"/>
<stop offset="1" stop-color="#15AE41"/>
</linearGradient>
</defs>
</svg>
