<svg width="62" height="87" viewBox="2 2 58 58" fill="none" xmlns="http://www.w3.org/2000/svg">
<circle cx="31" cy="31" r="28" fill="#DEFBE6"/>
<path d="M33 34C33 33.4477 33.4477 33 34 33C34.5523 33 35 33.4477 35 34C35 34.5523 34.5523 35 34 35C33.4477 35 33 34.5523 33 34Z" stroke="#0AAF42" stroke-width="2" stroke-linecap="round" stroke-linejoin="round"/>
<path d="M27 34C27 33.4477 27.4477 33 28 33C28.5523 33 29 33.4477 29 34C29 34.5523 28.5523 35 28 35C27.4477 35 27 34.5523 27 34Z" stroke="#0AAF42" stroke-width="2" stroke-linecap="round" stroke-linejoin="round"/>
<path d="M33 28C33 27.4477 33.4477 27 34 27C34.5523 27 35 27.4477 35 28C35 28.5523 34.5523 29 34 29C33.4477 29 33 28.5523 33 28Z" stroke="#0AAF42" stroke-width="2" stroke-linecap="round" stroke-linejoin="round"/>
<path d="M27 28C27 27.4477 27.4477 27 28 27C28.5523 27 29 27.4477 29 28C29 28.5523 28.5523 29 28 29C27.4477 29 27 28.5523 27 28Z" stroke="#0AAF42" stroke-width="2" stroke-linecap="round" stroke-linejoin="round"/>
</svg>
