<svg width="56" height="56" viewBox="0 0 56 56" fill="none" xmlns="http://www.w3.org/2000/svg">
<rect width="56" height="56" fill="#E5E5E5"/>
<g filter="url(#filter0_d_3_4)">
<g clip-path="url(#clip0_3_4)">
<rect x="-250" y="-266" width="360" height="800" rx="30" fill="white"/>
<circle cx="28" cy="28" r="27.5" stroke="#E0E0E0"/>
<path fill-rule="evenodd" clip-rule="evenodd" d="M29 22C29 21.4477 28.5523 21 28 21C27.4477 21 27 21.4477 27 22V27H22C21.4477 27 21 27.4477 21 28C21 28.5523 21.4477 29 22 29H27V34C27 34.5523 27.4477 35 28 35C28.5523 35 29 34.5523 29 34V29H34C34.5523 29 35 28.5523 35 28C35 27.4477 34.5523 27 34 27H29V22Z" fill="#A8A8A8"/>
</g>
</g>
<defs>
<filter id="filter0_d_3_4" x="-354" y="-350" width="568" height="1008" filterUnits="userSpaceOnUse" color-interpolation-filters="sRGB">
<feFlood flood-opacity="0" result="BackgroundImageFix"/>
<feColorMatrix in="SourceAlpha" type="matrix" values="0 0 0 0 0 0 0 0 0 0 0 0 0 0 0 0 0 0 127 0" result="hardAlpha"/>
<feOffset dy="20"/>
<feGaussianBlur stdDeviation="52"/>
<feComposite in2="hardAlpha" operator="out"/>
<feColorMatrix type="matrix" values="0 0 0 0 0 0 0 0 0 0 0 0 0 0 0 0 0 0 0.1 0"/>
<feBlend mode="normal" in2="BackgroundImageFix" result="effect1_dropShadow_3_4"/>
<feBlend mode="normal" in="SourceGraphic" in2="effect1_dropShadow_3_4" result="shape"/>
</filter>
<clipPath id="clip0_3_4">
<rect x="-250" y="-266" width="360" height="800" rx="30" fill="white"/>
</clipPath>
</defs>
</svg>
