<svg width="56" height="56" viewBox="0 0 56 56" fill="none" xmlns="http://www.w3.org/2000/svg">
<circle cx="28" cy="28" r="28" fill="#FFE4CC"/>
<path d="M27.5354 22.1592H28.6961V33.2612C28.6961 33.5401 28.47 33.7662 28.1911 33.7662H27.5354V22.1592Z" fill="#68BE3F"/>
<path d="M28.0002 22.6986C28.0002 18.5545 31.3597 15.1951 35.5038 15.1951H36.543C36.9533 15.1951 37.2859 15.5277 37.2859 15.9379V16.9772C37.2859 21.1213 33.9264 24.4807 29.7823 24.4807H28.3754C28.1682 24.4807 28.0002 24.3128 28.0002 24.1055V22.6986Z" fill="#68BE3F"/>
<path d="M18.7146 16.9772C18.7146 21.1213 22.0741 24.4807 26.2182 24.4807H27.6251C27.8323 24.4807 28.0003 24.3127 28.0003 24.1055V22.6986C28.0003 18.5545 24.6408 15.1951 20.4967 15.1951H19.4575C19.0472 15.1951 18.7146 15.5276 18.7146 15.9379V16.9772Z" fill="#4D942C"/>
<path d="M38.1711 30.8965H17.8286C17.5851 30.8965 17.4 31.1151 17.44 31.3552L19.0589 41.0687C19.2172 42.0185 20.0389 42.7146 21.0018 42.7146H34.9979C35.9607 42.7146 36.7825 42.0185 36.9407 41.0687L38.5597 31.3552C38.5997 31.1151 38.4145 30.8965 38.1711 30.8965Z" fill="#C88044"/>
<rect x="15.0002" y="23.8057" width="25.9998" height="7.87874" rx="3.93937" fill="#FE9A51"/>
</svg>
