<svg width="56" height="56" viewBox="0 0 56 56" fill="none" xmlns="http://www.w3.org/2000/svg">
<circle cx="28" cy="28" r="28" fill="#D0F4BF"/>
<path d="M25.7787 32.9378C23.1506 32.6611 16.1069 32.9774 14.9941 23.6672C23.5877 22.7695 26.4619 24.8277 25.7787 32.9378C26.6778 33.7966 27.464 36.6383 27.7487 39.4846C28.1603 35.7455 28.3099 29.9605 32.0206 26.3573C29.671 21.192 31.0848 16.5289 40.9379 17.006C41.4879 20.1087 40.9824 27.8731 32.0206 26.3573C28.3099 29.9605 28.1603 35.7455 27.7487 39.4846C27.464 36.6383 26.6778 33.7966 25.7787 32.9378Z" fill="#68BE3F"/>
<path fill-rule="evenodd" clip-rule="evenodd" d="M30.8831 26.1493C29.8733 23.6415 29.6402 21.0138 31.1281 18.9954C32.7208 16.8348 35.9809 15.8027 40.9848 16.045C41.434 16.0667 41.8084 16.3963 41.8869 16.8391C42.1827 18.5078 42.2147 21.4743 40.8905 23.8796C40.2138 25.1088 39.1774 26.1974 37.6557 26.8572C36.2516 27.466 34.5051 27.6793 32.3638 27.3858C30.9001 28.9638 30.0808 30.9741 29.586 33.0907C29.1696 34.8716 28.9977 36.6461 28.8417 38.2565C28.7972 38.716 28.754 39.1622 28.7067 39.5914C28.6527 40.0816 28.2374 40.4519 27.7442 40.4494C27.2511 40.447 26.8394 40.0725 26.7904 39.5818C26.6531 38.209 26.3953 36.8467 26.07 35.7386C25.9073 35.1843 25.7324 34.7099 25.5555 34.3368C25.46 34.1352 25.3716 33.9798 25.2946 33.8635C25.2032 33.8564 25.1067 33.8493 25.0054 33.8418C23.648 33.742 21.4302 33.579 19.3861 32.5524C16.8391 31.2731 14.6285 28.7249 14.0378 23.7828C14.0072 23.5266 14.0806 23.2689 14.2416 23.0673C14.4026 22.8657 14.6377 22.7371 14.8943 22.7102C17.0763 22.4823 18.9523 22.435 20.527 22.6426C22.1054 22.8507 23.4421 23.3229 24.4806 24.1843C26.5168 25.8731 27.0486 28.7326 26.7708 32.6143C26.9729 32.8844 27.1465 33.1944 27.2968 33.5115C27.3517 33.6273 27.4052 33.7478 27.4574 33.8726C27.5312 33.4667 27.6146 33.0587 27.7097 32.652C28.2388 30.3889 29.1507 28.0511 30.8831 26.1493ZM24.909 30.4797C24.8606 27.9697 24.2715 26.5143 23.2505 25.6675C22.5817 25.1128 21.6313 24.7318 20.2751 24.553C19.1372 24.403 17.7568 24.401 16.0974 24.5338C16.7651 28.2206 18.49 29.946 20.2509 30.8304C21.326 31.3704 22.4385 31.6184 23.4621 31.755C22.837 31.1059 22.1113 30.3884 21.3998 29.7018C20.6746 29.002 19.988 28.3568 19.4823 27.8862C19.2296 27.6511 19.0224 27.4598 18.8786 27.3275C18.8067 27.2614 18.7507 27.21 18.7127 27.1753C18.6937 27.1579 18.6793 27.1447 18.6696 27.1359L18.6554 27.1229C18.6554 27.1229 18.6554 27.1229 18.7832 26.9827L18.6554 27.1229C18.2621 26.7645 18.2338 26.1551 18.5922 25.7618C18.9506 25.3685 19.56 25.3403 19.9533 25.6987L19.3043 26.4108C19.9533 25.6987 19.9533 25.6987 19.9534 25.6988L19.9536 25.699L19.969 25.713C19.9792 25.7223 19.9942 25.736 20.0137 25.7539C20.0527 25.7896 20.1099 25.842 20.183 25.9093C20.3292 26.0438 20.5392 26.2376 20.795 26.4756C21.3063 26.9514 22.0019 27.605 22.7378 28.3152C23.45 29.0025 24.2243 29.7656 24.909 30.4797ZM33.7334 25.5792C35.061 25.6381 36.0908 25.4355 36.8891 25.0893C37.9655 24.6227 38.7014 23.8605 39.2025 22.9503C40.0679 21.3783 40.2141 19.3888 40.0887 17.942C35.7772 17.8563 33.6129 18.8721 32.6791 20.1388C31.9315 21.153 31.7959 22.5787 32.2834 24.3083C32.7405 23.7488 33.2755 23.1458 33.7835 22.5922C34.3075 22.0212 34.8098 21.4951 35.1807 21.1122C35.3663 20.9205 35.5194 20.7643 35.6264 20.6557C35.6799 20.6014 35.7219 20.559 35.7507 20.53C35.7651 20.5155 35.7762 20.5043 35.7838 20.4967L35.7955 20.485L35.7957 20.4848C35.7957 20.4847 35.7958 20.4847 36.4775 21.1655L35.7958 20.4847C36.1718 20.1082 36.7818 20.1078 37.1583 20.4838C37.5348 20.8598 37.5352 21.4698 37.1592 21.8463L37.1493 21.8562C37.1425 21.8631 37.1321 21.8735 37.1185 21.8873C37.0912 21.9147 37.0508 21.9555 36.999 22.0081C36.8953 22.1133 36.7461 22.2656 36.5648 22.4528C36.2018 22.8276 35.7121 23.3405 35.2033 23.895C34.6931 24.4509 34.1708 25.041 33.7397 25.5715C33.7376 25.5741 33.7355 25.5767 33.7334 25.5792Z" fill="#68BE3F"/>
<path fill-rule="evenodd" clip-rule="evenodd" d="M37.2064 20.3153C37.6753 20.7177 37.7293 21.424 37.3269 21.8929L32.8704 27.0861C32.468 27.555 31.7617 27.6089 31.2928 27.2065C30.8239 26.8041 30.77 26.0978 31.1724 25.6289L35.6289 20.4358C36.0312 19.9669 36.7375 19.9129 37.2064 20.3153ZM18.4778 25.6561C18.894 25.1994 19.6016 25.1665 20.0582 25.5827L19.3047 26.4096C20.0582 25.5827 20.0583 25.5827 20.0584 25.5828L20.0741 25.5972C20.0843 25.6065 20.0993 25.6202 20.1189 25.6381C20.158 25.6739 20.2153 25.7265 20.2885 25.7938C20.435 25.9285 20.6452 26.1225 20.9012 26.3607C21.413 26.837 22.1093 27.4913 22.8461 28.2023C24.2824 29.5884 25.988 31.2985 26.6919 32.2906C27.0494 32.7945 26.9308 33.4928 26.4269 33.8504C25.9229 34.2079 25.2246 34.0893 24.867 33.5854C24.3099 32.8001 22.778 31.2461 21.2923 29.8124C20.568 29.1134 19.8821 28.4689 19.3769 27.9988C19.1245 27.7638 18.9175 27.5728 18.7739 27.4407C18.702 27.3746 18.6461 27.3234 18.6082 27.2887C18.5893 27.2714 18.5749 27.2582 18.5653 27.2494L18.5513 27.2367L18.5512 27.2366C18.5512 27.2366 18.5512 27.2366 18.5615 27.2252L18.5512 27.2366C18.0945 26.8204 18.0616 26.1128 18.4778 25.6561Z" fill="#4D942C"/>
</svg>
