<svg width="56" height="56" viewBox="0 0 56 56" fill="none" xmlns="http://www.w3.org/2000/svg">
<circle cx="28" cy="28" r="28" fill="#C4DFFF"/>
<path fill-rule="evenodd" clip-rule="evenodd" d="M36.528 21.0329C37.2086 20.8264 37.9296 20.791 38.6271 20.9298C39.3246 21.0685 39.9772 21.3772 40.5269 21.8283C41.0767 22.2795 41.5067 22.8593 41.7788 23.5163C42.051 24.1734 42.1569 24.8874 42.0872 25.5952C42.0175 26.3029 41.7743 26.9826 41.3792 27.5739C40.9841 28.1652 40.4492 28.65 39.822 28.9853C39.1948 29.3205 38.4946 29.4959 37.7834 29.4959H15.3444C14.7264 29.4959 14.2253 28.9949 14.2253 28.3769C14.2253 27.7588 14.7264 27.2578 15.3444 27.2578H37.7834C38.1265 27.2578 38.4644 27.1732 38.767 27.0115C39.0696 26.8497 39.3277 26.6158 39.5183 26.3305C39.7089 26.0452 39.8263 25.7173 39.8599 25.3758C39.8935 25.0343 39.8424 24.6898 39.7111 24.3728C39.5798 24.0558 39.3723 23.7761 39.1071 23.5584C38.8418 23.3407 38.527 23.1918 38.1905 23.1248C37.8539 23.0579 37.5061 23.075 37.1777 23.1746C36.8494 23.2742 36.5506 23.4533 36.308 23.6959C35.871 24.1329 35.1625 24.1329 34.7254 23.6959C34.2884 23.2589 34.2884 22.5503 34.7254 22.1133C35.2283 21.6104 35.8475 21.2393 36.528 21.0329Z" fill="#4075FF"/>
<path fill-rule="evenodd" clip-rule="evenodd" d="M25.8152 17.1586C26.3949 16.9828 27.0089 16.9526 27.6031 17.0708C28.1972 17.189 28.753 17.4518 29.2212 17.8361C29.6895 18.2204 30.0557 18.7142 30.2876 19.2739C30.5194 19.8335 30.6096 20.4417 30.5502 21.0445C30.4908 21.6474 30.2837 22.2263 29.9472 22.7299C29.6106 23.2336 29.1551 23.6465 28.6208 23.9321C28.0866 24.2176 27.4902 24.367 26.8844 24.367H15.3444C14.7264 24.367 14.2253 23.866 14.2253 23.248C14.2253 22.6299 14.7264 22.1289 15.3444 22.1289H26.8844C27.1221 22.1289 27.3562 22.0703 27.5658 21.9582C27.7754 21.8462 27.9542 21.6842 28.0863 21.4865C28.2183 21.2889 28.2996 21.0617 28.3229 20.8252C28.3462 20.5886 28.3108 20.35 28.2198 20.1304C28.1289 19.9107 27.9852 19.717 27.8014 19.5662C27.6177 19.4154 27.3996 19.3122 27.1664 19.2658C26.9333 19.2195 26.6923 19.2313 26.4649 19.3003C26.2374 19.3693 26.0305 19.4933 25.8624 19.6614C25.4254 20.0984 24.7168 20.0984 24.2798 19.6614C23.8428 19.2244 23.8428 18.5159 24.2798 18.0789C24.7082 17.6505 25.2355 17.3345 25.8152 17.1586Z" fill="#6FA0FF"/>
<path fill-rule="evenodd" clip-rule="evenodd" d="M14.2253 33.5058C14.2253 32.8877 14.7264 32.3867 15.3444 32.3867H30.7311C31.3369 32.3867 31.9333 32.5361 32.4675 32.8217C33.0017 33.1072 33.4573 33.5201 33.7938 34.0238C34.1304 34.5274 34.3375 35.1063 34.3969 35.7092C34.4563 36.312 34.3661 36.9202 34.1342 37.4798C33.9024 38.0395 33.5362 38.5333 33.0679 38.9176C32.5997 39.3019 32.0439 39.5648 31.4497 39.6829C30.8556 39.8011 30.2415 39.7709 29.6619 39.5951C29.0822 39.4193 28.5548 39.1032 28.1265 38.6748C27.6895 38.2378 27.6895 37.5293 28.1265 37.0923C28.5635 36.6553 29.2721 36.6553 29.7091 37.0923C29.8771 37.2604 30.0841 37.3844 30.3116 37.4534C30.539 37.5224 30.78 37.5342 31.0131 37.4879C31.2463 37.4415 31.4644 37.3383 31.6481 37.1875C31.8318 37.0367 31.9756 36.843 32.0665 36.6234C32.1575 36.4037 32.1929 36.1651 32.1696 35.9285C32.1463 35.692 32.065 35.4648 31.933 35.2672C31.8009 35.0695 31.6221 34.9075 31.4125 34.7955C31.2029 34.6834 30.9688 34.6248 30.7311 34.6248H15.3444C14.7264 34.6248 14.2253 34.1238 14.2253 33.5058Z" fill="#4075FF"/>
</svg>
