<svg width="32" height="32" viewBox="0 0 32 32" fill="none" xmlns="http://www.w3.org/2000/svg">
<circle cx="16" cy="16" r="16" fill="#DEFBE6"/>
<g opacity="0.8">
<path fill-rule="evenodd" clip-rule="evenodd" d="M22.7842 13.4557C22.4359 13.4366 22.0597 13.416 21.5801 13.416C20.4044 13.416 18.9475 13.8379 18.069 14.8105C17.329 15.6973 16.8838 16.8386 16.8838 18.0839C16.8838 19.6083 17.551 20.9768 18.6092 21.9135C21.8551 20.8343 24.196 17.7728 24.196 14.1645C24.196 13.9318 24.1862 13.7014 24.1671 13.4736C23.6427 13.5026 23.237 13.4804 22.7842 13.4557Z" fill="url(#paint0_linear_2603_50926)"/>
<path fill-rule="evenodd" clip-rule="evenodd" d="M11.6352 11.9755C12.4118 12.0729 13.128 12.1627 13.5185 12.2449C14.974 12.5513 16.0381 13.0508 16.9188 13.8057C17.6992 14.4746 18.0422 14.9573 18.3681 15.6452C18.6095 16.1549 18.7789 16.5796 18.9033 16.9364C19.107 17.6499 19.2161 18.4033 19.2161 19.1821C19.2161 20.1384 19.0517 21.0564 18.7495 21.9091C17.9371 22.1802 17.0678 22.327 16.1642 22.327C11.6552 22.327 8 18.6717 8 14.1627C8 13.2064 8.16443 12.2885 8.46655 11.4357C8.4726 11.4337 8.47866 11.4317 8.48472 11.4297C8.89771 11.6324 10.3493 11.8144 11.6352 11.9755Z" fill="url(#paint1_linear_2603_50926)"/>
</g>
<defs>
<linearGradient id="paint0_linear_2603_50926" x1="20.5399" y1="12.971" x2="20.5399" y2="21.9133" gradientUnits="userSpaceOnUse">
<stop stop-color="#6FDC8C"/>
<stop offset="1" stop-color="#5DE180"/>
</linearGradient>
<linearGradient id="paint1_linear_2603_50926" x1="13.9931" y1="11.0182" x2="13.9931" y2="22.3326" gradientUnits="userSpaceOnUse">
<stop stop-color="#A7F0BA"/>
<stop offset="1" stop-color="#15AE41"/>
</linearGradient>
</defs>
</svg>
