<svg width="96" height="96" viewBox="0 0 96 96" fill="none" xmlns="http://www.w3.org/2000/svg">
<circle cx="48" cy="48" r="48" fill="#DEFBE6"/>
<g opacity="0.8">
<path fill-rule="evenodd" clip-rule="evenodd" d="M68.3516 40.3631C67.3067 40.3059 66.1781 40.2441 64.7392 40.2441C61.2122 40.2441 56.8415 41.5097 54.2061 44.4277C51.9861 47.0881 50.6504 50.512 50.6504 54.2478C50.6504 58.8209 52.6519 62.9266 55.8267 65.7365C65.5645 62.4991 72.5869 53.3144 72.5869 42.4895C72.5869 41.7914 72.5577 41.1002 72.5005 40.417C70.9271 40.504 69.7102 40.4374 68.3516 40.3631Z" fill="url(#paint0_linear_2603_50882)"/>
<path fill-rule="evenodd" clip-rule="evenodd" d="M34.9056 35.9216C37.2355 36.2136 39.3841 36.4829 40.5554 36.7295C44.9219 37.6488 48.1143 39.1473 50.7563 41.4119C53.0975 43.4186 54.1267 44.8669 55.1042 46.9304C55.8266 48.4555 56.3339 49.7269 56.707 50.7955C57.32 52.9391 57.6482 55.2028 57.6482 57.5432C57.6482 60.4122 57.155 63.1659 56.2486 65.7243C53.8112 66.5374 51.2034 66.9777 48.4926 66.9777C34.9657 66.9777 24 56.012 24 42.4851C24 39.6162 24.4933 36.8624 25.3996 34.3041C25.4186 34.2977 25.4376 34.2914 25.4565 34.2852C26.6987 34.8929 31.0503 35.4383 34.9056 35.9216Z" fill="url(#paint1_linear_2603_50882)"/>
</g>
<defs>
<linearGradient id="paint0_linear_2603_50882" x1="61.6186" y1="38.9092" x2="61.6186" y2="65.7365" gradientUnits="userSpaceOnUse">
<stop stop-color="#6FDC8C"/>
<stop offset="1" stop-color="#5DE180"/>
</linearGradient>
<linearGradient id="paint1_linear_2603_50882" x1="41.9794" y1="33.0506" x2="41.9794" y2="66.9948" gradientUnits="userSpaceOnUse">
<stop stop-color="#A7F0BA"/>
<stop offset="1" stop-color="#15AE41"/>
</linearGradient>
</defs>
</svg>
