<svg width="24" height="24" viewBox="0 0 24 24" fill="none" xmlns="http://www.w3.org/2000/svg">
<rect x="4" y="4" width="16" height="16" fill="#0AAF42"/>
<path d="M4 7C3.44772 7 3 7.44772 3 8C3 8.55228 3.44772 9 4 9V7ZM20 9C20.5523 9 21 8.55228 21 8C21 7.44772 20.5523 7 20 7V9ZM4 9H20V7H4V9Z" fill="#0AAF42"/>
<path d="M5 5H19V3H5V5ZM19 5V19H21V5H19ZM19 19H5V21H19V19ZM5 19V5H3V19H5ZM5 19H3C3 20.1046 3.89543 21 5 21V19ZM19 19V21C20.1046 21 21 20.1046 21 19H19ZM19 5H21C21 3.89543 20.1046 3 19 3V5ZM5 3C3.89543 3 3 3.89543 3 5H5V3Z" fill="#0AAF42"/>
<path d="M15.7071 12.7071C16.0976 12.3166 16.0976 11.6834 15.7071 11.2929C15.3166 10.9024 14.6834 10.9024 14.2929 11.2929L15.7071 12.7071ZM11 16L10.2929 16.7071C10.6834 17.0976 11.3166 17.0976 11.7071 16.7071L11 16ZM9.70711 13.2929C9.31658 12.9024 8.68342 12.9024 8.29289 13.2929C7.90237 13.6834 7.90237 14.3166 8.29289 14.7071L9.70711 13.2929ZM14.2929 11.2929L10.2929 15.2929L11.7071 16.7071L15.7071 12.7071L14.2929 11.2929ZM11.7071 15.2929L9.70711 13.2929L8.29289 14.7071L10.2929 16.7071L11.7071 15.2929Z" fill="white"/>
<path d="M17 2C17 1.44772 16.5523 1 16 1C15.4477 1 15 1.44772 15 2H17ZM15 4C15 4.55228 15.4477 5 16 5C16.5523 5 17 4.55228 17 4H15ZM15 2V4H17V2H15Z" fill="#0AAF42"/>
<path d="M9 2C9 1.44772 8.55228 1 8 1C7.44772 1 7 1.44772 7 2H9ZM7 4C7 4.55228 7.44772 5 8 5C8.55228 5 9 4.55228 9 4H7ZM7 2V4H9V2H7Z" fill="#0AAF42"/>
<rect x="3" y="6" width="18" height="2" fill="white"/>
</svg>
