<svg width="24" height="24" viewBox="0 0 24 24" fill="none" xmlns="http://www.w3.org/2000/svg">
<path fill-rule="evenodd" clip-rule="evenodd" d="M5.19993 19.3321C5.94807 16.2714 8.70878 14 12 14C15.2912 14 18.0519 16.2714 18.8001 19.3321C20.7683 17.5058 22 14.8968 22 12C22 6.47715 17.5228 2 12 2C6.47715 2 2 6.47715 2 12C2 14.8968 3.23169 17.5058 5.19993 19.3321ZM16 9C16 11.2091 14.2091 13 12 13C9.79086 13 8 11.2091 8 9C8 6.79086 9.79086 5 12 5C14.2091 5 16 6.79086 16 9Z" fill="#0AAF42"/>
<circle cx="12" cy="12" r="9" stroke="#0AAF42" stroke-width="2"/>
</svg>
