<svg width="105" height="127" viewBox="0 0 105 127" fill="none" xmlns="http://www.w3.org/2000/svg">
<g filter="url(#filter0_f_2574_52014)">
<ellipse cx="47.1395" cy="118.899" rx="27.5662" ry="4.03408" fill="black" fill-opacity="0.3"/>
</g>
<path d="M81.1203 80.1953H11.7097C11.1567 80.1953 10.7361 80.6918 10.827 81.2373L16.6527 116.192C17.0123 118.349 18.8789 119.93 21.0661 119.93H71.7638C73.951 119.93 75.8176 118.349 76.1772 116.192L82.0029 81.2373C82.0938 80.6918 81.6732 80.1953 81.1203 80.1953Z" fill="url(#paint0_linear_2574_52014)"/>
<g filter="url(#filter1_f_2574_52014)">
<rect x="81.1831" y="75.6582" width="42.3082" height="15.1937" rx="5.36612" transform="rotate(98.7642 81.1831 75.6582)" fill="#9C4F0E" fill-opacity="0.5"/>
</g>
<g filter="url(#filter2_f_2574_52014)">
<rect x="69.6987" y="75.0391" width="42.3082" height="15.1937" rx="5.36612" transform="rotate(98.7642 69.6987 75.0391)" fill="#AC5B18" fill-opacity="0.5"/>
</g>
<g filter="url(#filter3_d_2574_52014)">
<path fill-rule="evenodd" clip-rule="evenodd" d="M73.3406 26.1958C71.9466 26.1195 70.4407 26.0371 68.5209 26.0371C63.8026 26.0371 57.9525 27.7347 54.4392 31.65C51.4935 35.195 49.7222 39.7506 49.7222 44.7199C49.7222 50.8215 52.3927 56.2993 56.6286 60.0484C69.621 55.729 78.9906 43.4745 78.9906 29.0315C78.9906 28.1007 78.9517 27.1789 78.8754 26.2678C76.7766 26.3838 75.153 26.2949 73.3406 26.1958Z" fill="#6FDC8C"/>
</g>
<g filter="url(#filter4_d_2574_52014)">
<path fill-rule="evenodd" clip-rule="evenodd" d="M28.1842 20.2711C31.2928 20.6608 34.1596 21.0201 35.7224 21.3491C41.5483 22.5756 45.8077 24.575 49.3328 27.5965C52.4564 30.2739 53.8297 32.2062 55.1339 34.9595C56.0919 36.9818 56.7663 38.6699 57.2632 40.0904C58.0855 42.9574 58.5259 45.9858 58.5259 49.1171C58.5259 52.945 57.8678 56.6192 56.6585 60.0326C53.4064 61.1174 49.9269 61.705 46.3102 61.705C28.2622 61.705 13.6313 47.0742 13.6313 29.0261C13.6313 25.1983 14.2895 21.5241 15.4988 18.1107C15.5236 18.1024 15.5485 18.0942 15.5733 18.0859C17.2257 18.8975 23.0366 19.6258 28.1842 20.2711Z" fill="url(#paint1_linear_2574_52014)"/>
</g>
<g filter="url(#filter5_d_2574_52014)">
<rect x="2.70557" y="56.3613" width="87.4173" height="26.4901" rx="13.2451" fill="url(#paint2_linear_2574_52014)"/>
</g>
<g filter="url(#filter6_f_2574_52014)">
<rect x="17.2759" y="59.9688" width="54.6358" height="3.64239" rx="1.82119" fill="white" fill-opacity="0.5"/>
</g>
<path d="M95.0596 48.859H94.9057C91.059 48.7051 87.6739 45.1662 87.3662 41.3195V41.1656C87.3662 40.2424 87.9817 39.627 88.9049 39.627C89.6742 39.627 90.4436 40.2424 90.4436 41.1656C90.4436 43.4736 92.7516 45.7816 95.0596 45.7816C95.8289 45.7816 96.5982 46.551 96.5982 47.3203C96.5982 48.0896 95.9828 48.859 95.0596 48.859Z" fill="white"/>
<g filter="url(#filter7_di_2574_52014)">
<path fill-rule="evenodd" clip-rule="evenodd" d="M85.4466 39.9282C77.7532 39.9282 71.5986 33.7733 71.5986 26.0799C71.5986 19.9254 75.2916 13.4629 76.8301 11.001L76.9095 10.882C77.9779 9.27485 82.15 3 85.4466 3C89.755 3 99.2949 16.3864 99.2949 26.0799C99.2949 33.7733 93.14 39.9282 85.4466 39.9282Z" fill="#47BDFF"/>
<g filter="url(#filter8_f_2574_52014)">
<path d="M83.5527 34.9566H83.3989C79.5522 34.8028 76.1671 31.2638 75.8594 27.4171V27.2633C75.8594 26.3401 76.4748 25.7246 77.398 25.7246C78.1674 25.7246 78.9367 26.3401 78.9367 27.2633C78.9367 29.5713 81.2447 31.8793 83.5527 31.8793C84.3221 31.8793 85.0914 32.6486 85.0914 33.418C85.0914 34.1873 84.4759 34.9566 83.5527 34.9566Z" fill="white"/>
</g>
</g>
<defs>
<filter id="filter0_f_2574_52014" x="16.4035" y="111.696" width="61.4717" height="14.4078" filterUnits="userSpaceOnUse" color-interpolation-filters="sRGB">
<feFlood flood-opacity="0" result="BackgroundImageFix"/>
<feBlend mode="normal" in="SourceGraphic" in2="BackgroundImageFix" result="shape"/>
<feGaussianBlur stdDeviation="1.58485" result="effect1_foregroundBlur_2574_52014"/>
</filter>
<filter id="filter1_f_2574_52014" x="56.1817" y="69.8048" width="28.5399" height="51.2069" filterUnits="userSpaceOnUse" color-interpolation-filters="sRGB">
<feFlood flood-opacity="0" result="BackgroundImageFix"/>
<feBlend mode="normal" in="SourceGraphic" in2="BackgroundImageFix" result="shape"/>
<feGaussianBlur stdDeviation="2.14645" result="effect1_foregroundBlur_2574_52014"/>
</filter>
<filter id="filter2_f_2574_52014" x="44.6973" y="69.1856" width="28.5399" height="51.2069" filterUnits="userSpaceOnUse" color-interpolation-filters="sRGB">
<feFlood flood-opacity="0" result="BackgroundImageFix"/>
<feBlend mode="normal" in="SourceGraphic" in2="BackgroundImageFix" result="shape"/>
<feGaussianBlur stdDeviation="2.14645" result="effect1_foregroundBlur_2574_52014"/>
</filter>
<filter id="filter3_d_2574_52014" x="47.5757" y="26.0371" width="33.5615" height="38.3046" filterUnits="userSpaceOnUse" color-interpolation-filters="sRGB">
<feFlood flood-opacity="0" result="BackgroundImageFix"/>
<feColorMatrix in="SourceAlpha" type="matrix" values="0 0 0 0 0 0 0 0 0 0 0 0 0 0 0 0 0 0 127 0" result="hardAlpha"/>
<feOffset dy="2.14645"/>
<feGaussianBlur stdDeviation="1.07322"/>
<feComposite in2="hardAlpha" operator="out"/>
<feColorMatrix type="matrix" values="0 0 0 0 0 0 0 0 0 0 0 0 0 0 0 0 0 0 0.08 0"/>
<feBlend mode="normal" in2="BackgroundImageFix" result="effect1_dropShadow_2574_52014"/>
<feBlend mode="normal" in="SourceGraphic" in2="effect1_dropShadow_2574_52014" result="shape"/>
</filter>
<filter id="filter4_d_2574_52014" x="11.4849" y="18.0859" width="49.1874" height="47.912" filterUnits="userSpaceOnUse" color-interpolation-filters="sRGB">
<feFlood flood-opacity="0" result="BackgroundImageFix"/>
<feColorMatrix in="SourceAlpha" type="matrix" values="0 0 0 0 0 0 0 0 0 0 0 0 0 0 0 0 0 0 127 0" result="hardAlpha"/>
<feOffset dy="2.14645"/>
<feGaussianBlur stdDeviation="1.07322"/>
<feComposite in2="hardAlpha" operator="out"/>
<feColorMatrix type="matrix" values="0 0 0 0 0 0 0 0 0 0 0 0 0 0 0 0 0 0 0.08 0"/>
<feBlend mode="normal" in2="BackgroundImageFix" result="effect1_dropShadow_2574_52014"/>
<feBlend mode="normal" in="SourceGraphic" in2="effect1_dropShadow_2574_52014" result="shape"/>
</filter>
<filter id="filter5_d_2574_52014" x="0.559118" y="55.2881" width="91.7104" height="30.7831" filterUnits="userSpaceOnUse" color-interpolation-filters="sRGB">
<feFlood flood-opacity="0" result="BackgroundImageFix"/>
<feColorMatrix in="SourceAlpha" type="matrix" values="0 0 0 0 0 0 0 0 0 0 0 0 0 0 0 0 0 0 127 0" result="hardAlpha"/>
<feOffset dy="1.07322"/>
<feGaussianBlur stdDeviation="1.07322"/>
<feComposite in2="hardAlpha" operator="out"/>
<feColorMatrix type="matrix" values="0 0 0 0 0 0 0 0 0 0 0 0 0 0 0 0 0 0 0.16 0"/>
<feBlend mode="normal" in2="BackgroundImageFix" result="effect1_dropShadow_2574_52014"/>
<feBlend mode="normal" in="SourceGraphic" in2="effect1_dropShadow_2574_52014" result="shape"/>
</filter>
<filter id="filter6_f_2574_52014" x="12.983" y="55.6759" width="63.2215" height="12.2284" filterUnits="userSpaceOnUse" color-interpolation-filters="sRGB">
<feFlood flood-opacity="0" result="BackgroundImageFix"/>
<feBlend mode="normal" in="SourceGraphic" in2="BackgroundImageFix" result="shape"/>
<feGaussianBlur stdDeviation="2.14645" result="effect1_foregroundBlur_2574_52014"/>
</filter>
<filter id="filter7_di_2574_52014" x="65.9174" y="0.159397" width="39.0587" height="48.2901" filterUnits="userSpaceOnUse" color-interpolation-filters="sRGB">
<feFlood flood-opacity="0" result="BackgroundImageFix"/>
<feColorMatrix in="SourceAlpha" type="matrix" values="0 0 0 0 0 0 0 0 0 0 0 0 0 0 0 0 0 0 127 0" result="hardAlpha"/>
<feOffset dy="2.8406"/>
<feGaussianBlur stdDeviation="2.8406"/>
<feComposite in2="hardAlpha" operator="out"/>
<feColorMatrix type="matrix" values="0 0 0 0 0 0 0 0 0 0 0 0 0 0 0 0 0 0 0.25 0"/>
<feBlend mode="normal" in2="BackgroundImageFix" result="effect1_dropShadow_2574_52014"/>
<feBlend mode="normal" in="SourceGraphic" in2="effect1_dropShadow_2574_52014" result="shape"/>
<feColorMatrix in="SourceAlpha" type="matrix" values="0 0 0 0 0 0 0 0 0 0 0 0 0 0 0 0 0 0 127 0" result="hardAlpha"/>
<feOffset dx="2.8406" dy="2.8406"/>
<feGaussianBlur stdDeviation="5.68121"/>
<feComposite in2="hardAlpha" operator="arithmetic" k2="-1" k3="1"/>
<feColorMatrix type="matrix" values="0 0 0 0 0.804167 0 0 0 0 0.9765 0 0 0 0 1 0 0 0 0.5 0"/>
<feBlend mode="normal" in2="shape" result="effect2_innerShadow_2574_52014"/>
</filter>
<filter id="filter8_f_2574_52014" x="73.0188" y="22.884" width="14.9131" height="14.9136" filterUnits="userSpaceOnUse" color-interpolation-filters="sRGB">
<feFlood flood-opacity="0" result="BackgroundImageFix"/>
<feBlend mode="normal" in="SourceGraphic" in2="BackgroundImageFix" result="shape"/>
<feGaussianBlur stdDeviation="1.4203" result="effect1_foregroundBlur_2574_52014"/>
</filter>
<linearGradient id="paint0_linear_2574_52014" x1="19.1519" y1="94.5859" x2="62.6519" y2="105.086" gradientUnits="userSpaceOnUse">
<stop stop-color="#C88044"/>
<stop offset="1" stop-color="#AE5C18"/>
</linearGradient>
<linearGradient id="paint1_linear_2574_52014" x1="37.62" y1="16.4388" x2="37.62" y2="61.7278" gradientUnits="userSpaceOnUse">
<stop offset="0.322917" stop-color="#70DF8D"/>
<stop offset="0.921875" stop-color="#15AE41"/>
</linearGradient>
<linearGradient id="paint2_linear_2574_52014" x1="46.4142" y1="56.3613" x2="46.4142" y2="82.8514" gradientUnits="userSpaceOnUse">
<stop stop-color="#FE9A51"/>
<stop offset="0.755208" stop-color="#FF8023"/>
<stop offset="0.9999" stop-color="#EA7118"/>
<stop offset="1" stop-color="#FE9A51"/>
</linearGradient>
</defs>
</svg>
