<svg width="97" height="127" viewBox="0 0 97 127" fill="none" xmlns="http://www.w3.org/2000/svg">
<path d="M42.5 6.3007C42.4998 5.21345 42.9368 4.17178 43.7126 3.41007C44.4884 2.64835 45.5379 2.23056 46.625 2.2507C47.913 2.24386 49.142 2.79008 50 3.7507C50.858 2.79008 52.087 2.24386 53.375 2.2507C54.4621 2.23056 55.5116 2.64835 56.2874 3.41007C57.0632 4.17178 57.5002 5.21345 57.5 6.3007C57.5 10.3177 52.7157 13.3507 50 15.7507C47.2902 13.3304 42.5 10.3207 42.5 6.3007Z" fill="#FA4D56"/>
<g filter="url(#filter0_f_2574_52199)">
<ellipse cx="47.4876" cy="118.813" rx="27.5662" ry="4.03408" fill="black" fill-opacity="0.3"/>
</g>
<path d="M81.4684 80.1094H12.0578C11.5048 80.1094 11.0842 80.6059 11.1751 81.1513L17.0009 116.106C17.3604 118.263 19.2271 119.845 21.4142 119.845H72.112C74.2991 119.845 76.1658 118.263 76.5253 116.106L82.3511 81.1513C82.442 80.6059 82.0214 80.1094 81.4684 80.1094Z" fill="url(#paint0_linear_2574_52199)"/>
<g filter="url(#filter1_f_2574_52199)">
<rect x="81.5312" y="75.5723" width="42.3082" height="15.1937" rx="5.36612" transform="rotate(98.7642 81.5312 75.5723)" fill="#9C4F0E" fill-opacity="0.5"/>
</g>
<g filter="url(#filter2_f_2574_52199)">
<rect x="70.0469" y="74.9531" width="42.3082" height="15.1937" rx="5.36612" transform="rotate(98.7642 70.0469 74.9531)" fill="#AC5B18" fill-opacity="0.5"/>
</g>
<g filter="url(#filter3_d_2574_52199)">
<path fill-rule="evenodd" clip-rule="evenodd" d="M73.6888 26.1098C72.2947 26.0336 70.7889 25.9512 68.869 25.9512C64.1507 25.9512 58.3007 27.6487 54.7874 31.5641C51.8416 35.109 50.0703 39.6646 50.0703 44.634C50.0703 50.7355 52.7408 56.2134 56.9767 59.9625C69.9691 55.6431 79.3387 43.3885 79.3387 28.9456C79.3387 28.0147 79.2998 27.093 79.2235 26.1818C77.1247 26.2978 75.5012 26.209 73.6888 26.1098Z" fill="#6FDC8C"/>
</g>
<g filter="url(#filter4_d_2574_52199)">
<path fill-rule="evenodd" clip-rule="evenodd" d="M28.5323 20.1851C31.641 20.5748 34.5077 20.9342 36.0706 21.2632C41.8964 22.4897 46.1558 24.489 49.6809 27.5105C52.8046 30.188 54.1779 32.1203 55.482 34.8735C56.44 36.8959 57.1145 38.584 57.6114 40.0044C58.4337 42.8714 58.8741 45.8999 58.8741 49.0312C58.8741 52.8591 58.2159 56.5332 57.0066 59.9467C53.7546 61.0315 50.2751 61.6191 46.6583 61.6191C28.6103 61.6191 13.9795 46.9882 13.9795 28.9402C13.9795 25.1123 14.6376 21.4382 15.8469 18.0248C15.8718 18.0165 15.8966 18.0082 15.9215 18C17.5739 18.8115 23.3847 19.5399 28.5323 20.1851Z" fill="url(#paint1_linear_2574_52199)"/>
</g>
<g filter="url(#filter5_d_2574_52199)">
<rect x="3.05371" y="56.2754" width="87.4173" height="26.4901" rx="13.2451" fill="url(#paint2_linear_2574_52199)"/>
</g>
<g filter="url(#filter6_f_2574_52199)">
<rect x="17.624" y="59.8828" width="54.6358" height="3.64239" rx="1.82119" fill="white" fill-opacity="0.5"/>
</g>
<path d="M95.4077 48.773H95.2538C91.4072 48.6192 88.0221 45.0802 87.7144 41.2336V41.0797C87.7144 40.1565 88.3298 39.541 89.253 39.541C90.0224 39.541 90.7917 40.1565 90.7917 41.0797C90.7917 43.3877 93.0997 45.6957 95.4077 45.6957C96.177 45.6957 96.9464 46.465 96.9464 47.2344C96.9464 48.0037 96.3309 48.773 95.4077 48.773Z" fill="white"/>
<defs>
<filter id="filter0_f_2574_52199" x="16.7517" y="111.61" width="61.4717" height="14.4078" filterUnits="userSpaceOnUse" color-interpolation-filters="sRGB">
<feFlood flood-opacity="0" result="BackgroundImageFix"/>
<feBlend mode="normal" in="SourceGraphic" in2="BackgroundImageFix" result="shape"/>
<feGaussianBlur stdDeviation="1.58485" result="effect1_foregroundBlur_2574_52199"/>
</filter>
<filter id="filter1_f_2574_52199" x="56.5299" y="69.7188" width="28.5399" height="51.2069" filterUnits="userSpaceOnUse" color-interpolation-filters="sRGB">
<feFlood flood-opacity="0" result="BackgroundImageFix"/>
<feBlend mode="normal" in="SourceGraphic" in2="BackgroundImageFix" result="shape"/>
<feGaussianBlur stdDeviation="2.14645" result="effect1_foregroundBlur_2574_52199"/>
</filter>
<filter id="filter2_f_2574_52199" x="45.0455" y="69.0997" width="28.5399" height="51.2069" filterUnits="userSpaceOnUse" color-interpolation-filters="sRGB">
<feFlood flood-opacity="0" result="BackgroundImageFix"/>
<feBlend mode="normal" in="SourceGraphic" in2="BackgroundImageFix" result="shape"/>
<feGaussianBlur stdDeviation="2.14645" result="effect1_foregroundBlur_2574_52199"/>
</filter>
<filter id="filter3_d_2574_52199" x="47.9239" y="25.9512" width="33.5615" height="38.3046" filterUnits="userSpaceOnUse" color-interpolation-filters="sRGB">
<feFlood flood-opacity="0" result="BackgroundImageFix"/>
<feColorMatrix in="SourceAlpha" type="matrix" values="0 0 0 0 0 0 0 0 0 0 0 0 0 0 0 0 0 0 127 0" result="hardAlpha"/>
<feOffset dy="2.14645"/>
<feGaussianBlur stdDeviation="1.07322"/>
<feComposite in2="hardAlpha" operator="out"/>
<feColorMatrix type="matrix" values="0 0 0 0 0 0 0 0 0 0 0 0 0 0 0 0 0 0 0.08 0"/>
<feBlend mode="normal" in2="BackgroundImageFix" result="effect1_dropShadow_2574_52199"/>
<feBlend mode="normal" in="SourceGraphic" in2="effect1_dropShadow_2574_52199" result="shape"/>
</filter>
<filter id="filter4_d_2574_52199" x="11.833" y="18" width="49.1874" height="47.912" filterUnits="userSpaceOnUse" color-interpolation-filters="sRGB">
<feFlood flood-opacity="0" result="BackgroundImageFix"/>
<feColorMatrix in="SourceAlpha" type="matrix" values="0 0 0 0 0 0 0 0 0 0 0 0 0 0 0 0 0 0 127 0" result="hardAlpha"/>
<feOffset dy="2.14645"/>
<feGaussianBlur stdDeviation="1.07322"/>
<feComposite in2="hardAlpha" operator="out"/>
<feColorMatrix type="matrix" values="0 0 0 0 0 0 0 0 0 0 0 0 0 0 0 0 0 0 0.08 0"/>
<feBlend mode="normal" in2="BackgroundImageFix" result="effect1_dropShadow_2574_52199"/>
<feBlend mode="normal" in="SourceGraphic" in2="effect1_dropShadow_2574_52199" result="shape"/>
</filter>
<filter id="filter5_d_2574_52199" x="0.907262" y="55.2022" width="91.7104" height="30.7831" filterUnits="userSpaceOnUse" color-interpolation-filters="sRGB">
<feFlood flood-opacity="0" result="BackgroundImageFix"/>
<feColorMatrix in="SourceAlpha" type="matrix" values="0 0 0 0 0 0 0 0 0 0 0 0 0 0 0 0 0 0 127 0" result="hardAlpha"/>
<feOffset dy="1.07322"/>
<feGaussianBlur stdDeviation="1.07322"/>
<feComposite in2="hardAlpha" operator="out"/>
<feColorMatrix type="matrix" values="0 0 0 0 0 0 0 0 0 0 0 0 0 0 0 0 0 0 0.16 0"/>
<feBlend mode="normal" in2="BackgroundImageFix" result="effect1_dropShadow_2574_52199"/>
<feBlend mode="normal" in="SourceGraphic" in2="effect1_dropShadow_2574_52199" result="shape"/>
</filter>
<filter id="filter6_f_2574_52199" x="13.3311" y="55.5899" width="63.2215" height="12.2284" filterUnits="userSpaceOnUse" color-interpolation-filters="sRGB">
<feFlood flood-opacity="0" result="BackgroundImageFix"/>
<feBlend mode="normal" in="SourceGraphic" in2="BackgroundImageFix" result="shape"/>
<feGaussianBlur stdDeviation="2.14645" result="effect1_foregroundBlur_2574_52199"/>
</filter>
<linearGradient id="paint0_linear_2574_52199" x1="19.5" y1="94.5" x2="63" y2="105" gradientUnits="userSpaceOnUse">
<stop stop-color="#C88044"/>
<stop offset="1" stop-color="#AE5C18"/>
</linearGradient>
<linearGradient id="paint1_linear_2574_52199" x1="37.9681" y1="16.3529" x2="37.9681" y2="61.6419" gradientUnits="userSpaceOnUse">
<stop offset="0.322917" stop-color="#70DF8D"/>
<stop offset="0.921875" stop-color="#15AE41"/>
</linearGradient>
<linearGradient id="paint2_linear_2574_52199" x1="46.7624" y1="56.2754" x2="46.7624" y2="82.7655" gradientUnits="userSpaceOnUse">
<stop stop-color="#FE9A51"/>
<stop offset="0.755208" stop-color="#FF8023"/>
<stop offset="0.9999" stop-color="#EA7118"/>
<stop offset="1" stop-color="#FE9A51"/>
</linearGradient>
</defs>
</svg>
